<?xml version="1.0" encoding="utf-8" standalone="no"?>
<!DOCTYPE svg PUBLIC "-//W3C//DTD SVG 1.1//EN"
  "http://www.w3.org/Graphics/SVG/1.1/DTD/svg11.dtd">
<svg xmlns:xlink="http://www.w3.org/1999/xlink" width="835.2pt" height="309.6pt" viewBox="0 0 835.2 309.6" xmlns="http://www.w3.org/2000/svg" version="1.1">
 <metadata>
  <rdf:RDF xmlns:dc="http://purl.org/dc/elements/1.1/" xmlns:cc="http://creativecommons.org/ns#" xmlns:rdf="http://www.w3.org/1999/02/22-rdf-syntax-ns#">
   <cc:Work>
    <dc:type rdf:resource="http://purl.org/dc/dcmitype/StillImage"/>
    <dc:format>image/svg+xml</dc:format>
    <dc:creator>
     <cc:Agent>
      <dc:title>Matplotlib v3.6.3, https://matplotlib.org/</dc:title>
     </cc:Agent>
    </dc:creator>
   </cc:Work>
  </rdf:RDF>
 </metadata>
 <defs>
  <style type="text/css">*{stroke-linejoin: round; stroke-linecap: butt}</style>
 </defs>
 <g id="figure_1">
  <g id="patch_1">
   <path d="M 0 309.6
L 835.2 309.6
L 835.2 0
L 0 0
z
" style="fill: #ffffff"/>
  </g>
  <g id="axes_1">
   <g id="patch_2">
    <path d="M 54 97.2
L 134.64 97.2
L 134.64 143.28
L 54 143.28
z
" clip-path="url(#p344b50b082)" style="fill: #ffffff; stroke: #000000; stroke-linejoin: miter"/>
   </g>
   <g id="patch_3">
    <path d="M 134.64 97.2
L 215.28 97.2
L 215.28 143.28
L 134.64 143.28
z
" clip-path="url(#p344b50b082)" style="fill: #ffffff; stroke: #000000; stroke-linejoin: miter"/>
   </g>
   <g id="patch_4">
    <path d="M 215.28 97.2
L 295.92 97.2
L 295.92 143.28
L 215.28 143.28
z
" clip-path="url(#p344b50b082)" style="fill: #ffffff; stroke: #000000; stroke-linejoin: miter"/>
   </g>
   <g id="patch_5">
    <path d="M 295.92 97.2
L 376.56 97.2
L 376.56 143.28
L 295.92 143.28
z
" clip-path="url(#p344b50b082)" style="fill: #ffffff; stroke: #000000; stroke-linejoin: miter"/>
   </g>
   <g id="patch_6">
    <path d="M 376.56 97.2
L 457.2 97.2
L 457.2 143.28
L 376.56 143.28
z
" clip-path="url(#p344b50b082)" style="fill: #ffffff; stroke: #000000; stroke-linejoin: miter"/>
   </g>
   <g id="patch_7">
    <path d="M 457.2 97.2
L 537.84 97.2
L 537.84 143.28
L 457.2 143.28
z
" clip-path="url(#p344b50b082)" style="fill: #ffffff; stroke: #000000; stroke-linejoin: miter"/>
   </g>
   <g id="patch_8">
    <path d="M 537.84 97.2
L 618.48 97.2
L 618.48 143.28
L 537.84 143.28
z
" clip-path="url(#p344b50b082)" style="fill: #ffffff; stroke: #000000; stroke-linejoin: miter"/>
   </g>
   <g id="patch_9">
    <path d="M 618.48 97.2
L 699.12 97.2
L 699.12 143.28
L 618.48 143.28
z
" clip-path="url(#p344b50b082)" style="fill: #ffffff; stroke: #000000; stroke-linejoin: miter"/>
   </g>
   <g id="patch_10">
    <path d="M 699.12 97.2
L 779.76 97.2
L 779.76 143.28
L 699.12 143.28
z
" clip-path="url(#p344b50b082)" style="fill: #e9e9e9; stroke: #000000; stroke-linejoin: miter"/>
   </g>
   <g id="patch_11">
    <path d="M 739.44 143.28
Q 739.44 183.24 739.44 222.081966
" clip-path="url(#p344b50b082)" style="fill: none; stroke: #000000; stroke-linecap: round"/>
    <path d="M 741.84 217.281966
L 739.44 222.081966
L 737.04 217.281966
L 741.84 217.281966
z
" clip-path="url(#p344b50b082)" style="stroke: #000000; stroke-linecap: round"/>
   </g>
   <g id="patch_12">
    <path d="M 536.4 223.2
L 792 223.2
L 792 270
L 536.4 270
z
" clip-path="url(#p344b50b082)" style="fill: #ffffff; stroke: #000000; stroke-linejoin: miter"/>
   </g>
   <g id="line2d_1">
    <path d="M 54 75.6
L 54 154.08
" clip-path="url(#p344b50b082)" style="fill: none; stroke: #000000; stroke-linecap: square"/>
   </g>
   <g id="line2d_2">
    <path d="M 779.76 75.6
L 779.76 154.08
" clip-path="url(#p344b50b082)" style="fill: none; stroke: #000000; stroke-linecap: square"/>
   </g>
   <g id="text_1">
    <!-- Prompt约4808.101 chip -->
    <g transform="translate(50.4 34.441895) scale(0.17 -0.17)">
     <defs>
      <path id="SimSun-50" d="M 950 2100
L 950 450
Q 950 350 1012 300
Q 1075 250 1175 250
L 1350 250
L 1350 100
L 150 100
L 150 250
L 325 250
Q 450 250 500 300
Q 550 350 550 450
L 550 4025
Q 550 4125 500 4175
Q 450 4225 325 4225
L 175 4225
L 175 4375
L 1650 4375
Q 2275 4375 2612 4062
Q 2950 3750 2950 3275
Q 2950 2700 2587 2400
Q 2225 2100 1725 2100
L 950 2100
z
M 1575 2250
Q 1950 2250 2237 2475
Q 2525 2700 2525 3250
Q 2525 3750 2287 3987
Q 2050 4225 1525 4225
L 1175 4225
Q 1075 4225 1012 4175
Q 950 4125 950 4025
L 950 2250
L 1575 2250
z
" transform="scale(0.015625)"/>
      <path id="SimSun-72" d="M 1275 2125
Q 1525 2525 1812 2737
Q 2100 2950 2400 2950
Q 2650 2950 2787 2837
Q 2925 2725 2925 2575
Q 2925 2450 2862 2375
Q 2800 2300 2675 2300
Q 2550 2300 2487 2375
Q 2425 2450 2450 2575
Q 2450 2650 2425 2700
Q 2400 2750 2275 2750
Q 2075 2750 1787 2500
Q 1500 2250 1275 1800
L 1275 450
Q 1275 350 1337 300
Q 1400 250 1500 250
L 2050 250
L 2050 100
L 200 100
L 200 250
L 700 250
Q 825 250 875 300
Q 925 350 925 450
L 925 2525
Q 925 2625 875 2687
Q 825 2750 700 2750
L 225 2750
L 225 2900
L 425 2900
Q 600 2900 837 2937
Q 1075 2975 1200 3025
L 1275 3025
L 1275 2125
z
" transform="scale(0.015625)"/>
      <path id="SimSun-6f" d="M 2900 1500
Q 2900 875 2525 462
Q 2150 50 1600 50
Q 1025 50 662 475
Q 300 900 300 1500
Q 300 2050 662 2500
Q 1025 2950 1600 2950
Q 2200 2950 2550 2500
Q 2900 2050 2900 1500
z
M 700 1475
Q 700 825 962 512
Q 1225 200 1600 200
Q 2025 200 2262 537
Q 2500 875 2500 1475
Q 2500 2125 2237 2462
Q 1975 2800 1600 2800
Q 1250 2800 975 2462
Q 700 2125 700 1475
z
" transform="scale(0.015625)"/>
      <path id="SimSun-6d" d="M 175 2900
Q 300 2900 425 2925
Q 550 2950 625 3000
L 675 3000
L 675 2575
Q 800 2775 950 2862
Q 1100 2950 1275 2950
Q 1500 2950 1625 2862
Q 1750 2775 1775 2575
Q 1900 2775 2062 2862
Q 2225 2950 2400 2950
Q 2700 2950 2812 2775
Q 2925 2600 2925 2325
L 2925 425
Q 2925 325 2975 287
Q 3025 250 3125 250
L 3175 250
L 3175 100
L 2325 100
L 2325 250
L 2375 250
Q 2475 250 2525 287
Q 2575 325 2575 425
L 2575 2300
Q 2575 2575 2512 2662
Q 2450 2750 2325 2750
Q 2150 2750 2012 2625
Q 1875 2500 1800 2275
L 1800 425
Q 1800 325 1850 287
Q 1900 250 2000 250
L 2050 250
L 2050 100
L 1200 100
L 1200 250
L 1250 250
Q 1350 250 1400 287
Q 1450 325 1450 425
L 1450 2300
Q 1450 2525 1400 2637
Q 1350 2750 1200 2750
Q 1025 2750 887 2625
Q 750 2500 675 2250
L 675 425
Q 675 325 725 287
Q 775 250 875 250
L 925 250
L 925 100
L 75 100
L 75 250
L 125 250
Q 225 250 275 287
Q 325 325 325 425
L 325 2600
Q 325 2675 300 2712
Q 275 2750 200 2750
L 100 2750
L 100 2900
L 175 2900
z
" transform="scale(0.015625)"/>
      <path id="SimSun-70" d="M 1150 -675
L 1325 -675
L 1325 -825
L 175 -825
L 175 -675
L 325 -675
Q 450 -675 500 -625
Q 550 -575 550 -450
L 550 2500
Q 550 2600 500 2662
Q 450 2725 325 2725
L 175 2725
L 175 2875
L 400 2875
Q 525 2875 637 2900
Q 750 2925 850 3000
L 900 3000
L 900 2425
Q 1075 2675 1287 2800
Q 1500 2925 1750 2925
Q 2250 2925 2575 2587
Q 2900 2250 2900 1525
Q 2900 825 2550 450
Q 2200 75 1725 75
Q 1450 75 1262 162
Q 1075 250 900 425
L 900 -450
Q 900 -575 975 -625
Q 1050 -675 1150 -675
z
M 900 750
Q 1025 500 1212 375
Q 1400 250 1650 250
Q 2000 250 2250 562
Q 2500 875 2500 1525
Q 2500 2125 2312 2425
Q 2125 2725 1750 2725
Q 1525 2725 1300 2587
Q 1075 2450 900 2150
L 900 750
z
" transform="scale(0.015625)"/>
      <path id="SimSun-74" d="M 1500 900
Q 1500 550 1625 425
Q 1750 300 2000 300
Q 2250 300 2400 462
Q 2550 625 2600 925
L 2725 875
Q 2675 525 2462 300
Q 2250 75 1900 75
Q 1525 75 1337 300
Q 1150 525 1150 1000
L 1150 2750
L 400 2750
L 400 2900
L 600 2900
Q 900 2900 1087 3087
Q 1275 3275 1325 3675
L 1350 3875
L 1500 3875
L 1500 2900
L 2500 2900
L 2500 2750
L 1500 2750
L 1500 900
z
" transform="scale(0.015625)"/>
      <path id="SimSun-7ea6" d="M 3400 2650
Q 4275 2050 4275 1787
Q 4275 1525 4187 1425
Q 4100 1325 4050 1325
Q 3950 1325 3875 1600
Q 3775 1975 3325 2600
L 3400 2650
z
M 3850 175
Q 4775 125 4962 150
Q 5150 175 5212 587
Q 5275 1000 5300 3575
L 3550 3575
Q 3075 2800 2575 2300
L 2500 2350
Q 3000 3075 3325 3875
Q 3650 4675 3725 5125
L 4275 4825
L 4075 4700
Q 3850 4225 3600 3725
L 5250 3725
L 5425 4000
L 5825 3700
L 5650 3525
Q 5625 2050 5600 1075
Q 5575 100 5337 -137
Q 5100 -375 4750 -475
Q 4725 -75 3850 75
L 3850 175
z
M 1475 5100
L 2000 4825
Q 1700 4500 1500 4050
Q 1275 3600 800 2900
L 1925 3000
Q 2200 3450 2450 4075
L 2925 3750
Q 2675 3575 2250 2950
Q 1800 2325 975 1400
Q 1350 1450 2750 1775
L 2775 1675
Q 1950 1400 1525 1250
Q 1100 1100 750 825
L 425 1325
Q 575 1350 850 1612
Q 1125 1875 1825 2850
Q 1475 2775 1200 2700
Q 925 2625 675 2450
L 400 2900
Q 700 3000 1025 3737
Q 1350 4475 1475 5100
z
M 450 125
Q 1525 350 2900 775
L 2925 675
Q 1800 250 1362 37
Q 925 -175 775 -375
L 450 125
z
" transform="scale(0.015625)"/>
      <path id="SimSun-34" d="M 2300 575
Q 2300 400 2400 325
Q 2500 250 2675 250
L 2900 250
L 2900 100
L 1250 100
L 1250 250
L 1525 250
Q 1725 250 1812 325
Q 1900 400 1900 575
L 1900 1400
L 225 1400
L 225 1525
L 2050 4425
L 2300 4425
L 2300 1550
L 2975 1550
L 2975 1400
L 2300 1400
L 2300 575
z
M 1875 3800
L 450 1550
L 1900 1550
L 1900 3800
L 1875 3800
z
" transform="scale(0.015625)"/>
      <path id="SimSun-38" d="M 625 1125
Q 625 725 887 475
Q 1150 225 1550 225
Q 2025 225 2237 475
Q 2450 725 2450 1100
Q 2450 1425 2150 1725
Q 1850 2025 1250 2275
Q 950 2075 787 1775
Q 625 1475 625 1125
z
M 2825 1175
Q 2825 700 2475 375
Q 2125 50 1550 50
Q 1025 50 650 375
Q 275 700 275 1125
Q 275 1550 487 1850
Q 700 2150 1100 2375
Q 750 2550 562 2812
Q 375 3075 375 3400
Q 375 3825 700 4125
Q 1025 4425 1600 4425
Q 2125 4425 2450 4125
Q 2775 3825 2775 3400
Q 2775 3100 2587 2837
Q 2400 2575 2000 2375
Q 2425 2125 2625 1825
Q 2825 1525 2825 1175
z
M 2425 3375
Q 2425 3725 2225 3987
Q 2025 4250 1600 4250
Q 1125 4250 925 4000
Q 725 3750 725 3475
Q 725 3200 1012 2937
Q 1300 2675 1825 2475
Q 2125 2625 2275 2850
Q 2425 3075 2425 3375
z
" transform="scale(0.015625)"/>
      <path id="SimSun-30" d="M 1600 4225
Q 1250 4225 1012 3687
Q 775 3150 775 2250
Q 775 1300 1012 775
Q 1250 250 1600 250
Q 1975 250 2187 775
Q 2400 1300 2400 2250
Q 2400 3150 2200 3687
Q 2000 4225 1600 4225
z
M 1600 50
Q 1050 50 675 625
Q 300 1200 300 2250
Q 300 3225 662 3825
Q 1025 4425 1600 4425
Q 2150 4425 2512 3850
Q 2875 3275 2875 2250
Q 2875 1225 2512 637
Q 2150 50 1600 50
z
" transform="scale(0.015625)"/>
      <path id="SimSun-2e" d="M 800 25
Q 650 25 537 125
Q 425 225 425 400
Q 425 575 537 675
Q 650 775 800 775
Q 950 775 1062 662
Q 1175 550 1175 400
Q 1175 225 1062 125
Q 950 25 800 25
z
" transform="scale(0.015625)"/>
      <path id="SimSun-31" d="M 1825 4450
L 1825 650
Q 1825 450 1950 350
Q 2075 250 2300 250
L 2550 250
L 2550 100
L 725 100
L 725 250
L 950 250
Q 1200 250 1312 350
Q 1425 450 1425 650
L 1425 3675
Q 1425 3775 1362 3837
Q 1300 3900 1175 3900
L 725 3900
L 725 4050
L 950 4050
Q 1250 4050 1437 4150
Q 1625 4250 1725 4450
L 1825 4450
z
" transform="scale(0.015625)"/>
      <path id="SimSun-20" d="M 0 0
Q 0 0 0 0
z
" transform="scale(0.015625)"/>
      <path id="SimSun-63" d="M 2150 2225
Q 2150 2300 2175 2325
Q 2175 2350 2200 2425
Q 2225 2525 2100 2662
Q 1975 2800 1675 2800
Q 1300 2800 1037 2437
Q 775 2075 775 1475
Q 775 925 1000 587
Q 1225 250 1750 250
Q 2100 250 2337 475
Q 2575 700 2675 1000
L 2800 950
Q 2700 575 2425 312
Q 2150 50 1675 50
Q 1075 50 725 425
Q 375 800 375 1500
Q 375 2125 750 2537
Q 1125 2950 1725 2950
Q 2150 2950 2387 2725
Q 2625 2500 2625 2275
Q 2625 2125 2562 2062
Q 2500 2000 2375 2000
Q 2275 2000 2212 2062
Q 2150 2125 2150 2225
z
" transform="scale(0.015625)"/>
      <path id="SimSun-68" d="M 200 100
L 200 250
L 325 250
Q 450 250 500 300
Q 550 350 550 450
L 550 4025
Q 550 4125 500 4175
Q 450 4225 325 4225
L 175 4225
L 175 4375
L 450 4375
Q 550 4375 650 4425
Q 750 4475 850 4575
L 900 4575
L 900 2450
Q 1125 2725 1362 2837
Q 1600 2950 1875 2950
Q 2250 2950 2450 2737
Q 2650 2525 2650 2075
L 2650 450
Q 2650 350 2712 300
Q 2775 250 2875 250
L 3000 250
L 3000 100
L 1950 100
L 1950 250
L 2075 250
Q 2200 250 2250 300
Q 2300 350 2300 450
L 2300 2025
Q 2300 2450 2162 2587
Q 2025 2725 1800 2725
Q 1600 2725 1362 2600
Q 1125 2475 900 2175
L 900 450
Q 900 350 962 300
Q 1025 250 1125 250
L 1250 250
L 1250 100
L 200 100
z
" transform="scale(0.015625)"/>
      <path id="SimSun-69" d="M 1425 2525
Q 1425 2625 1375 2687
Q 1325 2750 1200 2750
L 675 2750
L 675 2900
L 925 2900
Q 1150 2900 1350 2937
Q 1550 2975 1725 3075
L 1775 3075
L 1775 450
Q 1775 350 1837 300
Q 1900 250 2000 250
L 2525 250
L 2525 100
L 675 100
L 675 250
L 1200 250
Q 1325 250 1375 300
Q 1425 350 1425 450
L 1425 2525
z
M 1725 3025
L 1725 3025
z
M 1625 4425
Q 1750 4425 1850 4337
Q 1950 4250 1950 4125
Q 1950 4000 1850 3900
Q 1750 3800 1625 3800
Q 1500 3800 1400 3900
Q 1300 4000 1300 4125
Q 1300 4250 1400 4337
Q 1500 4425 1625 4425
z
" transform="scale(0.015625)"/>
     </defs>
     <use xlink:href="#SimSun-50"/>
     <use xlink:href="#SimSun-72" x="50"/>
     <use xlink:href="#SimSun-6f" x="100"/>
     <use xlink:href="#SimSun-6d" x="150"/>
     <use xlink:href="#SimSun-70" x="200"/>
     <use xlink:href="#SimSun-74" x="250"/>
     <use xlink:href="#SimSun-7ea6" x="300"/>
     <use xlink:href="#SimSun-34" x="400"/>
     <use xlink:href="#SimSun-38" x="450"/>
     <use xlink:href="#SimSun-30" x="500"/>
     <use xlink:href="#SimSun-38" x="550"/>
     <use xlink:href="#SimSun-2e" x="600"/>
     <use xlink:href="#SimSun-31" x="650"/>
     <use xlink:href="#SimSun-30" x="700"/>
     <use xlink:href="#SimSun-31" x="750"/>
     <use xlink:href="#SimSun-20" x="800"/>
     <use xlink:href="#SimSun-63" x="850"/>
     <use xlink:href="#SimSun-68" x="900"/>
     <use xlink:href="#SimSun-69" x="950"/>
     <use xlink:href="#SimSun-70" x="1000"/>
    </g>
    <!-- 主码内4.70 ms -->
    <g transform="translate(50.4 56.17998) scale(0.17 -0.17)">
     <defs>
      <path id="SimSun-4e3b" d="M 2450 5100
Q 3125 4750 3337 4562
Q 3550 4375 3550 4200
Q 3550 4075 3437 3925
Q 3325 3775 3275 3775
Q 3175 3775 3100 4025
Q 2975 4400 2400 5025
L 2450 5100
z
M 675 3675
L 4900 3675
L 5275 4050
L 5800 3525
L 3375 3525
L 3375 1900
L 4525 1900
L 4875 2250
L 5375 1750
L 3375 1750
L 3375 -100
L 5100 -100
L 5500 300
L 6050 -250
L 1125 -250
Q 800 -250 525 -325
L 300 -100
L 3000 -100
L 3000 1725
L 1900 1725
Q 1575 1725 1300 1650
L 1075 1875
L 3000 1875
L 3000 3525
L 1500 3525
Q 1175 3525 900 3450
L 675 3675
z
" transform="scale(0.015625)"/>
      <path id="SimSun-7801" d="M 1200 2875
L 1200 825
L 1975 825
L 1975 2875
L 1200 2875
z
M 875 -200
Q 900 700 900 2500
Q 650 2050 275 1650
L 225 1725
Q 625 2350 875 3075
Q 1125 3800 1275 4550
L 1125 4550
Q 800 4550 525 4475
L 300 4700
L 2100 4700
L 2425 5025
L 2825 4550
L 1650 4550
Q 1400 3700 1175 3075
L 1275 3025
L 1925 3025
L 2075 3250
L 2450 2950
L 2275 2825
Q 2275 775 2300 375
L 1975 250
L 1975 675
L 1200 675
L 1200 -50
L 875 -200
z
M 3150 2400
Q 3250 3350 3325 4300
L 3850 4050
L 3625 3900
L 3450 2300
L 4750 2300
L 5025 4625
L 3675 4625
Q 3350 4625 3075 4550
L 2850 4775
L 5000 4775
L 5200 5025
L 5575 4700
L 5350 4525
L 5075 2300
L 5525 2300
L 5700 2525
L 6075 2200
L 5875 2075
Q 5700 250 5600 25
Q 5500 -200 5375 -312
Q 5250 -425 4925 -525
Q 4950 -150 4125 100
L 4150 200
Q 5075 25 5162 62
Q 5250 100 5312 225
Q 5375 350 5575 2150
L 3450 2150
L 3275 1950
L 2975 2275
L 3150 2400
z
M 2475 1250
L 4500 1250
L 4800 1550
L 5225 1100
L 3300 1100
Q 2975 1100 2700 1025
L 2475 1250
z
" transform="scale(0.015625)"/>
      <path id="SimSun-5185" d="M 1400 3625
L 1400 975
Q 2075 1350 2500 2025
Q 2925 2700 2975 3625
L 1400 3625
z
M 1025 -650
Q 1050 0 1050 425
L 1050 2850
Q 1050 3675 1025 4025
L 1400 3775
L 2975 3775
Q 3000 4475 2975 5250
L 3625 4950
L 3375 4775
Q 3375 4275 3350 3775
L 4875 3775
L 5100 4050
L 5525 3725
L 5300 3550
L 5300 200
Q 5325 -375 4725 -600
Q 4700 -200 3825 -25
L 3825 75
Q 4500 25 4737 25
Q 4975 25 4950 475
L 4950 3625
L 3350 3625
Q 3300 3100 3200 2700
Q 4525 1950 4562 1750
Q 4600 1550 4600 1425
Q 4600 1225 4525 1112
Q 4450 1000 4425 1000
Q 4350 1000 4275 1225
Q 4125 1550 3812 1912
Q 3500 2275 3150 2575
Q 2900 1950 2425 1512
Q 1950 1075 1400 850
L 1400 -450
L 1025 -650
z
" transform="scale(0.015625)"/>
      <path id="SimSun-37" d="M 2825 4200
Q 2300 3350 1987 2537
Q 1675 1725 1675 1125
Q 1675 1025 1700 850
Q 1700 650 1700 400
Q 1700 200 1637 125
Q 1575 50 1425 50
Q 1300 50 1212 137
Q 1125 225 1125 450
Q 1125 925 1337 1625
Q 1550 2325 2475 4000
L 1225 4000
Q 950 4000 787 3825
Q 625 3650 550 3300
L 400 3325
L 575 4375
L 2825 4375
L 2825 4200
z
" transform="scale(0.015625)"/>
      <path id="SimSun-73" d="M 625 2175
Q 625 2550 912 2750
Q 1200 2950 1600 2950
Q 1825 2950 2025 2900
Q 2225 2825 2300 2825
Q 2375 2825 2425 2850
Q 2475 2875 2550 2950
L 2650 2125
L 2500 2100
Q 2400 2425 2162 2612
Q 1925 2800 1625 2800
Q 1300 2800 1112 2675
Q 925 2550 925 2325
Q 925 2125 1012 2012
Q 1100 1900 1325 1850
Q 1500 1775 1775 1700
Q 2025 1600 2250 1500
Q 2450 1400 2587 1237
Q 2725 1075 2725 875
Q 2725 500 2462 287
Q 2200 75 1700 75
Q 1375 75 1225 150
Q 1050 200 950 200
Q 875 200 787 162
Q 700 125 600 75
L 525 1000
L 675 1025
Q 750 625 1000 425
Q 1250 225 1700 225
Q 2050 225 2237 350
Q 2425 475 2425 725
Q 2425 900 2325 1012
Q 2225 1125 2125 1175
Q 1875 1275 1575 1400
Q 1275 1500 1050 1600
Q 825 1700 725 1850
Q 625 2000 625 2175
z
" transform="scale(0.015625)"/>
     </defs>
     <use xlink:href="#SimSun-4e3b"/>
     <use xlink:href="#SimSun-7801" x="100"/>
     <use xlink:href="#SimSun-5185" x="200"/>
     <use xlink:href="#SimSun-34" x="300"/>
     <use xlink:href="#SimSun-2e" x="350"/>
     <use xlink:href="#SimSun-37" x="400"/>
     <use xlink:href="#SimSun-30" x="450"/>
     <use xlink:href="#SimSun-20" x="500"/>
     <use xlink:href="#SimSun-6d" x="550"/>
     <use xlink:href="#SimSun-73" x="600"/>
    </g>
   </g>
   <g id="text_2">
    <!-- 边界5115 chip -->
    <g transform="translate(674.3 34.60791) scale(0.17 -0.17)">
     <defs>
      <path id="SimSun-8fb9" d="M 4000 4825
Q 3975 4450 3950 3750
L 5125 3750
L 5375 4000
L 5725 3650
L 5550 3475
Q 5375 1925 5287 1350
Q 5200 775 5012 550
Q 4825 325 4450 225
Q 4300 600 3700 800
L 3725 900
Q 4475 725 4637 750
Q 4800 775 4900 1212
Q 5000 1650 5175 3600
L 3950 3600
Q 3775 1500 2100 525
L 2050 600
Q 3450 1675 3600 3600
L 2925 3600
Q 2600 3600 2325 3525
L 2100 3750
L 3600 3750
Q 3625 4725 3600 5250
L 4200 5000
L 4000 4825
z
M 975 4975
L 1025 5050
Q 1500 4800 1675 4612
Q 1850 4425 1862 4262
Q 1875 4100 1775 4012
Q 1675 3925 1625 3925
Q 1525 3925 1450 4225
Q 1325 4600 975 4975
z
M 1600 850
Q 1825 600 2225 350
Q 2625 100 3412 62
Q 4200 25 4875 37
Q 5550 50 6175 100
L 6175 0
Q 5675 -125 5675 -375
Q 4500 -375 3762 -337
Q 3025 -300 2550 -112
Q 2075 75 1800 400
Q 1525 725 1425 725
Q 1325 725 1062 462
Q 800 200 625 -75
L 275 250
Q 650 475 1275 850
L 1275 2950
L 1050 2950
Q 725 2950 450 2875
L 225 3100
L 1225 3100
L 1500 3375
L 1850 3025
L 1600 2850
L 1600 850
z
" transform="scale(0.015625)"/>
      <path id="SimSun-754c" d="M 1400 2600
Q 1425 3225 1425 3837
Q 1425 4450 1400 5050
L 1800 4825
L 4700 4825
L 4900 5075
L 5300 4725
L 5050 4550
Q 5050 3450 5075 2825
L 4725 2675
L 4725 2925
L 3750 2925
Q 4200 2325 4750 2075
Q 5300 1825 6125 1725
L 6125 1650
Q 5800 1600 5675 1300
Q 5025 1525 4500 1887
Q 3975 2250 3625 2925
L 3150 2925
Q 2800 2375 2425 2025
L 2950 1800
L 2750 1650
Q 2575 450 2062 50
Q 1550 -350 600 -600
L 600 -525
Q 1500 -175 1912 312
Q 2325 800 2400 2000
Q 1675 1350 425 1050
L 400 1150
Q 2050 1700 2725 2925
L 1750 2925
L 1750 2750
L 1400 2600
z
M 3950 -575
Q 3975 50 3975 725
Q 3975 1400 3950 1975
L 4475 1750
L 4300 1575
Q 4300 175 4325 -400
L 3950 -575
z
M 1750 4675
L 1750 3975
L 3050 3975
L 3050 4675
L 1750 4675
z
M 3375 4675
L 3375 3975
L 4725 3975
L 4725 4675
L 3375 4675
z
M 1750 3825
L 1750 3075
L 3050 3075
L 3050 3825
L 1750 3825
z
M 3375 3825
L 3375 3075
L 4725 3075
L 4725 3825
L 3375 3825
z
" transform="scale(0.015625)"/>
      <path id="SimSun-35" d="M 1725 2850
Q 2200 2850 2500 2487
Q 2800 2125 2800 1525
Q 2800 850 2487 450
Q 2175 50 1525 50
Q 1075 50 725 312
Q 375 575 375 950
Q 375 1100 462 1212
Q 550 1325 700 1325
Q 850 1325 900 1225
Q 950 1125 950 1050
Q 950 900 875 825
Q 800 725 800 625
Q 800 425 1037 325
Q 1275 225 1550 225
Q 1950 225 2162 550
Q 2375 875 2375 1475
Q 2375 1975 2187 2287
Q 2000 2600 1625 2600
Q 1350 2600 1150 2500
Q 950 2400 775 2075
L 550 2100
L 675 4375
L 2725 4375
L 2650 4000
L 850 4000
L 750 2350
Q 1000 2700 1237 2775
Q 1475 2850 1725 2850
z
" transform="scale(0.015625)"/>
     </defs>
     <use xlink:href="#SimSun-8fb9"/>
     <use xlink:href="#SimSun-754c" x="100"/>
     <use xlink:href="#SimSun-35" x="200"/>
     <use xlink:href="#SimSun-31" x="250"/>
     <use xlink:href="#SimSun-31" x="300"/>
     <use xlink:href="#SimSun-35" x="350"/>
     <use xlink:href="#SimSun-20" x="400"/>
     <use xlink:href="#SimSun-63" x="450"/>
     <use xlink:href="#SimSun-68" x="500"/>
     <use xlink:href="#SimSun-69" x="550"/>
     <use xlink:href="#SimSun-70" x="600"/>
    </g>
    <!-- 主码内5 ms -->
    <g transform="translate(699.8 56.345996) scale(0.17 -0.17)">
     <use xlink:href="#SimSun-4e3b"/>
     <use xlink:href="#SimSun-7801" x="100"/>
     <use xlink:href="#SimSun-5185" x="200"/>
     <use xlink:href="#SimSun-35" x="300"/>
     <use xlink:href="#SimSun-20" x="350"/>
     <use xlink:href="#SimSun-6d" x="400"/>
     <use xlink:href="#SimSun-73" x="450"/>
    </g>
   </g>
   <g id="text_3">
    <!-- 第1块 -->
    <g transform="translate(75.57 115.9275) scale(0.15 -0.15)">
     <defs>
      <path id="SimSun-7b2c" d="M 1950 4275
Q 2350 4075 2412 3937
Q 2475 3800 2475 3750
Q 2475 3625 2375 3537
Q 2275 3450 2225 3450
Q 2150 3450 2150 3525
Q 2125 3675 2050 3862
Q 1975 4050 1800 4275
L 1500 4275
Q 1300 4075 1062 3850
Q 825 3625 475 3400
L 425 3500
Q 775 3825 1100 4287
Q 1425 4750 1575 5225
L 2075 4900
Q 1925 4825 1600 4425
L 2675 4425
L 2975 4725
L 3400 4275
L 1950 4275
z
M 3950 5200
L 4450 4875
Q 4275 4825 3975 4425
L 5250 4425
L 5550 4725
L 5975 4275
L 4375 4275
Q 4700 4100 4787 3987
Q 4875 3875 4875 3800
Q 4875 3675 4775 3562
Q 4675 3450 4650 3450
Q 4600 3450 4550 3587
Q 4500 3725 4450 3875
Q 4400 4025 4225 4275
L 3875 4275
Q 3675 4050 3525 3887
Q 3375 3725 3025 3450
L 2950 3525
Q 3425 4050 3625 4450
Q 3825 4850 3950 5200
z
M 1125 1550
Q 1275 2000 1400 2650
L 1775 2400
L 3125 2400
L 3125 3150
L 1750 3150
Q 1550 3150 1275 3075
L 1050 3300
L 4775 3300
L 5025 3550
L 5375 3200
L 5175 3075
Q 5175 2350 5200 2125
L 4850 1975
L 4850 2250
L 3450 2250
L 3450 1475
L 5275 1475
L 5525 1725
L 5875 1375
L 5650 1225
Q 5550 600 5500 387
Q 5450 175 5362 62
Q 5275 -50 5150 -112
Q 5025 -175 4800 -225
Q 4800 100 4150 375
L 4150 475
Q 4800 300 4937 312
Q 5075 325 5137 462
Q 5200 600 5300 1325
L 3450 1325
L 3450 100
Q 3450 -200 3475 -525
L 3100 -650
Q 3125 -175 3125 500
L 3125 1300
Q 2600 600 1875 175
Q 1150 -250 275 -525
L 250 -400
Q 925 -150 1587 275
Q 2250 700 2700 1325
L 1450 1325
L 1275 1100
L 900 1400
L 1125 1550
z
M 3450 3150
L 3450 2400
L 4850 2400
L 4850 3150
L 3450 3150
z
M 1700 2250
Q 1600 1975 1475 1475
L 3125 1475
L 3125 2250
L 1700 2250
z
" transform="scale(0.015625)"/>
      <path id="SimSun-5757" d="M 3825 3650
Q 3825 2800 3775 2000
L 4900 2000
L 4900 3650
L 3825 3650
z
M 3475 3800
Q 3475 4750 3450 5250
L 4100 5000
L 3825 4800
L 3825 3800
L 4850 3800
L 5050 4075
L 5475 3750
L 5250 3550
L 5250 2000
L 5350 2000
L 5675 2325
L 6150 1850
L 4050 1850
Q 4325 1075 4850 550
Q 5375 25 6125 -150
L 6125 -250
Q 5675 -275 5550 -575
Q 4825 -50 4425 600
Q 4025 1250 3925 1850
L 3750 1850
Q 3600 800 3000 275
Q 2400 -250 1325 -625
L 1250 -525
Q 2225 -125 2750 425
Q 3275 975 3400 1850
L 2750 1850
Q 2425 1850 2150 1775
L 1925 2000
L 3425 2000
Q 3475 2725 3475 3650
L 3200 3650
Q 2875 3650 2600 3575
L 2375 3800
L 3475 3800
z
M 1275 3300
Q 1275 4725 1250 5175
L 1875 4900
L 1625 4700
L 1625 3300
L 1975 3300
L 2275 3600
L 2725 3150
L 1625 3150
L 1625 1100
L 2725 1350
L 2750 1250
Q 1500 825 1050 625
Q 600 425 550 300
L 275 825
Q 625 875 1275 1000
L 1275 3150
L 1075 3150
Q 750 3150 475 3075
L 250 3300
L 1275 3300
z
" transform="scale(0.015625)"/>
     </defs>
     <use xlink:href="#SimSun-7b2c"/>
     <use xlink:href="#SimSun-31" x="100"/>
     <use xlink:href="#SimSun-5757" x="150"/>
    </g>
    <!-- 256点 -->
    <g transform="translate(75.57 134.513437) scale(0.15 -0.15)">
     <defs>
      <path id="SimSun-32" d="M 2325 3325
Q 2325 3775 2125 4012
Q 1925 4250 1525 4250
Q 1225 4250 1012 4087
Q 800 3925 800 3675
Q 800 3525 900 3425
Q 975 3325 975 3225
Q 975 3100 912 3037
Q 850 2975 725 2975
Q 575 2975 487 3062
Q 400 3150 400 3350
Q 400 3875 775 4150
Q 1150 4425 1575 4425
Q 2175 4425 2462 4125
Q 2750 3825 2750 3375
Q 2750 3075 2612 2775
Q 2475 2475 2175 2200
Q 1450 1500 1062 1062
Q 675 625 600 475
L 2075 475
Q 2300 475 2450 650
Q 2600 825 2650 1175
L 2800 1175
L 2650 100
L 325 100
L 325 425
Q 450 650 737 1000
Q 1025 1350 1500 1825
Q 1925 2250 2125 2625
Q 2325 3000 2325 3325
z
" transform="scale(0.015625)"/>
      <path id="SimSun-36" d="M 775 1800
Q 775 1050 1037 637
Q 1300 225 1675 225
Q 2050 225 2250 500
Q 2450 775 2450 1525
Q 2450 2025 2237 2300
Q 2025 2575 1725 2575
Q 1450 2575 1212 2412
Q 975 2250 775 1800
z
M 1750 2825
Q 2350 2825 2612 2425
Q 2875 2025 2875 1525
Q 2875 775 2512 412
Q 2150 50 1675 50
Q 1000 50 650 562
Q 300 1075 300 2050
Q 300 3200 725 3812
Q 1150 4425 1875 4425
Q 2225 4425 2437 4225
Q 2650 4025 2650 3875
Q 2650 3725 2587 3650
Q 2525 3575 2375 3575
Q 2250 3575 2187 3637
Q 2125 3700 2125 3825
Q 2125 3875 2150 3925
Q 2150 3975 2150 4025
Q 2150 4125 2075 4187
Q 2000 4250 1800 4250
Q 1375 4250 1075 3862
Q 775 3475 775 2175
Q 925 2500 1187 2662
Q 1450 2825 1750 2825
z
" transform="scale(0.015625)"/>
      <path id="SimSun-70b9" d="M 1875 2900
L 1875 1525
L 4625 1525
L 4625 2900
L 1875 2900
z
M 1475 925
Q 1500 1450 1500 2050
Q 1500 2650 1475 3250
L 1875 3050
L 2950 3050
Q 2950 4725 2925 5225
L 3500 5000
L 3300 4800
L 3300 4200
L 4925 4200
L 5250 4525
L 5700 4050
L 3300 4050
L 3300 3050
L 4575 3050
L 4825 3300
L 5200 2925
L 4975 2750
Q 4975 1575 5000 1150
L 4625 1000
L 4625 1375
L 1875 1375
L 1875 1075
L 1475 925
z
M 1350 800
L 1450 800
Q 1300 -175 1137 -337
Q 975 -500 850 -500
Q 775 -500 675 -437
Q 575 -375 575 -300
Q 575 -225 700 -125
Q 925 50 1037 200
Q 1150 350 1350 800
z
M 2225 675
L 2275 750
Q 2800 350 2862 187
Q 2925 25 2925 -50
Q 2925 -225 2812 -337
Q 2700 -450 2675 -450
Q 2575 -450 2550 -200
Q 2500 175 2225 675
z
M 3550 700
L 3600 775
Q 4075 425 4187 225
Q 4300 25 4300 -50
Q 4300 -175 4187 -300
Q 4075 -425 4050 -425
Q 3950 -425 3900 -125
Q 3825 300 3550 700
z
M 4900 775
L 4950 850
Q 5450 500 5637 250
Q 5825 0 5825 -125
Q 5825 -250 5725 -375
Q 5625 -500 5600 -500
Q 5500 -500 5425 -200
Q 5300 225 4900 775
z
" transform="scale(0.015625)"/>
     </defs>
     <use xlink:href="#SimSun-32"/>
     <use xlink:href="#SimSun-35" x="50"/>
     <use xlink:href="#SimSun-36" x="100"/>
     <use xlink:href="#SimSun-70b9" x="150"/>
    </g>
   </g>
   <g id="text_4">
    <!-- 第2块 -->
    <g transform="translate(156.21 115.9275) scale(0.15 -0.15)">
     <use xlink:href="#SimSun-7b2c"/>
     <use xlink:href="#SimSun-32" x="100"/>
     <use xlink:href="#SimSun-5757" x="150"/>
    </g>
    <!-- 256点 -->
    <g transform="translate(156.21 134.513437) scale(0.15 -0.15)">
     <use xlink:href="#SimSun-32"/>
     <use xlink:href="#SimSun-35" x="50"/>
     <use xlink:href="#SimSun-36" x="100"/>
     <use xlink:href="#SimSun-70b9" x="150"/>
    </g>
   </g>
   <g id="text_5">
    <!-- 第3块 -->
    <g transform="translate(236.85 115.9275) scale(0.15 -0.15)">
     <defs>
      <path id="SimSun-33" d="M 2800 1250
Q 2800 775 2450 412
Q 2100 50 1475 50
Q 1025 50 700 300
Q 375 550 375 875
Q 375 1025 475 1137
Q 575 1250 675 1250
Q 825 1250 887 1137
Q 950 1025 950 950
Q 950 825 900 750
Q 850 650 850 575
Q 850 425 1037 325
Q 1225 225 1450 225
Q 1900 225 2125 487
Q 2350 750 2350 1300
Q 2350 1750 2112 2025
Q 1875 2300 1225 2300
L 1225 2475
Q 1725 2475 1962 2712
Q 2200 2950 2200 3375
Q 2200 3725 2012 3987
Q 1825 4250 1425 4250
Q 1250 4250 1050 4162
Q 850 4075 850 3875
Q 850 3675 900 3625
Q 950 3575 950 3500
Q 950 3375 900 3300
Q 850 3225 725 3225
Q 625 3225 537 3300
Q 450 3375 450 3575
Q 450 3950 775 4187
Q 1100 4425 1525 4425
Q 2025 4425 2325 4112
Q 2625 3800 2625 3450
Q 2625 3075 2437 2812
Q 2250 2550 1850 2425
Q 2400 2225 2600 1900
Q 2800 1575 2800 1250
z
" transform="scale(0.015625)"/>
     </defs>
     <use xlink:href="#SimSun-7b2c"/>
     <use xlink:href="#SimSun-33" x="100"/>
     <use xlink:href="#SimSun-5757" x="150"/>
    </g>
    <!-- 256点 -->
    <g transform="translate(236.85 134.513437) scale(0.15 -0.15)">
     <use xlink:href="#SimSun-32"/>
     <use xlink:href="#SimSun-35" x="50"/>
     <use xlink:href="#SimSun-36" x="100"/>
     <use xlink:href="#SimSun-70b9" x="150"/>
    </g>
   </g>
   <g id="text_6">
    <!-- 第4块 -->
    <g transform="translate(317.49 115.9275) scale(0.15 -0.15)">
     <use xlink:href="#SimSun-7b2c"/>
     <use xlink:href="#SimSun-34" x="100"/>
     <use xlink:href="#SimSun-5757" x="150"/>
    </g>
    <!-- 256点 -->
    <g transform="translate(317.49 134.513437) scale(0.15 -0.15)">
     <use xlink:href="#SimSun-32"/>
     <use xlink:href="#SimSun-35" x="50"/>
     <use xlink:href="#SimSun-36" x="100"/>
     <use xlink:href="#SimSun-70b9" x="150"/>
    </g>
   </g>
   <g id="text_7">
    <!-- 第5块 -->
    <g transform="translate(398.13 115.9275) scale(0.15 -0.15)">
     <use xlink:href="#SimSun-7b2c"/>
     <use xlink:href="#SimSun-35" x="100"/>
     <use xlink:href="#SimSun-5757" x="150"/>
    </g>
    <!-- 256点 -->
    <g transform="translate(398.13 134.513437) scale(0.15 -0.15)">
     <use xlink:href="#SimSun-32"/>
     <use xlink:href="#SimSun-35" x="50"/>
     <use xlink:href="#SimSun-36" x="100"/>
     <use xlink:href="#SimSun-70b9" x="150"/>
    </g>
   </g>
   <g id="text_8">
    <!-- 第6块 -->
    <g transform="translate(478.77 115.9275) scale(0.15 -0.15)">
     <use xlink:href="#SimSun-7b2c"/>
     <use xlink:href="#SimSun-36" x="100"/>
     <use xlink:href="#SimSun-5757" x="150"/>
    </g>
    <!-- 256点 -->
    <g transform="translate(478.77 134.513437) scale(0.15 -0.15)">
     <use xlink:href="#SimSun-32"/>
     <use xlink:href="#SimSun-35" x="50"/>
     <use xlink:href="#SimSun-36" x="100"/>
     <use xlink:href="#SimSun-70b9" x="150"/>
    </g>
   </g>
   <g id="text_9">
    <!-- 第7块 -->
    <g transform="translate(559.41 115.9275) scale(0.15 -0.15)">
     <use xlink:href="#SimSun-7b2c"/>
     <use xlink:href="#SimSun-37" x="100"/>
     <use xlink:href="#SimSun-5757" x="150"/>
    </g>
    <!-- 256点 -->
    <g transform="translate(559.41 134.513437) scale(0.15 -0.15)">
     <use xlink:href="#SimSun-32"/>
     <use xlink:href="#SimSun-35" x="50"/>
     <use xlink:href="#SimSun-36" x="100"/>
     <use xlink:href="#SimSun-70b9" x="150"/>
    </g>
   </g>
   <g id="text_10">
    <!-- 第8块 -->
    <g transform="translate(640.05 115.9275) scale(0.15 -0.15)">
     <use xlink:href="#SimSun-7b2c"/>
     <use xlink:href="#SimSun-38" x="100"/>
     <use xlink:href="#SimSun-5757" x="150"/>
    </g>
    <!-- 256点 -->
    <g transform="translate(640.05 134.513437) scale(0.15 -0.15)">
     <use xlink:href="#SimSun-32"/>
     <use xlink:href="#SimSun-35" x="50"/>
     <use xlink:href="#SimSun-36" x="100"/>
     <use xlink:href="#SimSun-70b9" x="150"/>
    </g>
   </g>
   <g id="text_11">
    <!-- 第9块 -->
    <g transform="translate(720.69 115.9275) scale(0.15 -0.15)">
     <defs>
      <path id="SimSun-39" d="M 700 3050
Q 700 2500 912 2212
Q 1125 1925 1450 1925
Q 1825 1925 2100 2275
Q 2375 2625 2375 2925
Q 2375 3525 2175 3887
Q 1975 4250 1525 4250
Q 1100 4250 900 3912
Q 700 3575 700 3050
z
M 1375 1700
Q 875 1700 575 2012
Q 275 2325 275 3025
Q 275 3625 600 4025
Q 925 4425 1525 4425
Q 2150 4425 2500 3925
Q 2850 3425 2850 2475
Q 2850 1425 2437 737
Q 2025 50 1300 50
Q 975 50 737 200
Q 500 350 500 600
Q 500 700 562 800
Q 625 900 775 900
Q 925 900 975 787
Q 1025 675 1025 525
Q 1025 425 1050 362
Q 1075 300 1100 275
Q 1125 250 1187 237
Q 1250 225 1325 225
Q 1775 225 2050 725
Q 2325 1225 2375 2400
Q 2250 2100 2000 1900
Q 1750 1700 1375 1700
z
" transform="scale(0.015625)"/>
     </defs>
     <use xlink:href="#SimSun-7b2c"/>
     <use xlink:href="#SimSun-39" x="100"/>
     <use xlink:href="#SimSun-5757" x="150"/>
    </g>
    <!-- 256点 -->
    <g transform="translate(720.69 134.513437) scale(0.15 -0.15)">
     <use xlink:href="#SimSun-32"/>
     <use xlink:href="#SimSun-35" x="50"/>
     <use xlink:href="#SimSun-36" x="100"/>
     <use xlink:href="#SimSun-70b9" x="150"/>
    </g>
   </g>
   <g id="text_12">
    <!-- 前8块：积分状态连续保存，不清零 -->
    <g transform="translate(244.81 191.437734) scale(0.17 -0.17)">
     <defs>
      <path id="SimSun-524d" d="M 1375 3075
L 1375 2250
L 2575 2250
L 2575 3075
L 1375 3075
z
M 1375 2100
L 1375 1275
L 2575 1275
L 2575 2100
L 1375 2100
z
M 350 4000
L 3600 4000
Q 3825 4375 3962 4662
Q 4100 4950 4200 5225
L 4700 4875
Q 4525 4800 4250 4537
Q 3975 4275 3750 4000
L 5175 4000
L 5550 4375
L 6075 3850
L 1175 3850
Q 850 3850 575 3775
L 350 4000
z
M 3775 350
Q 3800 900 3800 1825
Q 3800 2750 3775 3250
L 4300 3025
L 4125 2850
L 4125 1275
Q 4125 875 4150 525
L 3775 350
z
M 4875 3650
L 5475 3325
L 5225 3125
L 5225 225
Q 5250 -375 4625 -575
Q 4600 -200 3850 -25
L 3850 75
Q 4525 25 4725 37
Q 4925 50 4900 350
L 4900 2600
Q 4900 3225 4875 3650
z
M 1900 5175
Q 2625 4750 2675 4537
Q 2725 4325 2600 4187
Q 2475 4050 2425 4050
Q 2350 4050 2275 4300
Q 2175 4650 1825 5125
L 1900 5175
z
M 1375 -425
L 1025 -575
Q 1050 125 1050 375
L 1050 2550
Q 1050 3100 1025 3450
L 1375 3225
L 2550 3225
L 2725 3475
L 3100 3175
L 2900 3025
L 2900 25
Q 2900 -375 2475 -575
Q 2425 -250 1925 -150
L 1925 -50
Q 2225 -75 2400 -62
Q 2575 -50 2575 225
L 2575 1125
L 1375 1125
L 1375 -425
z
" transform="scale(0.015625)"/>
      <path id="SimSun-ff1a" d="M 1550 675
Q 1700 575 1687 337
Q 1675 100 1500 0
Q 1325 -100 1250 -100
Q 1175 -100 1000 0
Q 825 100 812 350
Q 800 600 962 687
Q 1125 775 1250 775
Q 1400 775 1550 675
z
M 1550 2187
Q 1725 2100 1725 1837
Q 1725 1575 1525 1487
Q 1325 1400 1250 1400
Q 1125 1400 962 1512
Q 800 1625 812 1862
Q 825 2100 1000 2187
Q 1175 2275 1275 2275
Q 1375 2275 1550 2187
z
" transform="scale(0.015625)"/>
      <path id="SimSun-79ef" d="M 3125 1750
Q 3150 2475 3150 3225
Q 3150 3975 3125 4725
L 3500 4525
L 5225 4525
L 5475 4775
L 5850 4400
L 5600 4250
Q 5600 2300 5625 1975
L 5275 1850
L 5275 2175
L 3475 2175
L 3475 1875
L 3125 1750
z
M 3475 4375
L 3475 2325
L 5275 2325
L 5275 4375
L 3475 4375
z
M 3825 1700
L 4300 1300
L 4075 1225
Q 3125 -75 2200 -550
L 2175 -450
Q 2800 50 3225 625
Q 3650 1200 3825 1700
z
M 4700 1600
Q 5725 650 5850 362
Q 5975 75 5975 -75
Q 5975 -225 5900 -337
Q 5825 -450 5775 -450
Q 5725 -450 5650 -250
Q 5525 75 5350 450
Q 5175 825 4650 1525
L 4700 1600
z
M 1875 2575
Q 1875 225 1900 -400
L 1525 -625
Q 1550 125 1550 2350
Q 1025 1275 300 625
L 250 700
Q 625 1200 962 1862
Q 1300 2525 1500 3200
L 1125 3200
Q 800 3200 525 3125
L 300 3350
L 1550 3350
L 1550 4475
Q 900 4375 525 4350
L 525 4450
Q 1075 4550 1525 4712
Q 1975 4875 2375 5150
L 2725 4700
Q 2425 4700 1875 4550
L 1875 3350
L 2250 3350
L 2550 3650
L 2975 3200
L 1875 3200
L 1875 2675
Q 2475 2400 2612 2212
Q 2750 2025 2750 1925
Q 2750 1800 2662 1675
Q 2575 1550 2550 1550
Q 2450 1550 2375 1800
Q 2250 2175 1875 2575
z
" transform="scale(0.015625)"/>
      <path id="SimSun-5206" d="M 2350 5050
L 2850 4675
L 2625 4550
Q 2200 3750 1687 3125
Q 1175 2500 375 2025
L 325 2100
Q 975 2625 1475 3337
Q 1975 4050 2350 5050
z
M 4100 4975
L 3900 4850
Q 4175 3850 4800 3300
Q 5425 2750 6125 2625
L 6125 2550
Q 5750 2500 5600 2225
Q 4775 2675 4287 3425
Q 3800 4175 3625 5175
L 4100 4975
z
M 1375 2625
L 4225 2625
L 4475 2875
L 4825 2525
L 4625 2375
Q 4575 400 4375 -12
Q 4175 -425 3675 -600
Q 3600 -200 2975 -25
L 2975 75
Q 3600 -25 3787 -12
Q 3975 0 4075 275
Q 4175 550 4275 2475
L 2975 2475
Q 2825 1400 2375 662
Q 1925 -75 650 -625
L 600 -525
Q 1725 50 2112 837
Q 2500 1625 2575 2475
L 1800 2475
L 1575 2425
L 1375 2625
z
" transform="scale(0.015625)"/>
      <path id="SimSun-72b6" d="M 4250 4875
L 4000 4675
L 4000 3175
L 5200 3175
L 5575 3550
L 6050 3025
L 4275 3025
Q 4725 550 6125 -100
L 6125 -200
Q 5725 -175 5525 -475
Q 4350 725 4150 3025
L 4000 3025
Q 3875 375 2150 -650
L 2100 -575
Q 3525 650 3650 3025
L 3050 3025
Q 2725 3025 2450 2950
L 2225 3175
L 3650 3175
Q 3650 4575 3625 5150
L 4250 4875
z
M 4600 4825
Q 5200 4575 5375 4437
Q 5550 4300 5550 4125
Q 5550 4000 5475 3837
Q 5400 3675 5375 3675
Q 5300 3675 5200 3900
Q 5025 4250 4550 4750
L 4600 4825
z
M 1725 -600
Q 1750 -25 1750 2150
Q 775 1150 575 775
L 250 1225
Q 650 1375 1750 2325
Q 1750 4850 1725 5175
L 2350 4900
L 2100 4725
L 2100 825
Q 2100 25 2125 -400
L 1725 -600
z
M 450 4050
L 500 4125
Q 1175 3625 1275 3450
Q 1375 3275 1375 3175
Q 1375 3050 1262 2887
Q 1150 2725 1100 2725
Q 1025 2725 950 3025
Q 825 3475 450 4050
z
" transform="scale(0.015625)"/>
      <path id="SimSun-6001" d="M 2850 5225
L 3500 4925
L 3250 4800
Q 3200 4475 3125 4025
L 5050 4025
L 5425 4400
L 5950 3875
L 3350 3875
Q 3875 2950 4650 2550
Q 5425 2150 6075 2100
L 6075 2000
Q 5600 1925 5550 1675
Q 4525 2050 3987 2662
Q 3450 3275 3225 3875
L 3100 3875
Q 2850 3125 2500 2675
Q 2950 2500 3237 2325
Q 3525 2150 3525 1962
Q 3525 1775 3462 1700
Q 3400 1625 3375 1625
Q 3275 1625 3125 1875
Q 2900 2225 2425 2575
Q 1650 1875 300 1550
L 250 1650
Q 1225 1925 1850 2462
Q 2475 3000 2725 3875
L 1225 3875
Q 900 3875 625 3800
L 400 4025
L 2750 4025
Q 2850 4750 2850 5225
z
M 1325 1250
Q 1325 800 1237 462
Q 1150 125 1012 62
Q 875 0 775 0
Q 650 0 562 37
Q 475 75 475 125
Q 475 200 675 375
Q 975 600 1225 1275
L 1325 1250
z
M 2600 1600
L 2650 1675
Q 3125 1475 3362 1312
Q 3600 1150 3587 975
Q 3575 800 3487 700
Q 3400 600 3375 600
Q 3275 600 3200 825
Q 3075 1125 2600 1600
z
M 4625 1300
L 4700 1350
Q 5300 1025 5525 812
Q 5750 600 5712 400
Q 5675 200 5587 125
Q 5500 50 5475 50
Q 5375 50 5275 350
Q 5125 750 4625 1300
z
M 1900 50
Q 1900 1075 1875 1625
L 2450 1325
L 2250 1150
L 2250 175
Q 2200 -150 2550 -125
L 3875 -125
Q 4175 -125 4225 125
Q 4275 375 4275 900
L 4400 900
Q 4425 450 4475 200
Q 4525 -50 4775 -100
Q 4575 -450 4075 -425
L 2575 -425
Q 1875 -475 1900 50
z
" transform="scale(0.015625)"/>
      <path id="SimSun-8fde" d="M 2475 2800
Q 2825 3300 3175 4050
L 2675 4050
Q 2425 4050 2150 3975
L 1925 4200
L 3225 4200
Q 3475 4750 3625 5275
L 4150 4925
L 3900 4800
L 3600 4200
L 5050 4200
L 5425 4550
L 5875 4050
L 3550 4050
L 2825 2675
L 3800 2675
Q 3800 3125 3775 3650
L 4400 3425
L 4125 3225
L 4125 2675
L 4800 2675
L 5125 3000
L 5575 2525
L 4125 2525
L 4125 1575
L 5250 1575
L 5625 1925
L 6075 1425
L 4125 1425
Q 4125 825 4150 300
L 3775 150
Q 3800 775 3800 1425
L 2625 1425
Q 2400 1425 2125 1350
L 1900 1575
L 3800 1575
L 3800 2525
L 2825 2525
L 2575 2300
L 2225 2700
L 2475 2800
z
M 725 4950
L 800 5000
Q 1250 4725 1412 4537
Q 1575 4350 1562 4200
Q 1550 4050 1437 3950
Q 1325 3850 1300 3850
Q 1200 3850 1150 4150
Q 1050 4525 725 4950
z
M 1625 800
Q 1825 575 2225 350
Q 2625 125 3400 75
Q 4175 25 4850 50
Q 5525 75 6150 150
L 6150 50
Q 5675 -75 5625 -375
Q 4500 -375 3775 -337
Q 3050 -300 2575 -112
Q 2100 75 1825 375
Q 1550 650 1437 650
Q 1325 650 1050 325
Q 775 0 725 -175
L 325 175
Q 575 375 1275 825
L 1275 2875
L 1100 2875
Q 775 2875 500 2800
L 275 3025
L 1225 3025
L 1425 3275
L 1825 2950
L 1625 2775
L 1625 800
z
" transform="scale(0.015625)"/>
      <path id="SimSun-7eed" d="M 5125 2675
L 5450 3275
L 3225 3275
Q 2900 3275 2625 3200
L 2400 3425
L 3875 3425
L 3875 4125
L 3475 4125
Q 3150 4125 2875 4050
L 2650 4275
L 3875 4275
L 3875 4725
Q 3875 4950 3850 5225
L 4400 4975
L 4200 4800
L 4200 4275
L 4950 4275
L 5250 4575
L 5675 4125
L 4200 4125
L 4200 3425
L 5400 3425
L 5600 3675
L 6075 3200
Q 5700 3200 5200 2625
L 5125 2675
z
M 2900 2975
Q 3475 2850 3562 2750
Q 3650 2650 3650 2525
Q 3650 2400 3625 2312
Q 3600 2225 3575 2225
Q 3500 2225 3400 2400
Q 3200 2650 2850 2900
L 2900 2975
z
M 2525 2325
Q 3225 2125 3275 2012
Q 3325 1900 3325 1775
Q 3325 1675 3287 1587
Q 3250 1500 3200 1500
Q 3150 1500 3050 1650
Q 2900 1900 2475 2250
L 2525 2325
z
M 3950 1350
Q 4025 2275 3975 3150
L 4500 2900
Q 4350 2750 4350 2400
Q 4325 2025 4275 1350
L 5300 1350
L 5625 1700
L 6075 1200
L 4275 1200
Q 4225 950 4150 700
Q 5350 300 5525 137
Q 5700 -25 5700 -250
Q 5700 -325 5675 -437
Q 5650 -550 5600 -550
Q 5525 -550 5325 -300
Q 5025 75 4100 600
Q 3850 150 3375 -137
Q 2900 -425 1925 -625
L 1900 -525
Q 2900 -200 3362 187
Q 3825 575 3925 1200
L 3000 1200
Q 2675 1200 2400 1125
L 2175 1350
L 3950 1350
z
M 1350 5100
L 1850 4825
Q 1600 4650 1350 4175
Q 1100 3675 700 3025
L 1700 3100
Q 1925 3500 2075 4025
L 2525 3725
Q 2300 3550 1975 3025
Q 1650 2475 975 1575
Q 1500 1650 2400 1800
L 2425 1700
Q 1900 1575 1437 1437
Q 975 1300 750 1100
L 475 1550
Q 675 1600 925 1900
Q 1175 2200 1650 2975
Q 1150 2875 950 2800
Q 750 2725 575 2600
L 325 3050
Q 550 3050 900 3825
Q 1250 4600 1350 5100
z
M 350 250
Q 850 325 1325 425
Q 1800 525 2450 675
L 2475 575
Q 1850 375 1312 175
Q 775 -25 625 -175
L 350 250
z
" transform="scale(0.015625)"/>
      <path id="SimSun-4fdd" d="M 5300 4500
Q 5300 3250 5325 2875
L 4975 2750
L 4975 3000
L 4125 3000
L 4125 2100
L 5425 2100
L 5725 2400
L 6175 1950
L 4425 1950
Q 4600 1475 5037 937
Q 5475 400 6150 175
L 6150 100
Q 5825 75 5650 -150
Q 5050 350 4750 900
Q 4450 1450 4300 1950
L 4125 1950
Q 4125 0 4150 -450
L 3775 -625
Q 3800 0 3800 1750
Q 3400 1000 2912 475
Q 2425 -50 1800 -400
L 1750 -325
Q 2350 100 2850 825
Q 3350 1550 3500 1950
L 2325 1950
L 2000 1900
L 1800 2100
L 3800 2100
L 3800 3000
L 3000 3000
L 3000 2775
L 2625 2650
Q 2650 3150 2650 3750
Q 2650 4350 2625 4950
L 3025 4750
L 4925 4750
L 5175 5000
L 5550 4675
L 5300 4500
z
M 3000 4600
L 3000 3150
L 4975 3150
L 4975 4600
L 3000 4600
z
M 1575 850
Q 1575 -50 1600 -450
L 1225 -625
Q 1250 350 1250 900
L 1250 3100
Q 725 2425 325 2075
L 275 2150
Q 925 2925 1312 3900
Q 1700 4875 1775 5275
L 2300 4975
L 2100 4825
Q 1675 3950 1475 3500
L 1725 3350
L 1575 3200
L 1575 850
z
" transform="scale(0.015625)"/>
      <path id="SimSun-5b58" d="M 1975 2725
Q 1975 250 2000 -400
L 1600 -650
Q 1625 25 1625 2275
Q 1150 1675 300 1100
L 225 1175
Q 1025 1875 1625 2750
Q 1625 3000 1600 3200
L 1850 3075
Q 2175 3575 2475 4250
L 1025 4250
L 650 4200
L 450 4400
L 2525 4400
Q 2725 4875 2775 5250
L 3375 4950
Q 3175 4850 3100 4712
Q 3025 4575 2950 4400
L 5050 4400
L 5425 4775
L 5950 4250
L 2900 4250
Q 2500 3475 1975 2725
z
M 3050 0
Q 3550 -50 3737 -50
Q 3925 -50 3925 250
L 3925 1475
L 2825 1475
L 2450 1425
L 2250 1625
L 3925 1625
Q 3925 2275 3900 2675
L 4175 2525
L 4875 3250
L 3075 3250
L 2725 3200
L 2525 3400
L 4900 3400
L 5150 3650
L 5575 3175
Q 5225 3125 4912 2912
Q 4600 2700 4275 2450
L 4475 2325
L 4275 2175
L 4275 1625
L 5325 1625
L 5650 1950
L 6125 1475
L 4275 1475
L 4275 -50
Q 4275 -400 3750 -625
Q 3725 -325 3050 -125
L 3050 0
z
" transform="scale(0.015625)"/>
      <path id="SimSun-ff0c" d="M 1137 150
Q 1275 325 1375 650
Q 1150 650 1050 725
Q 950 800 912 925
Q 875 1050 900 1162
Q 925 1275 1075 1387
Q 1225 1500 1450 1450
Q 1675 1400 1725 1262
Q 1775 1125 1775 1000
Q 1775 850 1700 612
Q 1625 375 1362 87
Q 1100 -200 937 -225
Q 775 -250 775 -225
Q 775 -200 850 -150
Q 1000 -25 1137 150
z
" transform="scale(0.015625)"/>
      <path id="SimSun-4e0d" d="M 3375 3175
L 3375 775
Q 3375 25 3400 -375
L 2975 -550
Q 3000 400 3000 1100
L 3000 3300
Q 2000 1775 400 850
L 350 950
Q 1175 1550 1937 2462
Q 2700 3375 3175 4600
L 1225 4600
Q 900 4600 625 4525
L 400 4750
L 5150 4750
L 5525 5125
L 6050 4600
L 3675 4600
Q 3450 4175 3175 3600
L 3600 3350
L 3375 3175
z
M 3900 3100
L 3975 3175
Q 5575 2125 5737 1875
Q 5900 1625 5900 1475
Q 5900 1375 5825 1237
Q 5750 1100 5700 1100
Q 5600 1100 5400 1500
Q 5100 2025 3900 3100
z
" transform="scale(0.015625)"/>
      <path id="SimSun-6e05" d="M 2800 2125
L 2800 1650
L 5025 1650
L 5025 2125
L 2800 2125
z
M 2800 1500
L 2800 900
L 5025 900
L 5025 1500
L 2800 1500
z
M 2450 2500
L 2800 2275
L 4975 2275
L 5125 2525
L 5525 2250
L 5350 2075
L 5350 0
Q 5375 -450 4850 -625
Q 4800 -275 4125 -125
L 4125 -25
Q 4600 -75 4812 -75
Q 5025 -75 5025 100
L 5025 750
L 2800 750
L 2800 -450
L 2450 -625
Q 2475 -175 2475 975
Q 2475 2125 2450 2500
z
M 3700 4425
Q 3700 5050 3675 5250
L 4225 5025
L 4025 4850
L 4025 4425
L 5075 4425
L 5400 4750
L 5825 4275
L 4025 4275
L 4025 3750
L 4750 3750
L 5050 4050
L 5450 3600
L 4025 3600
L 4025 2975
L 5300 2975
L 5650 3300
L 6075 2825
L 2700 2825
Q 2375 2825 2100 2750
L 1875 2975
L 3700 2975
L 3700 3600
L 3250 3600
Q 2925 3600 2650 3525
L 2425 3750
L 3700 3750
L 3700 4275
L 2925 4275
Q 2600 4275 2325 4200
L 2100 4425
L 3700 4425
z
M 1925 3700
Q 1350 1350 1300 1037
Q 1250 725 1225 275
Q 1200 -175 1200 -350
Q 1200 -450 1100 -450
Q 1025 -450 875 -387
Q 725 -325 725 -150
Q 725 0 800 225
Q 900 500 900 625
Q 900 750 762 862
Q 625 975 250 1075
L 250 1175
Q 700 1150 812 1162
Q 925 1175 1062 1375
Q 1200 1575 1825 3725
L 1925 3700
z
M 325 3650
Q 1125 3275 1175 3037
Q 1225 2800 1125 2687
Q 1025 2575 975 2575
Q 875 2575 825 2775
Q 700 3100 275 3575
L 325 3650
z
M 850 5050
Q 1550 4725 1612 4575
Q 1675 4425 1675 4350
Q 1675 4225 1575 4087
Q 1475 3950 1450 3950
Q 1375 3950 1300 4175
Q 1175 4525 800 4975
L 850 5050
z
" transform="scale(0.015625)"/>
      <path id="SimSun-96f6" d="M 2750 2025
L 2775 2100
Q 3250 1925 3362 1800
Q 3475 1675 3475 1575
Q 3475 1475 3400 1350
Q 3325 1225 3275 1225
Q 3225 1225 3175 1425
Q 3075 1700 2750 2025
z
M 3050 3075
L 3475 2725
L 3250 2625
Q 3700 2225 4350 1987
Q 5000 1750 6125 1725
L 6125 1625
Q 5725 1550 5650 1300
Q 4925 1425 4262 1737
Q 3600 2050 3150 2550
Q 2475 1950 1750 1662
Q 1025 1375 275 1225
L 275 1325
Q 1250 1600 1975 2062
Q 2700 2525 3050 3075
z
M 1225 1200
L 4225 1200
L 4425 1400
L 4850 925
Q 4575 925 4187 737
Q 3800 550 3300 200
Q 3975 0 4087 -187
Q 4200 -375 4162 -512
Q 4125 -650 4075 -650
Q 3950 -650 3700 -425
Q 3275 -75 2025 425
L 2050 525
Q 2600 400 3125 250
L 4175 1050
L 2050 1050
Q 1725 1050 1450 975
L 1225 1200
z
M 1325 3575
L 2500 3575
L 2500 3425
L 1325 3425
L 1325 3575
z
M 3800 3575
L 4975 3575
L 4975 3425
L 3800 3425
L 3800 3575
z
M 1300 2950
L 2500 2950
L 2500 2800
L 1300 2800
L 1300 2950
z
M 5150 3400
L 5400 4075
L 3350 4075
Q 3350 3450 3375 3250
L 3000 3100
Q 3025 3675 3025 4075
L 1100 4075
Q 1150 3675 1062 3512
Q 975 3350 775 3337
Q 575 3325 537 3412
Q 500 3500 675 3700
Q 850 3875 975 4450
L 1075 4450
L 1100 4225
L 3025 4225
L 3025 4725
L 2025 4725
Q 1700 4725 1425 4650
L 1200 4875
L 4525 4875
L 4875 5175
L 5300 4725
L 3350 4725
L 3350 4225
L 5375 4225
L 5575 4450
L 6000 4025
Q 5650 4025 5250 3375
L 5150 3400
z
M 3800 2950
L 5025 2950
L 5025 2800
L 3800 2800
L 3800 2950
z
" transform="scale(0.015625)"/>
     </defs>
     <use xlink:href="#SimSun-524d"/>
     <use xlink:href="#SimSun-38" x="100"/>
     <use xlink:href="#SimSun-5757" x="150"/>
     <use xlink:href="#SimSun-ff1a" x="250"/>
     <use xlink:href="#SimSun-79ef" x="350"/>
     <use xlink:href="#SimSun-5206" x="450"/>
     <use xlink:href="#SimSun-72b6" x="550"/>
     <use xlink:href="#SimSun-6001" x="650"/>
     <use xlink:href="#SimSun-8fde" x="750"/>
     <use xlink:href="#SimSun-7eed" x="850"/>
     <use xlink:href="#SimSun-4fdd" x="950"/>
     <use xlink:href="#SimSun-5b58" x="1050"/>
     <use xlink:href="#SimSun-ff0c" x="1150"/>
     <use xlink:href="#SimSun-4e0d" x="1250"/>
     <use xlink:href="#SimSun-6e05" x="1350"/>
     <use xlink:href="#SimSun-96f6" x="1450"/>
    </g>
   </g>
   <g id="text_13">
    <!-- 第2304点后输出11组相关结果 -->
    <g transform="translate(560.2 251.94375) scale(0.16 -0.16)">
     <defs>
      <path id="SimSun-540e" d="M 300 -550
Q 925 225 1112 925
Q 1300 1625 1312 2612
Q 1325 3600 1300 4650
L 1700 4400
Q 3125 4525 4050 4725
Q 4975 4925 5275 5100
L 5625 4625
Q 5300 4650 4150 4500
Q 2975 4325 1675 4250
L 1675 3225
L 5150 3225
L 5475 3550
L 5925 3075
L 1675 3075
Q 1700 1575 1375 787
Q 1050 0 375 -625
L 300 -550
z
M 5225 1775
L 5225 500
Q 5225 125 5250 -175
L 4875 -325
L 4875 125
L 2625 125
L 2625 -275
L 2225 -450
Q 2275 125 2275 912
Q 2275 1700 2250 2250
L 2675 2025
L 4825 2025
L 5075 2275
L 5425 1925
L 5225 1775
z
M 2625 1875
L 2625 275
L 4875 275
L 4875 1875
L 2625 1875
z
" transform="scale(0.015625)"/>
      <path id="SimSun-8f93" d="M 2925 2525
L 2925 1875
L 3700 1875
L 3700 2525
L 2925 2525
z
M 2925 1725
L 2925 1050
L 3700 1050
L 3700 1725
L 2925 1725
z
M 4100 4750
Q 3300 3375 2125 2825
L 2075 2900
Q 2800 3400 3237 4025
Q 3675 4650 3900 5275
L 4400 4975
L 4200 4850
Q 4950 3625 6150 3400
L 6150 3300
Q 5775 3275 5700 3025
Q 4725 3550 4100 4750
z
M 2600 -650
Q 2625 -150 2625 1087
Q 2625 2325 2600 2850
L 2950 2675
L 3650 2675
L 3825 2900
L 4175 2625
L 4000 2475
L 4000 -150
Q 4000 -525 3625 -650
Q 3550 -350 3150 -275
L 3150 -175
Q 3400 -200 3550 -200
Q 3700 -200 3700 0
L 3700 900
L 2925 900
L 2925 -475
L 2600 -650
z
M 4500 350
Q 4525 700 4525 1475
Q 4525 2250 4500 2625
L 4975 2375
L 4825 2250
L 4825 500
L 4500 350
z
M 5350 2125
Q 5350 2400 5325 2875
L 5825 2650
L 5650 2475
L 5650 -75
Q 5675 -475 5175 -625
Q 5150 -300 4525 -175
L 4525 -75
Q 5000 -100 5175 -100
Q 5350 -100 5350 100
L 5350 2125
z
M 1475 2525
Q 1475 3175 1450 3525
L 1975 3275
L 1800 3100
L 1800 2525
L 1925 2525
L 2175 2750
L 2525 2375
L 1800 2375
L 1800 1325
L 2475 1450
L 2500 1350
L 1800 1150
Q 1800 -50 1825 -500
L 1450 -650
Q 1475 400 1475 1050
Q 550 800 475 625
L 250 1050
Q 800 1125 1475 1250
L 1475 2375
L 750 2375
L 550 2200
L 275 2600
Q 450 2650 600 3000
Q 750 3350 950 3950
L 900 3950
Q 725 3950 450 3875
L 225 4100
L 1000 4100
Q 1150 4700 1275 5200
L 1750 4925
Q 1625 4850 1550 4712
Q 1475 4575 1325 4100
L 2025 4100
L 2325 4375
L 2700 3950
L 1275 3950
L 750 2525
L 1475 2525
z
M 3150 3450
L 4425 3450
L 4675 3700
L 5050 3300
L 3850 3300
L 3200 3400
L 3350 3250
L 3150 3450
z
" transform="scale(0.015625)"/>
      <path id="SimSun-51fa" d="M 5175 3975
L 5175 3000
Q 5175 2750 5225 2300
L 4825 2150
L 4825 2450
L 3350 2450
L 3350 25
L 5075 25
L 5075 1125
Q 5075 1475 5050 1900
L 5625 1575
L 5425 1425
L 5425 500
Q 5425 50 5450 -400
L 5075 -525
L 5075 -125
L 1325 -125
L 1150 -300
L 800 -25
L 975 150
L 975 1125
Q 975 1500 950 1950
L 1525 1650
L 1325 1475
L 1325 25
L 3000 25
L 3000 2450
L 1550 2450
L 1350 2275
L 1000 2550
L 1175 2700
L 1175 3725
Q 1175 4025 1150 4375
L 1750 4075
L 1525 3925
L 1525 2600
L 3000 2600
L 3000 4250
Q 3000 4700 2975 5125
L 3550 4850
L 3350 4625
L 3350 2600
L 4825 2600
L 4825 3725
Q 4825 4025 4800 4425
L 5375 4150
L 5175 3975
z
" transform="scale(0.015625)"/>
      <path id="SimSun-7ec4" d="M 1000 1525
Q 1950 1675 2400 1775
L 2425 1675
Q 2100 1575 1537 1387
Q 975 1200 750 1025
L 475 1475
Q 725 1550 987 1875
Q 1250 2200 1750 3000
Q 1375 2925 1087 2812
Q 800 2700 625 2600
L 400 3025
Q 650 3075 1025 3912
Q 1400 4750 1475 5175
L 1925 4875
Q 1700 4650 1475 4200
Q 1225 3750 775 3025
L 1800 3125
Q 2050 3600 2200 4075
L 2625 3775
Q 2500 3650 2125 3075
Q 1750 2475 1000 1525
z
M 325 250
Q 625 300 1312 475
Q 2000 650 2525 825
L 2575 700
Q 2225 575 1525 262
Q 825 -50 625 -225
L 325 250
z
M 3250 4550
L 3250 3175
L 4850 3175
L 4850 4550
L 3250 4550
z
M 3250 3025
L 3250 1625
L 4850 1625
L 4850 3025
L 3250 3025
z
M 3250 1475
L 3250 -50
L 4850 -50
L 4850 1475
L 3250 1475
z
M 2925 3475
Q 2925 4500 2900 4925
L 3250 4700
L 4825 4700
L 5025 4975
L 5425 4650
L 5200 4450
L 5200 -50
L 5375 -50
L 5750 300
L 6175 -200
L 2825 -200
Q 2500 -200 2225 -275
L 2000 -50
L 2925 -50
L 2925 3475
z
" transform="scale(0.015625)"/>
      <path id="SimSun-76f8" d="M 3700 1600
L 3700 200
L 5300 200
L 5300 1600
L 3700 1600
z
M 3325 -550
Q 3350 125 3350 2150
Q 3350 4175 3325 4750
L 3700 4500
L 5250 4500
L 5450 4775
L 5875 4425
L 5650 4250
Q 5650 275 5675 -300
L 5300 -475
L 5300 50
L 3700 50
L 3700 -400
L 3325 -550
z
M 3700 4350
L 3700 3100
L 5300 3100
L 5300 4350
L 3700 4350
z
M 3700 2950
L 3700 1750
L 5300 1750
L 5300 2950
L 3700 2950
z
M 1650 3550
Q 1650 4550 1625 5200
L 2200 4950
L 1975 4750
L 1975 3550
L 2475 3550
L 2775 3875
L 3200 3400
L 1975 3400
L 1975 2800
Q 2475 2650 2662 2500
Q 2850 2350 2850 2175
Q 2850 2075 2800 1925
Q 2750 1775 2700 1775
Q 2650 1775 2525 2025
Q 2325 2400 1975 2675
Q 1975 225 2000 -400
L 1625 -575
Q 1650 975 1650 2375
Q 1150 1250 325 375
L 250 425
Q 1250 1900 1600 3400
L 1225 3400
Q 900 3400 625 3325
L 400 3550
L 1650 3550
z
" transform="scale(0.015625)"/>
      <path id="SimSun-5173" d="M 1750 5100
L 1800 5175
Q 2300 4900 2550 4675
Q 2800 4450 2800 4250
Q 2800 4125 2712 3975
Q 2625 3825 2600 3825
Q 2500 3825 2375 4175
Q 2175 4675 1750 5100
z
M 3375 3500
Q 3350 2850 3300 2150
L 5200 2150
L 5575 2525
L 6100 2000
L 3625 2000
Q 3850 1350 4425 750
Q 5000 150 6100 -150
L 6100 -225
Q 5700 -250 5550 -550
Q 4875 -200 4312 387
Q 3750 975 3475 2000
L 3275 2000
Q 3050 1075 2312 412
Q 1575 -250 375 -625
L 350 -525
Q 1625 25 2175 687
Q 2725 1350 2900 2000
L 1175 2000
Q 850 2000 575 1925
L 350 2150
L 2925 2150
Q 2975 2700 2975 3500
L 1500 3500
Q 1175 3500 900 3425
L 675 3650
L 3500 3650
Q 3700 4000 3875 4462
Q 4050 4925 4125 5225
L 4725 4825
L 4425 4700
Q 4000 4050 3675 3650
L 4975 3650
L 5325 4000
L 5825 3500
L 3375 3500
z
" transform="scale(0.015625)"/>
      <path id="SimSun-7ed3" d="M 4050 3900
Q 4050 4925 4025 5250
L 4625 4925
L 4375 4750
L 4375 3900
L 5300 3900
L 5600 4200
L 6025 3750
L 4375 3750
L 4375 2625
L 5050 2625
L 5350 2925
L 5775 2475
L 3650 2475
Q 3325 2475 3050 2400
L 2825 2625
L 4050 2625
L 4050 3750
L 3425 3750
Q 3100 3750 2825 3675
L 2600 3900
L 4050 3900
z
M 3025 -600
Q 3050 -50 3050 675
Q 3050 1400 3025 1925
L 3425 1700
L 5125 1700
L 5350 1925
L 5700 1575
L 5475 1425
L 5475 400
Q 5475 -150 5500 -375
L 5150 -525
L 5150 -25
L 3375 -25
L 3375 -425
L 3025 -600
z
M 3375 1550
L 3375 125
L 5150 125
L 5150 1550
L 3375 1550
z
M 975 1550
L 2700 1825
L 2700 1725
Q 2400 1650 1750 1462
Q 1100 1275 800 1050
L 525 1500
Q 725 1575 900 1750
Q 1075 1925 1725 2825
Q 1425 2775 1150 2712
Q 875 2650 625 2500
L 400 2950
Q 650 2950 987 3662
Q 1325 4375 1525 5125
L 2050 4850
L 1825 4725
Q 1300 3725 800 2950
L 1800 2975
Q 2100 3450 2275 3850
L 2725 3525
L 2500 3400
Q 1800 2475 975 1550
z
M 650 -250
L 400 225
Q 750 275 1237 387
Q 1725 500 2750 800
L 2775 700
Q 925 -25 650 -250
z
" transform="scale(0.015625)"/>
      <path id="SimSun-679c" d="M 1725 4725
L 1725 3875
L 3025 3875
L 3025 4725
L 1725 4725
z
M 3400 4725
L 3400 3875
L 4725 3875
L 4725 4725
L 3400 4725
z
M 1725 3725
L 1725 2825
L 3025 2825
L 3025 3725
L 1725 3725
z
M 3400 3725
L 3400 2825
L 4725 2825
L 4725 3725
L 3400 3725
z
M 1350 2300
Q 1375 3000 1375 3700
Q 1375 4400 1350 5075
L 1725 4875
L 4700 4875
L 4925 5100
L 5300 4750
L 5075 4600
Q 5075 2850 5100 2500
L 4725 2325
L 4725 2675
L 3400 2675
L 3400 1950
L 5100 1950
L 5475 2325
L 6000 1800
L 3450 1800
Q 4500 450 6025 100
L 6025 0
Q 5550 -25 5450 -300
Q 3950 525 3400 1700
Q 3400 -50 3425 -425
L 3000 -625
Q 3025 350 3025 1650
Q 2100 325 400 -375
L 375 -275
Q 1850 550 2700 1800
L 1300 1800
Q 975 1800 700 1725
L 475 1950
L 3025 1950
L 3025 2675
L 1725 2675
L 1725 2450
L 1350 2300
z
" transform="scale(0.015625)"/>
     </defs>
     <use xlink:href="#SimSun-7b2c"/>
     <use xlink:href="#SimSun-32" x="100"/>
     <use xlink:href="#SimSun-33" x="150"/>
     <use xlink:href="#SimSun-30" x="200"/>
     <use xlink:href="#SimSun-34" x="250"/>
     <use xlink:href="#SimSun-70b9" x="300"/>
     <use xlink:href="#SimSun-540e" x="400"/>
     <use xlink:href="#SimSun-8f93" x="500"/>
     <use xlink:href="#SimSun-51fa" x="600"/>
     <use xlink:href="#SimSun-31" x="700"/>
     <use xlink:href="#SimSun-31" x="750"/>
     <use xlink:href="#SimSun-7ec4" x="800"/>
     <use xlink:href="#SimSun-76f8" x="900"/>
     <use xlink:href="#SimSun-5173" x="1000"/>
     <use xlink:href="#SimSun-7ed3" x="1100"/>
     <use xlink:href="#SimSun-679c" x="1200"/>
    </g>
   </g>
   <g id="text_14">
    <!-- 9块合计2304点，形成一条首段PDI -->
    <g transform="translate(139.2 253.775) scale(0.16 -0.16)">
     <defs>
      <path id="SimSun-5408" d="M 3575 4875
L 3350 4750
Q 3650 4225 4312 3662
Q 4975 3100 6125 2825
L 6125 2750
Q 5750 2675 5600 2400
Q 4500 3000 3962 3612
Q 3425 4225 3250 4625
Q 2575 3600 1887 3075
Q 1200 2550 300 2225
L 275 2325
Q 1250 2825 1937 3500
Q 2625 4175 3050 5225
L 3575 4875
z
M 1525 2700
L 4025 2700
L 4350 3025
L 4825 2550
L 2300 2550
Q 2025 2550 1750 2475
L 1525 2700
z
M 1975 1500
L 1975 100
L 4375 100
L 4375 1500
L 1975 1500
z
M 4725 1375
Q 4725 250 4750 -325
L 4375 -475
L 4375 -50
L 1975 -50
L 1975 -375
L 1600 -525
Q 1625 100 1625 675
Q 1625 1250 1600 1850
L 1975 1650
L 4325 1650
L 4575 1900
L 4925 1550
L 4725 1375
z
" transform="scale(0.015625)"/>
      <path id="SimSun-8ba1" d="M 975 4975
L 1000 5050
Q 1550 4800 1762 4625
Q 1975 4450 1975 4275
Q 1975 4100 1887 4025
Q 1800 3950 1775 3950
Q 1650 3950 1550 4250
Q 1375 4625 975 4975
z
M 1650 375
L 2625 1225
L 2675 1150
Q 1800 25 1600 -350
L 1225 75
Q 1325 225 1325 550
L 1325 2800
L 675 2800
L 900 2800
Q 750 2800 475 2725
L 250 2950
L 1275 2950
L 1550 3225
L 1900 2875
L 1650 2700
L 1650 375
z
M 3850 2925
Q 3850 4600 3825 5100
L 4425 4825
L 4225 4625
L 4225 2925
L 5350 2925
L 5675 3250
L 6125 2775
L 4225 2775
L 4225 500
Q 4225 0 4250 -425
L 3825 -600
Q 3850 175 3850 575
L 3850 2775
L 2575 2775
L 2950 2775
Q 2650 2775 2375 2700
L 2150 2925
L 3850 2925
z
" transform="scale(0.015625)"/>
      <path id="SimSun-5f62" d="M 5175 5025
L 5650 4675
Q 5425 4600 4950 4100
Q 4475 3575 3825 3125
L 3775 3200
Q 4125 3500 4525 4012
Q 4925 4525 5175 5025
z
M 5425 3350
L 5850 2950
Q 5625 2875 5000 2325
Q 4375 1750 3575 1350
L 3525 1425
Q 4250 1950 4737 2487
Q 5225 3025 5425 3350
z
M 5650 1700
L 6100 1250
Q 5850 1225 5350 775
Q 4825 300 4212 -62
Q 3600 -425 3150 -575
L 3100 -500
Q 3350 -375 3912 12
Q 4475 400 4975 912
Q 5475 1425 5650 1700
z
M 1800 4500
L 1800 2800
L 2725 2800
L 2725 4500
L 1800 4500
z
M 2700 -325
Q 2725 475 2725 2650
L 1800 2650
Q 1750 525 375 -525
L 325 -450
Q 1375 675 1450 2650
L 850 2650
L 550 2600
L 350 2800
L 1450 2800
L 1450 4500
L 1025 4500
L 725 4450
L 525 4650
L 3225 4650
L 3550 4975
L 4025 4500
L 3050 4500
L 3050 2800
L 3300 2800
L 3625 3125
L 4100 2650
L 3050 2650
Q 3050 375 3075 -100
L 2700 -325
z
" transform="scale(0.015625)"/>
      <path id="SimSun-6210" d="M 4325 5075
Q 4850 4775 5025 4612
Q 5200 4450 5162 4287
Q 5125 4125 5025 4062
Q 4925 4000 4900 4000
Q 4800 4000 4750 4200
Q 4675 4475 4250 5000
L 4325 5075
z
M 5625 100
L 5925 1175
L 6025 1150
Q 5925 375 5925 125
Q 5925 -125 6050 -350
Q 6100 -450 6000 -450
Q 5825 -450 5350 -275
Q 4875 -100 4250 675
Q 3475 -125 2550 -525
L 2525 -425
Q 3525 225 4050 950
Q 3550 1875 3400 3650
L 1425 3650
L 1400 2450
L 2550 2450
L 2775 2700
L 3150 2350
L 2925 2175
Q 2850 675 2725 437
Q 2600 200 2250 50
Q 2175 400 1575 625
L 1575 725
Q 2050 650 2237 625
Q 2425 600 2475 837
Q 2525 1075 2575 2300
L 1400 2300
Q 1325 225 350 -600
L 300 -525
Q 950 400 987 1462
Q 1025 2525 1025 3075
Q 1025 3625 1000 4025
L 1450 3800
L 3375 3800
Q 3300 4625 3250 5150
L 3900 4900
L 3725 4700
Q 3725 4300 3775 3800
L 5150 3800
L 5500 4150
L 6000 3650
L 3775 3650
Q 3925 2000 4300 1325
Q 4500 1625 4700 2100
Q 4900 2575 5100 3175
L 5625 2775
L 5400 2650
Q 4975 1625 4525 975
Q 5050 350 5625 100
z
" transform="scale(0.015625)"/>
      <path id="SimSun-4e00" d="M 350 2650
L 5000 2650
L 5500 3050
L 6050 2500
L 1250 2500
Q 850 2500 575 2425
L 350 2650
z
" transform="scale(0.015625)"/>
      <path id="SimSun-6761" d="M 2175 4325
Q 1600 3525 700 2900
L 625 2975
Q 1225 3450 1675 4162
Q 2125 4875 2225 5300
L 2775 4975
Q 2575 4925 2375 4625
L 4250 4625
L 4500 4900
L 5000 4475
L 4700 4325
Q 4250 3575 3550 3025
Q 4575 2400 6125 2450
L 6125 2350
Q 5625 2250 5575 1975
Q 4075 2150 3250 2825
Q 2225 2200 350 1925
L 300 2025
Q 2025 2375 3025 3075
Q 2550 3575 2175 4325
z
M 2300 4475
L 2250 4425
Q 2725 3650 3275 3250
Q 3900 3775 4250 4475
L 2300 4475
z
M 1100 1625
L 3100 1625
Q 3100 2050 3075 2600
L 3725 2275
L 3475 2100
L 3475 1625
L 4550 1625
L 4875 1950
L 5350 1475
L 3475 1475
L 3475 -25
Q 3475 -450 2900 -650
Q 2900 -275 2125 -75
L 2125 50
Q 2800 -75 2950 -50
Q 3100 -25 3100 225
L 3100 1475
L 1925 1475
Q 1600 1475 1325 1400
L 1100 1625
z
M 2100 1300
L 2575 900
Q 2375 875 1875 400
Q 1350 -75 525 -500
L 450 -425
Q 1675 450 2100 1300
z
M 3925 1150
Q 5125 550 5325 362
Q 5525 175 5525 -50
Q 5525 -150 5475 -312
Q 5425 -475 5375 -475
Q 5300 -475 5100 -150
Q 4800 325 3875 1075
L 3925 1150
z
" transform="scale(0.015625)"/>
      <path id="SimSun-9996" d="M 1900 2850
L 1900 2050
L 4500 2050
L 4500 2850
L 1900 2850
z
M 1900 1900
L 1900 1100
L 4500 1100
L 4500 1900
L 1900 1900
z
M 1900 950
L 1900 100
L 4500 100
L 4500 950
L 1900 950
z
M 2625 3000
Q 2750 3425 2800 3825
L 1050 3825
Q 850 3825 575 3750
L 350 3975
L 2400 3975
Q 2350 4225 2250 4475
Q 2150 4725 1850 5050
L 1900 5125
Q 2425 4850 2600 4675
Q 2775 4500 2775 4350
Q 2775 4175 2600 3975
L 3625 3975
Q 3950 4575 4125 5225
L 4675 4875
L 4425 4775
Q 4125 4375 3775 3975
L 5175 3975
L 5550 4350
L 6075 3825
L 3300 3825
Q 3025 3525 2775 3000
L 4450 3000
L 4625 3275
L 5050 2975
L 4850 2800
L 4850 350
Q 4850 25 4875 -400
L 4500 -600
L 4500 -50
L 1900 -50
L 1900 -450
L 1525 -625
Q 1550 -300 1550 1200
Q 1550 2700 1525 3225
L 1900 3000
L 2625 3000
z
" transform="scale(0.015625)"/>
      <path id="SimSun-6bb5" d="M 1300 1100
L 3075 1500
L 3125 1400
L 1300 800
Q 1300 25 1325 -375
L 950 -600
Q 975 0 975 700
Q 575 575 525 475
L 275 925
Q 450 925 975 1050
L 975 3225
Q 975 4450 950 4825
L 1325 4600
Q 1625 4650 2025 4800
Q 2425 4950 2675 5150
L 3050 4725
Q 2750 4725 2275 4625
Q 1775 4525 1300 4450
L 1300 3525
L 2175 3525
L 2425 3775
L 2825 3375
L 1300 3375
L 1300 2375
L 2150 2375
L 2400 2625
L 2800 2225
L 1300 2225
L 1300 1100
z
M 3375 4950
L 3750 4725
L 4625 4725
L 4825 4950
L 5175 4625
L 4975 4475
L 4975 3475
Q 4975 3225 5225 3225
L 5400 3225
Q 5550 3250 5650 3325
Q 5750 3375 5850 3250
Q 5950 3125 5950 3075
Q 5950 2950 5575 2950
L 5075 2950
Q 4650 2950 4650 3275
L 4650 4575
L 3725 4575
Q 3750 3825 3575 3350
Q 3400 2875 2725 2475
L 2650 2550
Q 3125 2925 3237 3287
Q 3350 3650 3375 4062
Q 3400 4475 3375 4950
z
M 3475 2325
Q 3625 1900 3812 1562
Q 4000 1225 4200 975
Q 4400 1225 4575 1600
Q 4750 1975 4850 2325
L 3475 2325
z
M 4000 750
Q 3825 1000 3662 1387
Q 3500 1775 3350 2325
L 3075 2275
L 2875 2475
L 4850 2475
L 5075 2725
L 5450 2375
L 5225 2225
Q 5075 1825 4862 1412
Q 4650 1000 4425 725
Q 4875 300 5325 87
Q 5775 -125 6150 -150
L 6150 -250
Q 5800 -275 5700 -525
Q 5400 -450 5012 -212
Q 4625 25 4200 500
Q 3700 100 3075 -162
Q 2450 -425 1775 -575
L 1750 -475
Q 2375 -300 2975 25
Q 3575 350 4000 750
z
" transform="scale(0.015625)"/>
      <path id="SimSun-44" d="M 2500 2275
Q 2500 3350 2175 3787
Q 1850 4225 1275 4225
Q 1100 4225 1012 4175
Q 925 4125 925 4025
L 925 450
Q 925 350 1000 300
Q 1075 250 1200 250
Q 1750 250 2125 662
Q 2500 1075 2500 2275
z
M 525 4025
Q 525 4125 475 4175
Q 425 4225 300 4225
L 150 4225
L 150 4375
L 1275 4375
Q 2050 4375 2512 3875
Q 2975 3375 2975 2325
Q 2975 1175 2525 637
Q 2075 100 1200 100
L 125 100
L 125 250
L 300 250
Q 425 250 475 300
Q 525 350 525 450
L 525 4025
z
" transform="scale(0.015625)"/>
      <path id="SimSun-49" d="M 600 4225
L 600 4375
L 2600 4375
L 2600 4225
L 2025 4225
Q 1925 4225 1862 4175
Q 1800 4125 1800 4025
L 1800 450
Q 1800 350 1862 300
Q 1925 250 2025 250
L 2600 250
L 2600 100
L 600 100
L 600 250
L 1175 250
Q 1300 250 1350 300
Q 1400 350 1400 450
L 1400 4025
Q 1400 4125 1350 4175
Q 1300 4225 1175 4225
L 600 4225
z
" transform="scale(0.015625)"/>
     </defs>
     <use xlink:href="#SimSun-39"/>
     <use xlink:href="#SimSun-5757" x="50"/>
     <use xlink:href="#SimSun-5408" x="150"/>
     <use xlink:href="#SimSun-8ba1" x="250"/>
     <use xlink:href="#SimSun-32" x="350"/>
     <use xlink:href="#SimSun-33" x="400"/>
     <use xlink:href="#SimSun-30" x="450"/>
     <use xlink:href="#SimSun-34" x="500"/>
     <use xlink:href="#SimSun-70b9" x="550"/>
     <use xlink:href="#SimSun-ff0c" x="650"/>
     <use xlink:href="#SimSun-5f62" x="750"/>
     <use xlink:href="#SimSun-6210" x="850"/>
     <use xlink:href="#SimSun-4e00" x="950"/>
     <use xlink:href="#SimSun-6761" x="1050"/>
     <use xlink:href="#SimSun-9996" x="1150"/>
     <use xlink:href="#SimSun-6bb5" x="1250"/>
     <use xlink:href="#SimSun-50" x="1350"/>
     <use xlink:href="#SimSun-44" x="1400"/>
     <use xlink:href="#SimSun-49" x="1450"/>
    </g>
   </g>
  </g>
 </g>
 <defs>
  <clipPath id="p344b50b082">
   <rect x="0" y="0" width="835.2" height="309.6"/>
  </clipPath>
 </defs>
</svg>
