<?xml version="1.0" encoding="utf-8" standalone="no"?>
<!DOCTYPE svg PUBLIC "-//W3C//DTD SVG 1.1//EN"
  "http://www.w3.org/Graphics/SVG/1.1/DTD/svg11.dtd">
<svg xmlns:xlink="http://www.w3.org/1999/xlink" width="878.4pt" height="327.6pt" viewBox="0 0 878.4 327.6" xmlns="http://www.w3.org/2000/svg" version="1.1">
 <metadata>
  <rdf:RDF xmlns:dc="http://purl.org/dc/elements/1.1/" xmlns:cc="http://creativecommons.org/ns#" xmlns:rdf="http://www.w3.org/1999/02/22-rdf-syntax-ns#">
   <cc:Work>
    <dc:type rdf:resource="http://purl.org/dc/dcmitype/StillImage"/>
    <dc:format>image/svg+xml</dc:format>
    <dc:creator>
     <cc:Agent>
      <dc:title>Matplotlib v3.6.3, https://matplotlib.org/</dc:title>
     </cc:Agent>
    </dc:creator>
   </cc:Work>
  </rdf:RDF>
 </metadata>
 <defs>
  <style type="text/css">*{stroke-linejoin: round; stroke-linecap: butt}</style>
 </defs>
 <g id="figure_1">
  <g id="patch_1">
   <path d="M 0 327.6
L 878.4 327.6
L 878.4 0
L 0 0
z
" style="fill: #ffffff"/>
  </g>
  <g id="axes_1">
   <g id="patch_2">
    <path d="M 28.8 28.8
L 158.4 28.8
L 158.4 86.4
L 28.8 86.4
z
" clip-path="url(#pc6f9dab54a)" style="fill: #ffffff; stroke: #000000; stroke-linejoin: miter"/>
   </g>
   <g id="patch_3">
    <path d="M 208.8 28.8
L 345.6 28.8
L 345.6 86.4
L 208.8 86.4
z
" clip-path="url(#pc6f9dab54a)" style="fill: #ffffff; stroke: #000000; stroke-linejoin: miter"/>
   </g>
   <g id="patch_4">
    <path d="M 396 28.8
L 604.8 28.8
L 604.8 86.4
L 396 86.4
z
" clip-path="url(#pc6f9dab54a)" style="fill: #ffffff; stroke: #000000; stroke-linejoin: miter"/>
   </g>
   <g id="patch_5">
    <path d="M 158.4 57.6
Q 183.6 57.6 207.681966 57.6
" clip-path="url(#pc6f9dab54a)" style="fill: none; stroke: #000000; stroke-linecap: round"/>
    <path d="M 202.881966 55.2
L 207.681966 57.6
L 202.881966 60
L 202.881966 55.2
z
" clip-path="url(#pc6f9dab54a)" style="stroke: #000000; stroke-linecap: round"/>
   </g>
   <g id="patch_6">
    <path d="M 345.6 57.6
Q 370.8 57.6 394.881966 57.6
" clip-path="url(#pc6f9dab54a)" style="fill: none; stroke: #000000; stroke-linecap: round"/>
    <path d="M 390.081966 55.2
L 394.881966 57.6
L 390.081966 60
L 390.081966 55.2
z
" clip-path="url(#pc6f9dab54a)" style="stroke: #000000; stroke-linecap: round"/>
   </g>
   <g id="patch_7">
    <path d="M 28.8 187.2
L 158.4 187.2
L 158.4 248.4
L 28.8 248.4
z
" clip-path="url(#pc6f9dab54a)" style="fill: #ffffff; stroke: #000000; stroke-linejoin: miter"/>
   </g>
   <g id="patch_8">
    <path d="M 208.8 187.2
L 345.6 187.2
L 345.6 248.4
L 208.8 248.4
z
" clip-path="url(#pc6f9dab54a)" style="fill: #ffffff; stroke: #000000; stroke-linejoin: miter"/>
   </g>
   <g id="patch_9">
    <path d="M 396 162
L 604.8 162
L 604.8 273.6
L 396 273.6
z
" clip-path="url(#pc6f9dab54a)" style="fill: #ffffff; stroke: #000000; stroke-linejoin: miter"/>
   </g>
   <g id="patch_10">
    <path d="M 669.6 187.2
L 846 187.2
L 846 248.4
L 669.6 248.4
z
" clip-path="url(#pc6f9dab54a)" style="fill: #ffffff; stroke: #000000; stroke-linejoin: miter"/>
   </g>
   <g id="patch_11">
    <path d="M 500.4 86.4
Q 500.4 124.2 500.4 160.881966
" clip-path="url(#pc6f9dab54a)" style="fill: none; stroke: #000000; stroke-linecap: round"/>
    <path d="M 502.8 156.081966
L 500.4 160.881966
L 498 156.081966
L 502.8 156.081966
z
" clip-path="url(#pc6f9dab54a)" style="stroke: #000000; stroke-linecap: round"/>
   </g>
   <g id="patch_12">
    <path d="M 158.4 217.8
Q 183.6 217.8 207.681966 217.8
" clip-path="url(#pc6f9dab54a)" style="fill: none; stroke: #000000; stroke-linecap: round"/>
    <path d="M 202.881966 215.4
L 207.681966 217.8
L 202.881966 220.2
L 202.881966 215.4
z
" clip-path="url(#pc6f9dab54a)" style="stroke: #000000; stroke-linecap: round"/>
   </g>
   <g id="patch_13">
    <path d="M 345.6 217.8
Q 370.8 217.8 394.881966 217.8
" clip-path="url(#pc6f9dab54a)" style="fill: none; stroke: #000000; stroke-linecap: round"/>
    <path d="M 390.081966 215.4
L 394.881966 217.8
L 390.081966 220.2
L 390.081966 215.4
z
" clip-path="url(#pc6f9dab54a)" style="stroke: #000000; stroke-linecap: round"/>
   </g>
   <g id="patch_14">
    <path d="M 604.8 217.8
Q 637.2 217.8 668.481966 217.8
" clip-path="url(#pc6f9dab54a)" style="fill: none; stroke: #000000; stroke-linecap: round"/>
    <path d="M 663.681966 215.4
L 668.481966 217.8
L 663.681966 220.2
L 663.681966 215.4
z
" clip-path="url(#pc6f9dab54a)" style="stroke: #000000; stroke-linecap: round"/>
   </g>
   <g id="text_1">
    <!-- 码NCO -->
    <g transform="translate(73.6 52.335937) scale(0.16 -0.16)">
     <defs>
      <path id="SimSun-7801" d="M 1200 2875
L 1200 825
L 1975 825
L 1975 2875
L 1200 2875
z
M 875 -200
Q 900 700 900 2500
Q 650 2050 275 1650
L 225 1725
Q 625 2350 875 3075
Q 1125 3800 1275 4550
L 1125 4550
Q 800 4550 525 4475
L 300 4700
L 2100 4700
L 2425 5025
L 2825 4550
L 1650 4550
Q 1400 3700 1175 3075
L 1275 3025
L 1925 3025
L 2075 3250
L 2450 2950
L 2275 2825
Q 2275 775 2300 375
L 1975 250
L 1975 675
L 1200 675
L 1200 -50
L 875 -200
z
M 3150 2400
Q 3250 3350 3325 4300
L 3850 4050
L 3625 3900
L 3450 2300
L 4750 2300
L 5025 4625
L 3675 4625
Q 3350 4625 3075 4550
L 2850 4775
L 5000 4775
L 5200 5025
L 5575 4700
L 5350 4525
L 5075 2300
L 5525 2300
L 5700 2525
L 6075 2200
L 5875 2075
Q 5700 250 5600 25
Q 5500 -200 5375 -312
Q 5250 -425 4925 -525
Q 4950 -150 4125 100
L 4150 200
Q 5075 25 5162 62
Q 5250 100 5312 225
Q 5375 350 5575 2150
L 3450 2150
L 3275 1950
L 2975 2275
L 3150 2400
z
M 2475 1250
L 4500 1250
L 4800 1550
L 5225 1100
L 3300 1100
Q 2975 1100 2700 1025
L 2475 1250
z
" transform="scale(0.015625)"/>
      <path id="SimSun-4e" d="M 2525 1100
L 2575 1100
L 2575 4025
Q 2575 4125 2525 4175
Q 2475 4225 2350 4225
L 2150 4225
L 2150 4375
L 3150 4375
L 3150 4225
L 2950 4225
Q 2850 4225 2787 4175
Q 2725 4125 2725 4025
L 2725 100
L 2575 100
L 675 3825
L 625 3825
L 625 450
Q 625 350 687 300
Q 750 250 850 250
L 1050 250
L 1050 100
L 50 100
L 50 250
L 250 250
Q 375 250 425 300
Q 475 350 475 450
L 475 4025
Q 475 4125 425 4175
Q 375 4225 250 4225
L 100 4225
L 100 4375
L 825 4375
L 2525 1100
z
" transform="scale(0.015625)"/>
      <path id="SimSun-43" d="M 1725 50
Q 1025 50 612 575
Q 200 1100 200 2225
Q 200 3175 637 3800
Q 1075 4425 1825 4425
Q 2000 4425 2175 4375
Q 2350 4300 2475 4300
Q 2575 4300 2637 4325
Q 2700 4350 2750 4425
L 2975 3325
L 2825 3275
Q 2675 3750 2425 4000
Q 2175 4250 1775 4250
Q 1250 4250 962 3675
Q 675 3100 675 2250
Q 675 1325 925 800
Q 1175 275 1750 275
Q 2150 275 2437 562
Q 2725 850 2825 1325
L 2975 1250
Q 2850 725 2512 387
Q 2175 50 1725 50
z
" transform="scale(0.015625)"/>
      <path id="SimSun-4f" d="M 700 2250
Q 700 1175 962 687
Q 1225 200 1625 200
Q 2050 200 2300 662
Q 2550 1125 2550 2250
Q 2550 3150 2337 3700
Q 2125 4250 1625 4250
Q 1200 4250 950 3750
Q 700 3250 700 2250
z
M 3025 2250
Q 3025 1225 2625 637
Q 2225 50 1625 50
Q 1050 50 637 650
Q 225 1250 225 2250
Q 225 3225 612 3825
Q 1000 4425 1625 4425
Q 2275 4425 2650 3787
Q 3025 3150 3025 2250
z
" transform="scale(0.015625)"/>
     </defs>
     <use xlink:href="#SimSun-7801"/>
     <use xlink:href="#SimSun-4e" x="100"/>
     <use xlink:href="#SimSun-43" x="150"/>
     <use xlink:href="#SimSun-4f" x="200"/>
    </g>
    <!-- 码相位逐点累加 -->
    <g transform="translate(37.6 72.614062) scale(0.16 -0.16)">
     <defs>
      <path id="SimSun-76f8" d="M 3700 1600
L 3700 200
L 5300 200
L 5300 1600
L 3700 1600
z
M 3325 -550
Q 3350 125 3350 2150
Q 3350 4175 3325 4750
L 3700 4500
L 5250 4500
L 5450 4775
L 5875 4425
L 5650 4250
Q 5650 275 5675 -300
L 5300 -475
L 5300 50
L 3700 50
L 3700 -400
L 3325 -550
z
M 3700 4350
L 3700 3100
L 5300 3100
L 5300 4350
L 3700 4350
z
M 3700 2950
L 3700 1750
L 5300 1750
L 5300 2950
L 3700 2950
z
M 1650 3550
Q 1650 4550 1625 5200
L 2200 4950
L 1975 4750
L 1975 3550
L 2475 3550
L 2775 3875
L 3200 3400
L 1975 3400
L 1975 2800
Q 2475 2650 2662 2500
Q 2850 2350 2850 2175
Q 2850 2075 2800 1925
Q 2750 1775 2700 1775
Q 2650 1775 2525 2025
Q 2325 2400 1975 2675
Q 1975 225 2000 -400
L 1625 -575
Q 1650 975 1650 2375
Q 1150 1250 325 375
L 250 425
Q 1250 1900 1600 3400
L 1225 3400
Q 900 3400 625 3325
L 400 3550
L 1650 3550
z
" transform="scale(0.015625)"/>
      <path id="SimSun-4f4d" d="M 1250 -600
Q 1275 150 1275 3100
Q 750 2225 325 1775
L 250 1825
Q 725 2575 1112 3450
Q 1500 4325 1700 5225
L 2275 4925
L 2050 4800
Q 1650 3900 1475 3500
L 1800 3275
L 1600 3125
Q 1600 125 1625 -400
L 1250 -600
z
M 3300 5125
L 3375 5175
Q 4100 4625 4112 4375
Q 4125 4125 4000 4025
Q 3875 3925 3850 3925
Q 3725 3925 3700 4200
Q 3625 4575 3300 5125
z
M 2025 3725
L 5050 3725
L 5400 4075
L 5900 3575
L 2825 3575
Q 2525 3575 2250 3500
L 2025 3725
z
M 2600 3000
L 2675 3050
Q 3300 2050 3400 1712
Q 3500 1375 3500 1200
Q 3500 950 3362 800
Q 3225 650 3175 650
Q 3100 650 3100 825
Q 3075 1125 2975 1675
Q 2875 2225 2600 3000
z
M 4725 3325
L 5325 3000
Q 5100 2875 4875 2125
Q 4650 1375 4175 -25
L 5300 -25
L 5650 325
L 6150 -175
L 2700 -175
Q 2375 -175 2100 -250
L 1875 -25
L 4000 -25
Q 4300 1000 4500 1962
Q 4700 2925 4725 3325
z
" transform="scale(0.015625)"/>
      <path id="SimSun-9010" d="M 4575 2275
Q 4650 1925 4637 1462
Q 4625 1000 4462 675
Q 4300 350 3875 225
Q 3875 575 3225 775
L 3225 875
Q 3800 775 3962 775
Q 4125 775 4200 1012
Q 4275 1250 4287 1450
Q 4300 1650 4275 2125
Q 3425 1225 1975 750
L 1950 825
Q 3450 1550 4200 2525
Q 4125 2825 4025 3050
Q 3175 2275 2100 1850
L 2050 1925
Q 3175 2525 3875 3350
Q 3750 3600 3600 3825
Q 3000 3300 2200 2925
L 2150 3000
Q 3225 3650 3775 4450
L 3050 4450
Q 2700 4450 2425 4375
L 2200 4600
L 5225 4600
L 5600 4950
L 6050 4450
L 4225 4450
Q 3900 4100 3700 3900
Q 4150 3425 4425 2925
Q 4775 3200 5037 3487
Q 5300 3775 5425 3975
L 5850 3575
Q 5650 3600 5300 3362
Q 4950 3125 4475 2800
Q 4525 2550 4550 2400
Q 5125 2175 5500 1912
Q 5875 1650 5912 1462
Q 5950 1275 5862 1125
Q 5775 975 5725 975
Q 5650 975 5550 1200
Q 5400 1525 5075 1850
Q 4750 2175 4575 2275
z
M 1625 850
Q 1850 550 2250 325
Q 2650 100 3312 62
Q 3975 25 4425 25
Q 5275 25 6150 125
L 6150 25
Q 5675 -100 5650 -375
Q 4525 -375 3812 -325
Q 3100 -275 2625 -125
Q 2150 25 1875 350
Q 1575 675 1450 687
Q 1325 700 1037 400
Q 750 100 625 -150
L 275 200
Q 700 550 1300 825
L 1300 2825
L 975 2825
Q 775 2825 500 2750
L 275 2975
L 1275 2975
L 1450 3250
L 1825 2925
L 1625 2750
L 1625 850
z
M 825 4975
L 875 5025
Q 1325 4775 1512 4612
Q 1700 4450 1687 4262
Q 1675 4075 1575 3987
Q 1475 3900 1450 3900
Q 1350 3900 1275 4175
Q 1175 4525 825 4975
z
" transform="scale(0.015625)"/>
      <path id="SimSun-70b9" d="M 1875 2900
L 1875 1525
L 4625 1525
L 4625 2900
L 1875 2900
z
M 1475 925
Q 1500 1450 1500 2050
Q 1500 2650 1475 3250
L 1875 3050
L 2950 3050
Q 2950 4725 2925 5225
L 3500 5000
L 3300 4800
L 3300 4200
L 4925 4200
L 5250 4525
L 5700 4050
L 3300 4050
L 3300 3050
L 4575 3050
L 4825 3300
L 5200 2925
L 4975 2750
Q 4975 1575 5000 1150
L 4625 1000
L 4625 1375
L 1875 1375
L 1875 1075
L 1475 925
z
M 1350 800
L 1450 800
Q 1300 -175 1137 -337
Q 975 -500 850 -500
Q 775 -500 675 -437
Q 575 -375 575 -300
Q 575 -225 700 -125
Q 925 50 1037 200
Q 1150 350 1350 800
z
M 2225 675
L 2275 750
Q 2800 350 2862 187
Q 2925 25 2925 -50
Q 2925 -225 2812 -337
Q 2700 -450 2675 -450
Q 2575 -450 2550 -200
Q 2500 175 2225 675
z
M 3550 700
L 3600 775
Q 4075 425 4187 225
Q 4300 25 4300 -50
Q 4300 -175 4187 -300
Q 4075 -425 4050 -425
Q 3950 -425 3900 -125
Q 3825 300 3550 700
z
M 4900 775
L 4950 850
Q 5450 500 5637 250
Q 5825 0 5825 -125
Q 5825 -250 5725 -375
Q 5625 -500 5600 -500
Q 5500 -500 5425 -200
Q 5300 225 4900 775
z
" transform="scale(0.015625)"/>
      <path id="SimSun-7d2f" d="M 1675 4725
L 1675 4100
L 3125 4100
L 3125 4725
L 1675 4725
z
M 3450 4725
L 3450 4100
L 4925 4100
L 4925 4725
L 3450 4725
z
M 1675 3950
L 1675 3375
L 3125 3375
L 3125 3950
L 1675 3950
z
M 3450 3950
L 3450 3375
L 4925 3375
L 4925 3950
L 3450 3950
z
M 5250 4625
Q 5250 4275 5250 3875
Q 5250 3475 5275 3075
L 4925 2950
L 4925 3225
L 1675 3225
L 1675 3000
L 1325 2875
Q 1350 3500 1350 4125
Q 1350 4750 1325 5075
L 1675 4875
L 4900 4875
L 5075 5075
L 5425 4775
L 5250 4625
z
M 3525 2875
Q 3225 2850 2875 2700
Q 2525 2550 1825 2275
L 3550 2300
Q 3925 2550 4175 2800
L 4500 2400
Q 4275 2400 3675 2100
Q 3050 1775 1875 1300
L 4775 1475
Q 4550 1725 4300 1975
L 4375 2025
Q 5100 1675 5262 1487
Q 5425 1300 5412 1150
Q 5400 1000 5337 900
Q 5275 800 5250 800
Q 5200 800 5125 950
Q 5000 1150 4875 1350
L 3550 1225
L 3550 100
Q 3575 -425 3000 -525
Q 3000 -175 2200 0
L 2200 100
Q 2900 25 3062 37
Q 3225 50 3225 325
L 3225 1200
Q 2750 1150 2250 1075
Q 1750 1000 1450 825
L 1175 1350
Q 1550 1400 2000 1562
Q 2450 1725 3375 2175
Q 2300 2075 2000 2037
Q 1700 2000 1550 1900
L 1325 2350
Q 1625 2350 2200 2612
Q 2775 2875 3150 3250
L 3525 2875
z
M 2625 500
Q 2325 450 1850 175
Q 1375 -125 550 -450
L 500 -375
Q 1125 -50 1562 300
Q 2000 650 2225 950
L 2625 500
z
M 4075 900
Q 5000 575 5312 387
Q 5625 200 5650 12
Q 5675 -175 5612 -287
Q 5550 -400 5525 -400
Q 5425 -400 5250 -150
Q 4975 250 4025 825
L 4075 900
z
" transform="scale(0.015625)"/>
      <path id="SimSun-52a0" d="M 1500 3800
Q 1500 4700 1475 5250
L 2075 4975
L 1850 4800
L 1850 3800
L 2750 3800
L 2950 4050
L 3325 3725
L 3100 3550
Q 3025 650 2825 200
Q 2625 -250 2150 -350
Q 2175 -25 1450 250
L 1475 375
Q 2050 225 2225 225
Q 2325 225 2437 287
Q 2550 350 2637 862
Q 2725 1375 2775 3650
L 1850 3650
Q 1825 2825 1762 2212
Q 1700 1600 1400 900
Q 1100 200 325 -525
L 250 -450
Q 825 225 1087 875
Q 1350 1525 1425 2200
Q 1500 2875 1500 3650
L 825 3650
L 525 3600
L 325 3800
L 1500 3800
z
M 5725 3700
L 5725 975
Q 5725 375 5750 -175
L 5400 -325
L 5400 350
L 4075 350
L 4075 -300
L 3725 -475
Q 3750 300 3750 1850
Q 3750 3400 3725 4175
L 4100 3925
L 5350 3925
L 5575 4150
L 5900 3825
L 5725 3700
z
M 4075 3775
L 4075 500
L 5400 500
L 5400 3775
L 4075 3775
z
" transform="scale(0.015625)"/>
     </defs>
     <use xlink:href="#SimSun-7801"/>
     <use xlink:href="#SimSun-76f8" x="100"/>
     <use xlink:href="#SimSun-4f4d" x="200"/>
     <use xlink:href="#SimSun-9010" x="300"/>
     <use xlink:href="#SimSun-70b9" x="400"/>
     <use xlink:href="#SimSun-7d2f" x="500"/>
     <use xlink:href="#SimSun-52a0" x="600"/>
    </g>
   </g>
   <g id="text_2">
    <!-- 五抽头地址 -->
    <g transform="translate(237.2 53.467187) scale(0.16 -0.16)">
     <defs>
      <path id="SimSun-4e94" d="M 4800 2450
L 4700 -75
L 5175 -75
L 5575 325
L 6125 -225
L 1175 -225
Q 850 -225 575 -300
L 350 -75
L 2125 -75
L 2525 2525
L 1775 2525
Q 1450 2525 1175 2450
L 950 2675
L 2550 2675
L 2800 4475
L 1500 4475
Q 1175 4475 900 4400
L 675 4625
L 4875 4625
L 5225 4975
L 5725 4475
L 3175 4475
L 2900 2675
L 4400 2675
L 4625 2950
L 5025 2625
L 4800 2450
z
M 4350 -75
L 4450 2525
L 2875 2525
L 2475 -75
L 4350 -75
z
" transform="scale(0.015625)"/>
      <path id="SimSun-62bd" d="M 5700 3350
L 5700 650
Q 5700 175 5725 -300
L 5350 -450
L 5350 -75
L 3025 -75
L 3025 -400
L 2675 -550
Q 2700 350 2700 1800
Q 2700 3250 2675 3825
L 3100 3600
L 4000 3600
Q 4000 4700 3975 5175
L 4550 4925
L 4350 4725
L 4350 3600
L 5300 3600
L 5525 3850
L 5900 3500
L 5700 3350
z
M 3025 3450
L 3025 1950
L 4000 1950
L 4000 3450
L 3025 3450
z
M 4350 3450
L 4350 1950
L 5350 1950
L 5350 3450
L 4350 3450
z
M 3025 1800
L 3025 75
L 4000 75
L 4000 1800
L 3025 1800
z
M 4350 1800
L 4350 75
L 5350 75
L 5350 1800
L 4350 1800
z
M 1725 2425
L 2500 2750
L 2550 2650
L 1725 2175
L 1725 50
Q 1700 -375 1175 -600
Q 1175 -300 375 -25
L 375 75
Q 1000 0 1187 0
Q 1375 0 1375 300
L 1375 2000
Q 600 1600 575 1450
L 225 1900
Q 500 1950 1375 2300
L 1375 3575
L 775 3575
L 525 3525
L 325 3725
L 1375 3725
Q 1375 4725 1350 5225
L 1925 4900
L 1725 4750
L 1725 3725
L 1950 3725
L 2200 3975
L 2600 3575
L 1725 3575
L 1725 2425
z
" transform="scale(0.015625)"/>
      <path id="SimSun-5934" d="M 1500 4750
Q 2375 4475 2550 4312
Q 2725 4150 2725 3975
Q 2725 3900 2662 3737
Q 2600 3575 2525 3575
Q 2450 3575 2325 3800
Q 2125 4150 1450 4675
L 1500 4750
z
M 925 3550
Q 1875 3200 2000 3037
Q 2125 2875 2125 2725
Q 2125 2600 2062 2462
Q 2000 2325 1950 2325
Q 1850 2325 1725 2575
Q 1500 2950 875 3475
L 925 3550
z
M 3950 4875
L 3700 4700
Q 3675 3875 3650 3312
Q 3625 2750 3550 1925
L 5025 1925
L 5450 2350
L 6025 1775
L 3525 1775
Q 3475 1575 3375 1325
Q 4650 800 5225 512
Q 5800 225 5787 -137
Q 5775 -500 5650 -500
Q 5550 -500 5325 -225
Q 4875 325 3325 1200
Q 2900 375 2125 -25
Q 1350 -425 375 -650
L 350 -550
Q 1425 -225 2150 300
Q 2875 825 3150 1775
L 1200 1775
Q 875 1775 600 1700
L 375 1925
L 3175 1925
Q 3275 2750 3287 3712
Q 3300 4675 3300 5200
L 3950 4875
z
" transform="scale(0.015625)"/>
      <path id="SimSun-5730" d="M 4350 1525
Q 4950 1450 5025 1475
Q 5100 1500 5100 1650
L 5100 3475
L 4200 3125
Q 4200 1475 4225 800
L 3850 625
Q 3875 1500 3875 3000
L 3100 2700
L 3100 275
Q 3100 -25 3425 -25
L 5325 -25
Q 5600 25 5637 375
Q 5675 725 5675 1200
L 5800 1200
Q 5825 700 5875 450
Q 5925 200 6150 100
Q 5950 -325 5575 -325
L 3300 -325
Q 2775 -325 2775 250
L 2775 2600
L 2225 2400
L 2075 2275
L 1825 2400
L 2775 2750
L 2775 3650
Q 2775 3975 2750 4425
L 3275 4150
L 3100 4000
L 3100 2850
L 3875 3150
L 3875 4350
Q 3875 4800 3850 5200
L 4425 4950
L 4200 4750
L 4200 3275
L 5025 3625
L 5225 3875
L 5625 3575
L 5425 3375
L 5425 1475
Q 5425 1325 5312 1187
Q 5200 1050 4975 950
Q 4950 1225 4350 1425
L 4350 1525
z
M 1550 750
L 2550 1100
L 2575 975
Q 775 200 550 -100
L 250 350
Q 550 425 1200 650
L 1200 2900
L 1100 2900
Q 775 2900 500 2825
L 275 3050
L 1200 3050
L 1200 4200
Q 1200 4550 1175 5050
L 1750 4775
L 1550 4600
L 1550 3050
L 1800 3050
L 2075 3325
L 2500 2900
L 1550 2900
L 1550 750
z
" transform="scale(0.015625)"/>
      <path id="SimSun-5740" d="M 4050 4175
Q 4050 4525 4025 5175
L 4625 4900
L 4400 4700
L 4400 2800
L 5200 2800
L 5525 3125
L 6000 2650
L 4400 2650
L 4400 -100
L 5200 -100
L 5575 275
L 6100 -250
L 2625 -250
Q 2300 -250 2025 -325
L 1800 -100
L 2900 -100
L 2900 2950
Q 2900 3250 2875 3600
L 3475 3275
L 3250 3100
L 3250 -100
L 4050 -100
L 4050 4175
z
M 1225 4400
Q 1225 4775 1200 5200
L 1825 4925
L 1600 4750
L 1600 3225
L 1975 3225
L 2250 3500
L 2675 3075
L 1600 3075
L 1600 900
L 2600 1250
L 2625 1150
Q 750 300 575 25
L 275 525
Q 800 625 1225 775
L 1225 3075
L 1100 3075
Q 775 3075 500 3000
L 275 3225
L 1225 3225
L 1225 4400
z
" transform="scale(0.015625)"/>
     </defs>
     <use xlink:href="#SimSun-4e94"/>
     <use xlink:href="#SimSun-62bd" x="100"/>
     <use xlink:href="#SimSun-5934" x="200"/>
     <use xlink:href="#SimSun-5730" x="300"/>
     <use xlink:href="#SimSun-5740" x="400"/>
    </g>
    <!-- VE/E/P/L/VL -->
    <g transform="translate(233.2 72.295312) scale(0.16 -0.16)">
     <defs>
      <path id="SimSun-56" d="M 2125 4225
L 2125 4375
L 3025 4375
L 3025 4225
L 2925 4225
Q 2825 4225 2737 4150
Q 2650 4075 2600 3875
L 1575 100
L 1425 100
L 500 3875
Q 475 4050 412 4137
Q 350 4225 225 4225
L 100 4225
L 100 4375
L 1175 4375
L 1175 4225
L 1075 4225
Q 950 4225 912 4150
Q 875 4075 900 3950
L 1600 1025
L 1650 1025
L 2400 3875
Q 2425 3975 2425 4025
Q 2425 4100 2387 4162
Q 2350 4225 2200 4225
L 2125 4225
z
M 825 4225
L 825 4225
z
M 425 4225
L 425 4225
z
M 2700 4225
L 2700 4225
z
M 2500 4225
L 2500 4225
z
" transform="scale(0.015625)"/>
      <path id="SimSun-45" d="M 200 4225
L 200 4375
L 2650 4375
L 2925 3525
L 2800 3475
Q 2600 3850 2375 4037
Q 2150 4225 1875 4225
L 1175 4225
Q 1075 4225 1012 4175
Q 950 4125 950 4025
L 950 2475
L 1675 2475
Q 1925 2475 2037 2600
Q 2150 2725 2150 2975
L 2150 3125
L 2300 3125
L 2300 1650
L 2150 1650
L 2150 1750
Q 2150 2025 2037 2175
Q 1925 2325 1675 2325
L 950 2325
L 950 450
Q 950 350 1012 300
Q 1075 250 1175 250
L 1825 250
Q 2200 250 2462 462
Q 2725 675 2875 1125
L 3000 1075
L 2725 100
L 175 100
L 175 250
L 325 250
Q 450 250 500 300
Q 550 350 550 450
L 550 4025
Q 550 4125 500 4175
Q 450 4225 325 4225
L 200 4225
z
" transform="scale(0.015625)"/>
      <path id="SimSun-2f" d="M 400 -475
L 225 -375
L 2775 4975
L 2950 4875
L 400 -475
z
" transform="scale(0.015625)"/>
      <path id="SimSun-50" d="M 950 2100
L 950 450
Q 950 350 1012 300
Q 1075 250 1175 250
L 1350 250
L 1350 100
L 150 100
L 150 250
L 325 250
Q 450 250 500 300
Q 550 350 550 450
L 550 4025
Q 550 4125 500 4175
Q 450 4225 325 4225
L 175 4225
L 175 4375
L 1650 4375
Q 2275 4375 2612 4062
Q 2950 3750 2950 3275
Q 2950 2700 2587 2400
Q 2225 2100 1725 2100
L 950 2100
z
M 1575 2250
Q 1950 2250 2237 2475
Q 2525 2700 2525 3250
Q 2525 3750 2287 3987
Q 2050 4225 1525 4225
L 1175 4225
Q 1075 4225 1012 4175
Q 950 4125 950 4025
L 950 2250
L 1575 2250
z
" transform="scale(0.015625)"/>
      <path id="SimSun-4c" d="M 1000 450
Q 1000 350 1062 300
Q 1125 250 1225 250
L 1900 250
Q 2250 250 2500 462
Q 2750 675 2875 1125
L 3000 1075
L 2775 100
L 200 100
L 200 250
L 375 250
Q 500 250 550 300
Q 600 350 600 450
L 600 4025
Q 600 4125 550 4175
Q 500 4225 375 4225
L 225 4225
L 225 4375
L 1400 4375
L 1400 4225
L 1225 4225
Q 1125 4225 1062 4175
Q 1000 4125 1000 4025
L 1000 450
z
" transform="scale(0.015625)"/>
     </defs>
     <use xlink:href="#SimSun-56"/>
     <use xlink:href="#SimSun-45" x="50"/>
     <use xlink:href="#SimSun-2f" x="100"/>
     <use xlink:href="#SimSun-45" x="150"/>
     <use xlink:href="#SimSun-2f" x="200"/>
     <use xlink:href="#SimSun-50" x="250"/>
     <use xlink:href="#SimSun-2f" x="300"/>
     <use xlink:href="#SimSun-4c" x="350"/>
     <use xlink:href="#SimSun-2f" x="400"/>
     <use xlink:href="#SimSun-56" x="450"/>
     <use xlink:href="#SimSun-4c" x="500"/>
    </g>
   </g>
   <g id="text_3">
    <!-- 并行读码与符号生成 -->
    <g transform="translate(428.4 52.6375) scale(0.16 -0.16)">
     <defs>
      <path id="SimSun-5e76" d="M 2575 3550
L 2575 1950
L 3950 1950
L 3950 3550
L 2575 3550
z
M 1850 5100
L 1925 5175
Q 2525 4800 2662 4600
Q 2800 4400 2762 4212
Q 2725 4025 2650 3975
Q 2575 3925 2550 3925
Q 2425 3925 2350 4250
Q 2225 4650 1850 5100
z
M 2225 1950
L 2225 3550
L 1650 3550
Q 1325 3550 1050 3475
L 825 3700
L 3600 3700
Q 4175 4850 4225 5200
L 4725 4850
L 4500 4750
L 3725 3700
L 5050 3700
L 5375 4025
L 5850 3550
L 4300 3550
L 4300 1950
L 5175 1950
L 5575 2350
L 6125 1800
L 4300 1800
Q 4300 150 4325 -475
L 3925 -625
Q 3950 100 3950 1800
L 2575 1800
Q 2425 -50 475 -650
L 425 -575
Q 2100 150 2225 1800
L 1225 1800
Q 900 1800 625 1725
L 400 1950
L 2225 1950
z
" transform="scale(0.015625)"/>
      <path id="SimSun-884c" d="M 2825 4550
L 4950 4550
L 5300 4875
L 5725 4400
L 3650 4400
Q 3325 4400 3050 4325
L 2825 4550
z
M 3050 100
Q 3725 50 3950 50
Q 4175 50 4175 350
L 4175 2900
L 3225 2900
Q 2900 2900 2625 2825
L 2400 3050
L 5275 3050
L 5650 3400
L 6075 2900
L 4525 2900
L 4525 225
Q 4550 -450 3900 -575
Q 3900 -225 3050 -25
L 3050 100
z
M 1825 5175
L 2275 4825
Q 2100 4775 1675 4300
Q 1250 3800 600 3325
L 550 3400
Q 975 3800 1337 4312
Q 1700 4825 1825 5175
z
M 1875 2325
L 1875 -400
L 1500 -625
Q 1525 -75 1525 2425
Q 950 1825 400 1450
L 350 1525
Q 875 2050 1362 2700
Q 1850 3350 2100 3950
L 2525 3575
L 2300 3450
Q 1975 2975 1750 2700
L 2025 2475
L 1875 2325
z
" transform="scale(0.015625)"/>
      <path id="SimSun-8bfb" d="M 1450 275
L 2375 850
L 2425 775
Q 1600 50 1325 -325
L 1025 50
Q 1125 175 1125 400
L 1125 2850
L 1050 2850
Q 725 2850 450 2775
L 225 3000
L 1125 3000
L 1350 3225
L 1675 2900
L 1450 2725
L 1450 275
z
M 750 4925
L 800 5000
Q 1150 4800 1387 4600
Q 1625 4400 1587 4200
Q 1550 4000 1400 3925
Q 1250 3850 1175 4200
Q 1100 4525 750 4925
z
M 5100 2700
L 5425 3325
L 2575 3325
Q 2375 3325 2100 3250
L 1875 3475
L 3650 3475
L 3650 4250
L 3025 4250
Q 2700 4250 2425 4175
L 2200 4400
L 3650 4400
Q 3650 4825 3625 5250
L 4175 5000
L 3975 4825
L 3975 4400
L 4875 4400
L 5150 4675
L 5550 4250
L 3975 4250
L 3975 3475
L 5375 3475
L 5625 3750
L 6075 3300
Q 5725 3275 5200 2650
L 5100 2700
z
M 2750 2925
L 2775 3000
Q 3350 2825 3462 2687
Q 3575 2550 3575 2450
Q 3575 2350 3512 2250
Q 3450 2150 3425 2150
Q 3350 2150 3275 2350
Q 3125 2625 2750 2925
z
M 2375 2275
Q 2975 2075 3100 1950
Q 3225 1825 3225 1700
Q 3225 1625 3162 1512
Q 3100 1400 3075 1400
Q 3000 1400 2900 1625
Q 2725 1925 2350 2200
L 2375 2275
z
M 4475 2625
Q 4425 1550 4350 1175
L 5275 1175
L 5600 1500
L 6050 1025
L 4325 1025
Q 4250 825 4125 575
Q 4850 350 5200 150
Q 5550 -50 5600 -237
Q 5650 -425 5587 -500
Q 5525 -575 5475 -575
Q 5350 -575 5175 -325
Q 4925 25 4075 475
Q 3425 -425 1975 -650
L 1950 -550
Q 3600 -100 3975 1025
L 2700 1025
Q 2500 1025 2225 950
L 2000 1175
L 4000 1175
Q 4100 1800 4100 3075
L 4675 2800
L 4475 2625
z
" transform="scale(0.015625)"/>
      <path id="SimSun-4e0e" d="M 375 1250
L 3750 1250
L 4075 1575
L 4550 1100
L 1175 1100
Q 875 1100 600 1025
L 375 1250
z
M 1700 2600
Q 1800 4125 1812 4450
Q 1825 4775 1825 5200
L 2400 4925
L 2200 4775
L 2150 3850
L 5075 3850
L 5400 4175
L 5875 3700
L 2150 3700
L 2075 2525
L 5025 2525
L 5225 2825
L 5675 2500
L 5450 2300
Q 5400 1375 5300 687
Q 5200 0 4937 -237
Q 4675 -475 4250 -575
Q 4275 -250 3425 0
L 3450 125
Q 4000 0 4400 0
Q 4800 0 4925 737
Q 5050 1475 5075 2375
L 2100 2375
L 1900 2125
L 1500 2425
L 1700 2600
z
" transform="scale(0.015625)"/>
      <path id="SimSun-7b26" d="M 1575 5200
L 2075 4900
L 1875 4775
L 1575 4375
L 2800 4375
L 3050 4625
L 3450 4225
L 2150 4225
Q 2550 4000 2625 3887
Q 2700 3775 2700 3725
Q 2700 3625 2600 3512
Q 2500 3400 2475 3400
Q 2425 3400 2400 3525
Q 2325 3725 2250 3887
Q 2175 4050 2025 4225
L 1500 4225
Q 1275 3925 1087 3737
Q 900 3550 475 3200
L 400 3275
Q 900 3800 1150 4262
Q 1400 4725 1575 5200
z
M 4000 4225
Q 3775 3900 3575 3662
Q 3375 3425 3100 3175
L 3000 3250
Q 3475 3825 3687 4250
Q 3900 4675 4075 5250
L 4575 4900
L 4350 4800
L 4075 4375
L 5375 4375
L 5650 4625
L 6025 4225
L 4750 4225
Q 5075 4000 5150 3875
Q 5225 3750 5225 3700
Q 5225 3625 5125 3500
Q 5025 3375 4975 3375
Q 4950 3375 4925 3475
Q 4875 3625 4800 3825
Q 4725 4025 4575 4225
L 4000 4225
z
M 1775 1925
L 1775 75
Q 1775 -200 1800 -450
L 1425 -650
Q 1450 25 1450 400
L 1450 2025
Q 875 1450 350 1150
L 300 1225
Q 975 1800 1375 2362
Q 1775 2925 2025 3500
L 2500 3100
L 2250 3025
Q 1925 2550 1700 2275
L 1950 2050
L 1775 1925
z
M 4550 2525
Q 4550 3000 4525 3350
L 5050 3075
L 4875 2900
L 4875 2525
L 5425 2525
L 5725 2825
L 6150 2375
L 4875 2375
L 4875 25
Q 4875 -300 4750 -412
Q 4625 -525 4350 -650
Q 4225 -300 3525 -125
L 3525 -25
Q 4350 -125 4450 -100
Q 4550 -75 4550 75
L 4550 2375
L 3075 2375
Q 2750 2375 2475 2300
L 2250 2525
L 4550 2525
z
M 2800 2050
Q 3275 1700 3462 1487
Q 3650 1275 3637 1112
Q 3625 950 3550 862
Q 3475 775 3387 775
Q 3300 775 3250 1025
Q 3175 1275 3050 1512
Q 2925 1750 2750 1975
L 2800 2050
z
" transform="scale(0.015625)"/>
      <path id="SimSun-53f7" d="M 4800 4675
Q 4800 3550 4825 3225
L 4450 3075
L 4450 3325
L 1950 3325
L 1950 3100
L 1575 2975
Q 1600 3475 1600 4037
Q 1600 4600 1575 5100
L 1950 4900
L 4425 4900
L 4650 5150
L 5000 4850
L 4800 4675
z
M 1950 4750
L 1950 3475
L 4450 3475
L 4450 4750
L 1950 4750
z
M 4950 1375
Q 4725 75 4550 -125
Q 4375 -325 4200 -412
Q 4025 -500 3625 -600
Q 3575 -225 2850 75
L 2875 175
Q 3550 -25 3875 -25
Q 4000 -25 4187 50
Q 4375 125 4575 1500
L 2275 1500
L 2050 1300
L 1750 1650
Q 1925 1750 2037 1975
Q 2150 2200 2250 2550
L 825 2550
L 600 2500
L 400 2700
L 5225 2700
L 5550 3025
L 6000 2550
L 2675 2550
L 2325 1650
L 4550 1650
L 4825 1925
L 5200 1550
L 4950 1375
z
" transform="scale(0.015625)"/>
      <path id="SimSun-751f" d="M 1575 4825
L 2150 4500
Q 1900 4375 1550 3575
L 3025 3575
Q 3025 4725 3000 5250
L 3600 5000
L 3400 4825
L 3400 3575
L 4825 3575
L 5200 3950
L 5675 3425
L 3400 3425
L 3400 1875
L 4525 1875
L 4925 2250
L 5375 1725
L 3400 1725
L 3400 -75
L 5200 -75
L 5600 325
L 6100 -225
L 1125 -225
Q 800 -225 525 -300
L 300 -75
L 3025 -75
L 3025 1725
L 2075 1725
Q 1750 1725 1475 1650
L 1250 1875
L 3025 1875
L 3025 3425
L 1500 3425
Q 925 2350 475 1900
L 400 1950
Q 825 2600 1125 3375
Q 1425 4150 1575 4825
z
" transform="scale(0.015625)"/>
      <path id="SimSun-6210" d="M 4325 5075
Q 4850 4775 5025 4612
Q 5200 4450 5162 4287
Q 5125 4125 5025 4062
Q 4925 4000 4900 4000
Q 4800 4000 4750 4200
Q 4675 4475 4250 5000
L 4325 5075
z
M 5625 100
L 5925 1175
L 6025 1150
Q 5925 375 5925 125
Q 5925 -125 6050 -350
Q 6100 -450 6000 -450
Q 5825 -450 5350 -275
Q 4875 -100 4250 675
Q 3475 -125 2550 -525
L 2525 -425
Q 3525 225 4050 950
Q 3550 1875 3400 3650
L 1425 3650
L 1400 2450
L 2550 2450
L 2775 2700
L 3150 2350
L 2925 2175
Q 2850 675 2725 437
Q 2600 200 2250 50
Q 2175 400 1575 625
L 1575 725
Q 2050 650 2237 625
Q 2425 600 2475 837
Q 2525 1075 2575 2300
L 1400 2300
Q 1325 225 350 -600
L 300 -525
Q 950 400 987 1462
Q 1025 2525 1025 3075
Q 1025 3625 1000 4025
L 1450 3800
L 3375 3800
Q 3300 4625 3250 5150
L 3900 4900
L 3725 4700
Q 3725 4300 3775 3800
L 5150 3800
L 5500 4150
L 6000 3650
L 3775 3650
Q 3925 2000 4300 1325
Q 4500 1625 4700 2100
Q 4900 2575 5100 3175
L 5625 2775
L 5400 2650
Q 4975 1625 4525 975
Q 5050 350 5625 100
z
" transform="scale(0.015625)"/>
     </defs>
     <use xlink:href="#SimSun-5e76"/>
     <use xlink:href="#SimSun-884c" x="100"/>
     <use xlink:href="#SimSun-8bfb" x="200"/>
     <use xlink:href="#SimSun-7801" x="300"/>
     <use xlink:href="#SimSun-4e0e" x="400"/>
     <use xlink:href="#SimSun-7b26" x="500"/>
     <use xlink:href="#SimSun-53f7" x="600"/>
     <use xlink:href="#SimSun-751f" x="700"/>
     <use xlink:href="#SimSun-6210" x="800"/>
    </g>
    <!-- 最多6个独立读口 -->
    <g transform="translate(440.4 73.1875) scale(0.16 -0.16)">
     <defs>
      <path id="SimSun-6700" d="M 1550 2725
L 1550 2200
L 2725 2200
L 2725 2725
L 1550 2725
z
M 1550 2050
L 1550 1475
L 2725 1475
L 2725 2050
L 1550 2050
z
M 1550 1325
L 1550 525
L 2725 725
L 2725 1325
L 1550 1325
z
M 3800 2125
Q 3900 1775 4075 1425
Q 4250 1075 4450 850
Q 4650 1150 4812 1475
Q 4975 1800 5100 2125
L 3800 2125
z
M 325 2875
L 5100 2875
L 5500 3275
L 6050 2725
L 3050 2725
L 3050 800
L 3775 950
L 3800 850
L 3050 625
L 3050 -450
L 2725 -650
L 2725 525
Q 1325 175 1025 62
Q 725 -50 675 -150
L 375 325
Q 725 375 1200 450
L 1200 2725
L 850 2725
L 525 2675
L 325 2875
z
M 3150 2275
L 5075 2275
L 5275 2525
L 5675 2175
L 5450 2050
Q 5075 1200 4650 625
Q 5050 250 5350 100
Q 5650 -50 6075 -75
L 6075 -175
Q 5675 -225 5575 -475
Q 5300 -350 5025 -137
Q 4750 75 4450 400
Q 3950 -100 3125 -575
L 3050 -500
Q 3775 0 4275 600
Q 4050 950 3912 1312
Q 3775 1675 3675 2125
L 3350 2075
L 3150 2275
z
M 1900 4800
L 1900 4250
L 4600 4250
L 4600 4800
L 1900 4800
z
M 1900 4100
L 1900 3550
L 4600 3550
L 4600 4100
L 1900 4100
z
M 1525 5150
L 1900 4950
L 4550 4950
L 4725 5225
L 5150 4925
L 4950 4750
Q 4950 3525 4975 3275
L 4600 3100
L 4600 3400
L 1900 3400
L 1900 3200
L 1525 3075
Q 1550 3550 1550 4112
Q 1550 4675 1525 5150
z
" transform="scale(0.015625)"/>
      <path id="SimSun-591a" d="M 2750 4225
L 2450 4050
Q 2975 3750 3050 3625
Q 3125 3500 3125 3400
Q 3125 3275 3025 3162
Q 2925 3050 2900 3050
Q 2825 3050 2775 3250
Q 2700 3525 2375 4000
Q 2050 3800 1662 3600
Q 1275 3400 775 3200
L 725 3300
Q 1700 3775 2312 4312
Q 2925 4850 3150 5225
L 3575 4850
L 3350 4775
L 2875 4375
L 4800 4375
L 5075 4650
L 5525 4200
L 5250 4100
Q 4525 3425 3487 2837
Q 2450 2250 600 2000
L 575 2100
Q 1800 2325 2850 2800
Q 3900 3275 4800 4225
L 2750 4225
z
M 3400 2750
L 3825 2350
L 3575 2275
Q 3500 2200 3175 1950
L 5125 1950
L 5375 2200
L 5800 1775
L 5525 1650
Q 4275 350 3050 -75
Q 1825 -500 550 -600
L 550 -500
Q 1950 -300 3087 200
Q 4225 700 5125 1800
L 3050 1800
Q 2175 1150 975 725
L 925 825
Q 1675 1200 2287 1637
Q 2900 2075 3400 2750
z
M 2625 1475
Q 3075 1125 3150 962
Q 3225 800 3225 725
Q 3225 575 3112 462
Q 3000 350 2950 350
Q 2850 350 2825 575
Q 2775 925 2550 1400
L 2625 1475
z
" transform="scale(0.015625)"/>
      <path id="SimSun-36" d="M 775 1800
Q 775 1050 1037 637
Q 1300 225 1675 225
Q 2050 225 2250 500
Q 2450 775 2450 1525
Q 2450 2025 2237 2300
Q 2025 2575 1725 2575
Q 1450 2575 1212 2412
Q 975 2250 775 1800
z
M 1750 2825
Q 2350 2825 2612 2425
Q 2875 2025 2875 1525
Q 2875 775 2512 412
Q 2150 50 1675 50
Q 1000 50 650 562
Q 300 1075 300 2050
Q 300 3200 725 3812
Q 1150 4425 1875 4425
Q 2225 4425 2437 4225
Q 2650 4025 2650 3875
Q 2650 3725 2587 3650
Q 2525 3575 2375 3575
Q 2250 3575 2187 3637
Q 2125 3700 2125 3825
Q 2125 3875 2150 3925
Q 2150 3975 2150 4025
Q 2150 4125 2075 4187
Q 2000 4250 1800 4250
Q 1375 4250 1075 3862
Q 775 3475 775 2175
Q 925 2500 1187 2662
Q 1450 2825 1750 2825
z
" transform="scale(0.015625)"/>
      <path id="SimSun-4e2a" d="M 2975 -650
Q 3000 350 3000 750
L 3000 2400
Q 3000 2850 2975 3475
L 3575 3150
L 3375 3000
L 3375 500
Q 3375 75 3400 -400
L 2975 -650
z
M 3525 4975
L 3300 4825
Q 3975 3800 4712 3287
Q 5450 2775 6125 2675
L 6125 2575
Q 5725 2550 5550 2250
Q 4800 2650 4275 3200
Q 3750 3750 3225 4675
Q 2650 3675 2000 3075
Q 1350 2475 275 2025
L 250 2125
Q 1325 2650 2037 3575
Q 2750 4500 3000 5275
L 3525 4975
z
" transform="scale(0.015625)"/>
      <path id="SimSun-72ec" d="M 4375 300
L 5475 450
Q 5350 700 5000 1125
L 5075 1200
Q 5900 550 5975 337
Q 6050 125 6050 0
Q 6050 -150 5962 -250
Q 5875 -350 5825 -350
Q 5775 -350 5725 -225
Q 5650 0 5525 325
Q 4475 100 3675 -87
Q 2875 -275 2700 -400
L 2475 125
Q 3075 150 4025 250
L 4025 1750
L 3175 1750
L 3175 1475
L 2800 1275
Q 2825 1950 2825 2637
Q 2825 3325 2800 4000
L 3175 3750
L 4025 3750
Q 4025 4800 4000 5200
L 4550 4925
L 4375 4750
L 4375 3750
L 5175 3750
L 5425 4000
L 5800 3625
L 5575 3475
Q 5575 2000 5600 1575
L 5225 1375
L 5225 1750
L 4375 1750
L 4375 300
z
M 3175 3600
L 3175 1900
L 4025 1900
L 4025 3600
L 3175 3600
z
M 4375 3600
L 4375 1900
L 5225 1900
L 5225 3600
L 4375 3600
z
M 625 4875
Q 1275 4525 1700 4125
Q 2175 4800 2275 5100
L 2725 4800
Q 2600 4725 2362 4462
Q 2125 4200 1875 3875
Q 2300 2925 2312 1750
Q 2325 575 2150 150
Q 1975 -275 1450 -525
Q 1350 -200 850 -25
L 850 75
Q 1175 0 1375 0
Q 1525 0 1662 62
Q 1800 125 1887 650
Q 1975 1175 1925 2525
Q 1300 1450 275 775
L 250 875
Q 1200 1775 1800 3000
Q 1725 3375 1625 3675
Q 1075 3150 375 2800
L 325 2875
Q 1000 3375 1500 3925
Q 1075 4425 575 4800
L 625 4875
z
" transform="scale(0.015625)"/>
      <path id="SimSun-7acb" d="M 2600 5225
Q 3200 4925 3337 4762
Q 3475 4600 3475 4450
Q 3475 4325 3375 4162
Q 3275 4000 3225 4000
Q 3125 4000 3050 4275
Q 2925 4700 2550 5150
L 2600 5225
z
M 650 3900
L 4925 3900
L 5300 4275
L 5800 3750
L 1475 3750
Q 1150 3750 875 3675
L 650 3900
z
M 1800 3225
Q 2425 2275 2575 1900
Q 2725 1525 2725 1275
Q 2725 1175 2687 1012
Q 2650 850 2487 750
Q 2325 650 2300 1050
Q 2250 1450 2112 1987
Q 1975 2525 1700 3175
L 1800 3225
z
M 4625 2925
Q 4100 1350 3575 150
L 5275 150
L 5650 550
L 6150 0
L 1075 0
Q 750 0 475 -75
L 250 150
L 3400 150
Q 4125 2250 4225 3475
L 4900 3100
L 4625 2925
z
" transform="scale(0.015625)"/>
      <path id="SimSun-53e3" d="M 5250 1550
Q 5250 750 5275 275
L 4900 100
L 4900 675
L 1600 675
L 1600 125
L 1225 -50
Q 1250 800 1250 2325
Q 1250 3850 1225 4475
L 1625 4225
L 4850 4225
L 5050 4500
L 5450 4150
L 5250 4000
L 5250 1550
z
M 1600 4075
L 1600 825
L 4900 825
L 4900 4075
L 1600 4075
z
" transform="scale(0.015625)"/>
     </defs>
     <use xlink:href="#SimSun-6700"/>
     <use xlink:href="#SimSun-591a" x="100"/>
     <use xlink:href="#SimSun-36" x="200"/>
     <use xlink:href="#SimSun-4e2a" x="250"/>
     <use xlink:href="#SimSun-72ec" x="350"/>
     <use xlink:href="#SimSun-7acb" x="450"/>
     <use xlink:href="#SimSun-8bfb" x="550"/>
     <use xlink:href="#SimSun-53e3" x="650"/>
    </g>
   </g>
   <g id="text_4">
    <!-- 基带SRAM读取 -->
    <g transform="translate(45.6 212.8375) scale(0.16 -0.16)">
     <defs>
      <path id="SimSun-57fa" d="M 2925 875
Q 2925 1500 2900 1975
L 3475 1700
L 3250 1550
L 3250 875
L 3925 875
L 4225 1175
L 4675 725
L 3250 725
L 3250 -200
L 4825 -200
L 5200 175
L 5725 -350
L 1400 -350
Q 1075 -350 800 -425
L 575 -200
L 2925 -200
L 2925 725
L 2075 725
L 1800 675
L 1600 875
L 2925 875
z
M 4100 4400
Q 4100 4850 4075 5225
L 4650 4975
L 4450 4800
L 4450 4400
L 5025 4400
L 5350 4725
L 5825 4250
L 4450 4250
L 4450 2225
L 5050 2225
L 5475 2650
L 6050 2075
L 4000 2075
Q 4425 1575 5000 1350
Q 5575 1125 6125 1075
L 6125 975
Q 5725 900 5675 650
Q 5025 900 4550 1262
Q 4075 1625 3850 2075
L 2500 2075
Q 2125 1475 1525 1062
Q 925 650 275 450
L 250 550
Q 1000 900 1437 1312
Q 1875 1725 2050 2075
L 1125 2075
Q 800 2075 525 2000
L 300 2225
L 1875 2225
L 1875 4250
L 1075 4250
L 800 4200
L 600 4400
L 1875 4400
Q 1875 4800 1850 5200
L 2425 4925
L 2225 4750
L 2225 4400
L 4100 4400
z
M 2225 4250
L 2225 3675
L 4100 3675
L 4100 4250
L 2225 4250
z
M 2225 3525
L 2225 2950
L 4100 2950
L 4100 3525
L 2225 3525
z
M 2225 2800
L 2225 2225
L 4100 2225
L 4100 2800
L 2225 2800
z
" transform="scale(0.015625)"/>
      <path id="SimSun-5e26" d="M 1800 3200
Q 1825 3525 1825 4025
L 975 4025
L 750 3975
L 550 4175
L 1825 4175
Q 1825 4750 1800 5175
L 2325 4900
L 2150 4725
L 2150 4175
L 3075 4175
Q 3075 4775 3050 5200
L 3575 4925
L 3400 4775
L 3400 4175
L 4300 4175
Q 4300 4750 4275 5175
L 4800 4900
L 4625 4750
L 4625 4175
L 5075 4175
L 5425 4525
L 5925 4025
L 4625 4025
Q 4625 3625 4650 3350
L 4275 3200
Q 4300 3600 4300 4025
L 3400 4025
Q 3400 3650 3425 3375
L 3050 3225
Q 3075 3625 3075 4025
L 2150 4025
Q 2150 3700 2175 3350
L 1800 3200
z
M 3400 1850
Q 3400 -25 3425 -500
L 3050 -650
Q 3075 -50 3075 1850
L 1850 1850
L 1850 25
L 1500 -175
Q 1525 500 1525 1062
Q 1525 1625 1500 2175
L 1850 2000
L 3075 2000
L 3075 2800
L 1075 2800
Q 1100 2325 925 2225
Q 750 2125 650 2125
Q 550 2125 487 2187
Q 425 2250 425 2300
Q 425 2375 600 2500
Q 850 2675 975 3250
L 1075 3250
L 1075 2950
L 5400 2950
L 5625 3225
L 6075 2750
Q 5725 2725 5175 2175
L 5100 2225
L 5425 2800
L 3400 2800
L 3400 2000
L 4600 2000
L 4825 2250
L 5225 1925
L 5000 1750
L 5000 425
Q 5025 0 4500 -200
Q 4500 50 3775 300
L 3775 425
Q 4300 350 4487 350
Q 4675 350 4675 525
L 4675 1850
L 3400 1850
z
" transform="scale(0.015625)"/>
      <path id="SimSun-53" d="M 1500 2150
Q 825 2450 575 2675
Q 325 2900 325 3375
Q 325 3750 637 4087
Q 950 4425 1525 4425
Q 1775 4425 2000 4350
Q 2225 4250 2325 4250
Q 2400 4250 2462 4287
Q 2525 4325 2575 4425
L 2675 3400
L 2550 3350
Q 2325 3875 2087 4062
Q 1850 4250 1475 4250
Q 1000 4250 825 3987
Q 650 3725 650 3425
Q 650 3150 812 2987
Q 975 2825 1700 2500
Q 2300 2250 2562 1937
Q 2825 1625 2825 1200
Q 2825 750 2512 400
Q 2200 50 1600 50
Q 1350 50 1150 150
Q 925 225 800 225
Q 725 225 650 175
Q 575 125 475 50
L 275 1275
L 425 1325
Q 600 700 912 462
Q 1225 225 1625 225
Q 2050 225 2262 475
Q 2475 725 2475 1200
Q 2475 1450 2237 1687
Q 2000 1925 1500 2150
z
" transform="scale(0.015625)"/>
      <path id="SimSun-52" d="M 2825 3375
Q 2825 2875 2550 2600
Q 2275 2325 1925 2275
L 2675 425
Q 2725 325 2787 287
Q 2850 250 2925 250
L 3075 250
L 3075 100
L 2375 100
L 1550 2250
L 975 2250
L 975 450
Q 975 350 1037 300
Q 1100 250 1200 250
L 1350 250
L 1350 100
L 200 100
L 200 250
L 350 250
Q 475 250 525 300
Q 575 350 575 450
L 575 4025
Q 575 4125 525 4175
Q 475 4225 350 4225
L 200 4225
L 200 4375
L 1625 4375
Q 2200 4375 2512 4125
Q 2825 3875 2825 3375
z
M 2750 250
L 2750 250
z
M 975 2400
L 1525 2400
Q 1900 2400 2150 2625
Q 2400 2850 2400 3325
Q 2400 3750 2175 3987
Q 1950 4225 1475 4225
L 1200 4225
Q 1100 4225 1037 4175
Q 975 4125 975 4025
L 975 2400
z
" transform="scale(0.015625)"/>
      <path id="SimSun-41" d="M 2025 1700
L 900 1700
L 675 750
Q 650 625 650 550
Q 650 450 687 350
Q 725 250 900 250
L 975 250
L 975 100
L 50 100
L 50 250
L 125 250
Q 225 250 300 312
Q 375 375 400 525
L 1375 4350
L 1750 4475
L 2700 525
Q 2750 375 2825 312
Q 2900 250 3000 250
L 3075 250
L 3075 100
L 2000 100
L 2000 250
L 2100 250
Q 2250 250 2275 312
Q 2300 375 2300 425
Q 2300 525 2275 600
L 2025 1700
z
M 325 250
L 325 250
z
M 575 250
L 575 250
z
M 2350 250
L 2350 250
z
M 2775 250
L 2775 250
z
M 1500 3925
L 1475 3925
L 950 1850
L 2000 1850
L 1500 3925
z
" transform="scale(0.015625)"/>
      <path id="SimSun-4d" d="M 2800 450
Q 2800 350 2862 300
Q 2925 250 3025 250
L 3125 250
L 3125 100
L 2050 100
L 2050 250
L 2175 250
Q 2300 250 2350 300
Q 2400 350 2400 450
L 2400 3725
L 2350 3725
L 1500 100
L 1350 100
L 575 3650
L 525 3650
L 525 450
Q 525 350 587 300
Q 650 250 750 250
L 825 250
L 825 100
L 75 100
L 75 250
L 150 250
Q 275 250 325 300
Q 375 350 375 450
L 375 4025
Q 375 4125 325 4175
Q 275 4225 150 4225
L 50 4225
L 50 4375
L 775 4375
L 1500 1025
L 1550 1025
L 2325 4375
L 3125 4375
L 3125 4225
L 3025 4225
Q 2925 4225 2862 4175
Q 2800 4125 2800 4025
L 2800 450
z
" transform="scale(0.015625)"/>
      <path id="SimSun-53d6" d="M 1300 2225
L 1300 1125
L 2425 1350
L 2425 2225
L 1300 2225
z
M 2750 1225
Q 2750 100 2775 -350
L 2400 -575
Q 2425 125 2425 1150
Q 775 700 575 425
L 325 925
Q 625 975 975 1050
L 975 4650
L 775 4650
L 525 4600
L 325 4800
L 2675 4800
L 2975 5100
L 3425 4650
L 2750 4650
L 2750 1425
L 3500 1575
L 3525 1475
L 2750 1225
z
M 1300 4650
L 1300 3600
L 2425 3600
L 2425 4650
L 1300 4650
z
M 2425 3450
L 1300 3450
L 1300 2375
L 2425 2375
L 2425 3450
z
M 2925 4175
L 5050 4175
L 5250 4425
L 5700 4075
L 5475 3925
Q 5100 2350 4550 1275
Q 5200 375 6100 125
L 6100 25
Q 5775 -25 5600 -275
Q 4875 225 4375 975
Q 3700 25 2825 -525
L 2775 -450
Q 3650 325 4175 1250
Q 3650 2625 3525 4025
L 3350 4025
L 3125 3975
L 2925 4175
z
M 3650 4025
Q 3900 2525 4350 1600
Q 4825 2650 5075 4025
L 3650 4025
z
" transform="scale(0.015625)"/>
     </defs>
     <use xlink:href="#SimSun-57fa"/>
     <use xlink:href="#SimSun-5e26" x="100"/>
     <use xlink:href="#SimSun-53" x="200"/>
     <use xlink:href="#SimSun-52" x="250"/>
     <use xlink:href="#SimSun-41" x="300"/>
     <use xlink:href="#SimSun-4d" x="350"/>
     <use xlink:href="#SimSun-8bfb" x="400"/>
     <use xlink:href="#SimSun-53d6" x="500"/>
    </g>
    <!-- 每点只读一次I/Q -->
    <g transform="translate(33.6 233.3875) scale(0.16 -0.16)">
     <defs>
      <path id="SimSun-6bcf" d="M 2375 4950
L 2175 4850
Q 2025 4650 1900 4475
L 4875 4475
L 5250 4850
L 5775 4325
L 1825 4325
Q 1500 3900 1175 3562
Q 850 3225 325 2900
L 275 2975
Q 750 3375 1200 4037
Q 1650 4700 1825 5275
L 2375 4950
z
M 1300 775
L 1475 2075
L 825 2075
L 450 2025
L 250 2225
L 1500 2225
L 1650 3825
L 2000 3600
L 4600 3600
L 4800 3875
L 5225 3550
L 5000 3375
L 4950 2225
L 5275 2225
L 5625 2575
L 6125 2075
L 4950 2075
L 4875 675
L 5150 675
L 5500 1025
L 6000 525
L 4850 525
Q 4800 -50 4675 -300
Q 4550 -550 4075 -650
Q 4100 -350 3425 -100
L 3425 25
Q 4050 -125 4237 -125
Q 4425 -125 4475 525
L 1650 525
L 1450 300
L 1100 625
L 1300 775
z
M 1975 3450
L 1850 2225
L 4600 2225
L 4650 3450
L 1975 3450
z
M 1825 2075
L 1650 675
L 4500 675
L 4575 2075
L 1825 2075
z
M 2725 3350
Q 3225 3150 3412 3025
Q 3600 2900 3600 2725
Q 3600 2600 3525 2450
Q 3450 2300 3425 2300
Q 3350 2300 3250 2525
Q 3100 2875 2675 3275
L 2725 3350
z
M 2675 1950
Q 3275 1675 3412 1525
Q 3550 1375 3550 1250
Q 3550 1100 3462 950
Q 3375 800 3325 800
Q 3250 800 3175 1050
Q 3050 1425 2625 1875
L 2675 1950
z
" transform="scale(0.015625)"/>
      <path id="SimSun-53ea" d="M 2450 1850
L 2975 1450
L 2725 1350
Q 1475 -150 675 -550
L 625 -475
Q 1325 125 1775 737
Q 2225 1350 2450 1850
z
M 3725 1700
L 3775 1775
Q 4475 1325 4975 887
Q 5475 450 5475 100
Q 5475 -25 5400 -225
Q 5325 -425 5275 -425
Q 5200 -425 5125 -225
Q 4950 150 4625 625
Q 4300 1100 3725 1700
z
M 1925 4650
L 1925 2375
L 4600 2375
L 4600 4650
L 1925 4650
z
M 4950 2850
Q 4950 2475 4975 1975
L 4600 1825
L 4600 2225
L 1925 2225
L 1925 1850
L 1525 1700
Q 1575 2450 1575 3400
Q 1575 4350 1550 5050
L 1950 4800
L 4550 4800
L 4725 5075
L 5150 4775
L 4950 4575
L 4950 2850
z
" transform="scale(0.015625)"/>
      <path id="SimSun-4e00" d="M 350 2650
L 5000 2650
L 5500 3050
L 6050 2500
L 1250 2500
Q 850 2500 575 2425
L 350 2650
z
" transform="scale(0.015625)"/>
      <path id="SimSun-6b21" d="M 4875 2725
L 5275 3600
L 3225 3600
Q 3025 3250 2800 2887
Q 2575 2525 2075 2025
L 2000 2100
Q 2575 2825 2925 3750
Q 3275 4675 3350 5225
L 3950 4925
Q 3750 4825 3650 4600
Q 3550 4375 3275 3750
L 5250 3750
L 5525 4025
L 5975 3550
Q 5725 3500 5550 3350
Q 5375 3200 4950 2675
L 4875 2725
z
M 4050 2900
Q 3900 1225 3175 437
Q 2450 -350 1450 -650
L 1400 -575
Q 2675 0 3175 912
Q 3675 1825 3700 3400
L 4275 3100
L 4125 2975
Q 4300 1700 4812 912
Q 5325 125 6150 -175
L 6125 -250
Q 5750 -225 5575 -500
Q 4950 -25 4537 825
Q 4125 1675 4050 2900
z
M 750 4950
Q 1275 4675 1487 4450
Q 1700 4225 1700 4075
Q 1700 3925 1587 3775
Q 1475 3625 1450 3625
Q 1350 3625 1275 3950
Q 1150 4400 700 4875
L 750 4950
z
M 425 1650
Q 600 1625 750 1625
Q 975 1625 1100 1725
Q 1225 1825 2275 4300
L 2375 4250
Q 1400 1700 1350 1600
Q 1300 1500 1300 1187
Q 1300 875 1375 350
Q 1450 -200 1212 -175
Q 975 -150 925 -25
Q 875 100 875 200
Q 875 300 925 575
Q 1000 975 975 1187
Q 950 1400 425 1550
L 425 1650
z
" transform="scale(0.015625)"/>
      <path id="SimSun-49" d="M 600 4225
L 600 4375
L 2600 4375
L 2600 4225
L 2025 4225
Q 1925 4225 1862 4175
Q 1800 4125 1800 4025
L 1800 450
Q 1800 350 1862 300
Q 1925 250 2025 250
L 2600 250
L 2600 100
L 600 100
L 600 250
L 1175 250
Q 1300 250 1350 300
Q 1400 350 1400 450
L 1400 4025
Q 1400 4125 1350 4175
Q 1300 4225 1175 4225
L 600 4225
z
" transform="scale(0.015625)"/>
      <path id="SimSun-51" d="M 1850 275
Q 1775 650 1675 887
Q 1575 1125 1375 1125
Q 1275 1125 1137 1025
Q 1000 925 1000 700
Q 1000 525 1175 387
Q 1350 250 1600 250
Q 1700 250 1762 250
Q 1825 250 1850 275
z
M 1425 1375
Q 1725 1375 1887 1162
Q 2050 950 2175 525
Q 2350 650 2437 1087
Q 2525 1525 2525 2250
Q 2525 3225 2312 3737
Q 2100 4250 1600 4250
Q 1175 4250 925 3750
Q 675 3250 675 2250
Q 675 1750 712 1412
Q 750 1075 825 925
Q 925 1150 1050 1262
Q 1175 1375 1425 1375
z
M 1600 75
Q 1050 75 625 575
Q 200 1075 200 2250
Q 200 3250 575 3837
Q 950 4425 1600 4425
Q 2200 4425 2600 3862
Q 3000 3300 3000 2250
Q 3000 1375 2787 925
Q 2575 475 2275 250
Q 2325 75 2400 0
Q 2475 -75 2550 -75
Q 2650 -75 2725 -25
Q 2800 25 2825 150
L 2925 100
Q 2850 -200 2725 -337
Q 2600 -475 2425 -475
Q 2300 -475 2187 -400
Q 2075 -325 1900 100
Q 1875 75 1800 75
Q 1725 75 1600 75
z
" transform="scale(0.015625)"/>
     </defs>
     <use xlink:href="#SimSun-6bcf"/>
     <use xlink:href="#SimSun-70b9" x="100"/>
     <use xlink:href="#SimSun-53ea" x="200"/>
     <use xlink:href="#SimSun-8bfb" x="300"/>
     <use xlink:href="#SimSun-4e00" x="400"/>
     <use xlink:href="#SimSun-6b21" x="500"/>
     <use xlink:href="#SimSun-49" x="600"/>
     <use xlink:href="#SimSun-2f" x="650"/>
     <use xlink:href="#SimSun-51" x="700"/>
    </g>
   </g>
   <g id="text_5">
    <!-- 样点广播 -->
    <g transform="translate(245.2 212.882812) scale(0.16 -0.16)">
     <defs>
      <path id="SimSun-6837" d="M 2800 5025
L 2850 5100
Q 3625 4675 3700 4512
Q 3775 4350 3775 4300
Q 3775 4175 3675 4037
Q 3575 3900 3550 3900
Q 3450 3900 3375 4125
Q 3250 4475 2800 5025
z
M 4275 1325
Q 4275 75 4300 -475
L 3900 -625
Q 3925 275 3925 1325
L 3075 1325
Q 2750 1325 2475 1250
L 2250 1475
L 3925 1475
L 3925 2525
L 3500 2525
Q 3175 2525 2900 2450
L 2675 2675
L 3925 2675
L 3925 3600
L 3475 3600
Q 3150 3600 2875 3525
L 2650 3750
L 4275 3750
Q 4725 4600 4875 5250
L 5400 4900
Q 5150 4775 4900 4425
Q 4650 4075 4425 3750
L 5150 3750
L 5450 4050
L 5900 3600
L 4275 3600
L 4275 2675
L 4975 2675
L 5275 2975
L 5725 2525
L 4275 2525
L 4275 1475
L 5275 1475
L 5600 1800
L 6075 1325
L 4275 1325
z
M 1650 750
Q 1650 400 1675 -500
L 1275 -650
Q 1300 825 1300 2375
Q 875 1375 300 725
L 225 775
Q 925 1875 1300 3600
L 1125 3600
Q 800 3600 525 3525
L 300 3750
L 1300 3750
Q 1300 4375 1275 5250
L 1850 4950
L 1650 4775
L 1650 3750
L 1975 3750
L 2250 4025
L 2675 3600
L 1650 3600
L 1650 2925
Q 2125 2700 2300 2550
Q 2475 2400 2475 2250
Q 2475 2150 2412 2000
Q 2350 1850 2300 1850
Q 2225 1850 2125 2075
Q 1950 2450 1650 2775
L 1650 750
z
" transform="scale(0.015625)"/>
      <path id="SimSun-5e7f" d="M 1000 4450
L 1425 4200
L 5100 4200
L 5475 4575
L 6000 4050
L 1400 4050
Q 1425 2025 1250 1187
Q 1075 350 325 -600
L 250 -550
Q 1025 700 1037 2362
Q 1050 4025 1000 4450
z
M 3000 5250
Q 3525 4950 3612 4837
Q 3700 4725 3700 4600
Q 3700 4525 3662 4437
Q 3625 4350 3500 4275
Q 3375 4200 3300 4500
Q 3225 4775 2925 5175
L 3000 5250
z
" transform="scale(0.015625)"/>
      <path id="SimSun-64ad" d="M 5425 1600
Q 5425 50 5450 -400
L 5100 -525
L 5100 -175
L 3100 -175
L 3100 -500
L 2750 -625
Q 2775 25 2775 2000
Q 2425 1750 2025 1600
L 2000 1675
Q 2575 2025 2950 2412
Q 3325 2800 3625 3250
L 2700 3250
L 2475 3200
L 2275 3400
L 3950 3400
L 3950 4575
Q 3400 4525 2575 4475
L 2550 4575
Q 3525 4700 4150 4850
Q 4775 5000 5175 5200
L 5500 4775
Q 5275 4775 4275 4625
L 4275 3400
L 4500 3400
Q 4625 3600 4775 3962
Q 4925 4325 4975 4575
L 5475 4250
L 5250 4150
Q 4900 3700 4650 3400
L 5350 3400
L 5650 3700
L 6100 3250
L 4425 3250
Q 4725 2875 5175 2612
Q 5625 2350 6125 2325
L 6125 2250
Q 5700 2175 5650 1975
Q 5250 2150 4912 2462
Q 4575 2775 4275 3250
Q 4275 2450 4300 2125
L 3925 1950
Q 3950 2500 3950 3150
Q 3725 2825 3375 2487
Q 3025 2150 2800 2025
L 3100 1850
L 5050 1850
L 5275 2075
L 5625 1750
L 5425 1600
z
M 3100 1700
L 3100 925
L 3950 925
L 3950 1700
L 3100 1700
z
M 4275 1700
L 4275 925
L 5100 925
L 5100 1700
L 4275 1700
z
M 3100 775
L 3100 -25
L 3950 -25
L 3950 775
L 3100 775
z
M 4275 775
L 4275 -25
L 5100 -25
L 5100 775
L 4275 775
z
M 2925 4425
Q 3375 4150 3450 4025
Q 3525 3900 3525 3850
Q 3525 3750 3437 3625
Q 3350 3500 3325 3500
Q 3250 3500 3200 3700
Q 3100 3975 2875 4375
L 2925 4425
z
M 1725 2350
L 2425 2825
L 2475 2725
L 1725 2075
L 1725 -75
Q 1725 -450 1225 -650
Q 1200 -375 525 -100
L 525 0
Q 1175 -150 1287 -112
Q 1400 -75 1400 125
L 1400 1875
Q 825 1425 575 1150
L 275 1525
Q 725 1725 1400 2175
L 1400 3600
L 775 3600
L 550 3525
L 325 3750
L 1400 3750
Q 1400 4825 1375 5200
L 1925 4950
L 1725 4775
L 1725 3750
L 2025 3750
L 2275 4000
L 2650 3600
L 1725 3600
L 1725 2350
z
" transform="scale(0.015625)"/>
     </defs>
     <use xlink:href="#SimSun-6837"/>
     <use xlink:href="#SimSun-70b9" x="100"/>
     <use xlink:href="#SimSun-5e7f" x="200"/>
     <use xlink:href="#SimSun-64ad" x="300"/>
    </g>
    <!-- 同时送全部支路 -->
    <g transform="translate(221.2 233.342187) scale(0.16 -0.16)">
     <defs>
      <path id="SimSun-540c" d="M 1650 3725
L 4075 3725
L 4400 4050
L 4875 3575
L 2375 3575
Q 2100 3575 1875 3500
L 1650 3725
z
M 2475 2600
L 2475 1400
L 4000 1400
L 4000 2600
L 2475 2600
z
M 2125 2950
L 2475 2750
L 3975 2750
L 4150 3000
L 4525 2700
L 4325 2525
L 4325 1600
Q 4325 1275 4350 950
L 4000 825
L 4000 1250
L 2475 1250
L 2475 875
L 2125 750
Q 2150 1175 2150 1787
Q 2150 2400 2125 2950
z
M 4175 125
Q 4700 50 4987 37
Q 5275 25 5275 400
L 5275 4650
L 1275 4650
L 1275 -425
L 875 -575
Q 925 250 925 750
L 925 3900
Q 925 4450 900 5050
L 1275 4800
L 5250 4800
L 5425 5050
L 5825 4725
L 5625 4575
L 5625 250
Q 5650 -350 5025 -575
Q 5025 -250 4175 0
L 4175 125
z
" transform="scale(0.015625)"/>
      <path id="SimSun-65f6" d="M 4500 3600
Q 4500 4575 4475 5225
L 5100 4900
L 4850 4725
L 4850 3600
L 5225 3600
L 5550 3925
L 6025 3450
L 4850 3450
L 4850 100
Q 4850 -375 4300 -575
Q 4275 -200 3475 -25
L 3475 100
Q 4150 0 4325 25
Q 4500 50 4500 325
L 4500 3450
L 3200 3450
Q 2875 3450 2600 3375
L 2375 3600
L 4500 3600
z
M 2875 2825
Q 3525 2375 3637 2200
Q 3750 2025 3750 1925
Q 3750 1800 3637 1637
Q 3525 1475 3475 1475
Q 3400 1475 3325 1775
Q 3200 2225 2800 2750
L 2875 2825
z
M 925 4150
L 925 2650
L 1950 2650
L 1950 4150
L 925 4150
z
M 925 2500
L 925 900
L 1950 900
L 1950 2500
L 925 2500
z
M 2300 2000
Q 2300 800 2325 450
L 1950 250
L 1950 750
L 925 750
L 925 225
L 550 25
Q 575 825 575 2425
Q 575 4025 550 4500
L 950 4300
L 1900 4300
L 2100 4550
L 2500 4225
L 2300 4050
L 2300 2000
z
" transform="scale(0.015625)"/>
      <path id="SimSun-9001" d="M 2700 5025
L 2775 5075
Q 3125 4825 3337 4637
Q 3550 4450 3537 4287
Q 3525 4125 3425 4037
Q 3325 3950 3275 3950
Q 3175 3950 3125 4200
Q 3050 4525 2700 5025
z
M 4600 5150
L 5150 4800
L 4925 4725
Q 4550 4200 4250 3750
L 4975 3750
L 5325 4025
L 5775 3600
L 4075 3600
Q 4075 3325 4025 2650
L 5200 2650
L 5550 3000
L 6025 2500
L 4000 2500
Q 3975 2325 3900 1950
Q 4625 1625 5025 1387
Q 5425 1150 5462 912
Q 5500 675 5425 562
Q 5350 450 5325 450
Q 5250 450 5125 650
Q 4950 950 4600 1262
Q 4250 1575 3850 1825
Q 3375 875 2175 400
L 2125 475
Q 3500 1275 3650 2500
L 2675 2500
Q 2475 2500 2200 2425
L 1975 2650
L 3675 2650
Q 3725 3300 3725 3600
L 3025 3600
Q 2825 3600 2550 3525
L 2325 3750
L 4100 3750
Q 4425 4450 4600 5150
z
M 1550 825
Q 2300 50 3550 25
Q 4800 0 6125 175
L 6125 75
Q 5625 -75 5625 -350
Q 4425 -350 3712 -312
Q 3000 -275 2575 -137
Q 2150 0 1825 325
Q 1500 650 1375 637
Q 1250 625 975 325
Q 700 25 600 -150
L 225 150
Q 625 475 1225 800
L 1225 2850
L 900 2850
Q 700 2850 425 2775
L 200 3000
L 1175 3000
L 1350 3250
L 1750 2975
L 1550 2800
L 1550 825
z
M 825 4925
L 900 4975
Q 1350 4675 1525 4500
Q 1700 4325 1675 4175
Q 1650 4025 1537 3925
Q 1425 3825 1400 3825
Q 1300 3825 1225 4125
Q 1125 4500 825 4925
z
" transform="scale(0.015625)"/>
      <path id="SimSun-5168" d="M 3125 4725
Q 2375 3475 1525 2800
L 4225 2800
L 4500 3050
Q 3675 3725 3125 4725
z
M 2900 5250
L 3425 4950
L 3225 4825
Q 3550 4275 4275 3650
Q 5000 3025 6100 2850
L 6100 2750
Q 5725 2675 5625 2400
Q 5075 2600 4500 3050
L 4925 2650
L 3350 2650
L 3350 1425
L 4400 1425
L 4700 1725
L 5150 1275
L 3350 1275
L 3350 -150
L 5075 -150
L 5425 225
L 5950 -300
L 1325 -300
Q 1000 -300 725 -375
L 500 -150
L 3000 -150
L 3000 1275
L 2075 1275
Q 1750 1275 1475 1200
L 1250 1425
L 3000 1425
L 3000 2650
L 2200 2650
Q 1875 2650 1625 2575
L 1450 2750
Q 900 2350 275 2100
L 250 2175
Q 1225 2750 1875 3550
Q 2525 4350 2900 5250
z
" transform="scale(0.015625)"/>
      <path id="SimSun-90e8" d="M 4025 -650
L 4025 3650
Q 4025 4250 4000 4800
L 4350 4525
L 5475 4525
L 5700 4750
L 6050 4400
L 5825 4225
L 5075 2600
Q 5525 2200 5725 1812
Q 5925 1425 5925 1087
Q 5925 750 5725 512
Q 5525 275 5175 175
Q 5050 525 4475 675
L 4475 775
Q 4975 700 5187 700
Q 5400 700 5475 875
Q 5550 1050 5550 1200
Q 5550 1375 5475 1712
Q 5400 2050 4925 2600
L 5500 4375
L 4350 4375
L 4350 -475
L 4025 -650
z
M 1350 1625
L 1350 375
L 2825 375
L 2825 1625
L 1350 1625
z
M 575 4175
L 2050 4175
Q 2000 4475 1925 4675
Q 1850 4875 1675 5100
L 1725 5175
Q 2375 4800 2412 4587
Q 2450 4375 2200 4175
L 3025 4175
L 3300 4475
L 3700 4025
L 1275 4025
Q 1075 4025 800 3950
L 575 4175
z
M 2325 2575
Q 2725 3500 2775 3900
L 3300 3575
L 3075 3450
Q 2850 3125 2500 2575
L 3275 2575
L 3575 2875
L 3975 2425
L 1025 2425
Q 825 2425 550 2350
L 325 2575
L 2325 2575
z
M 1000 -450
Q 1025 175 1025 775
Q 1025 1375 1000 2000
L 1375 1775
L 2800 1775
L 3050 2025
L 3375 1700
L 3150 1525
Q 3150 250 3175 -175
L 2825 -350
L 2825 225
L 1350 225
L 1350 -300
L 1000 -450
z
M 1150 3800
Q 1600 3475 1725 3300
Q 1850 3125 1812 2975
Q 1775 2825 1687 2750
Q 1600 2675 1575 2675
Q 1500 2675 1475 2850
Q 1425 3075 1350 3275
Q 1275 3475 1100 3725
L 1150 3800
z
" transform="scale(0.015625)"/>
      <path id="SimSun-652f" d="M 4575 2550
Q 4100 1575 3425 775
Q 4525 -25 6050 -25
L 6050 -125
Q 5650 -200 5575 -525
Q 4000 -200 3175 550
Q 1950 -425 300 -625
L 275 -550
Q 1825 -175 2900 775
Q 2250 1575 1925 2675
L 1700 2675
L 1400 2625
L 1200 2825
L 2950 2825
L 2950 3900
L 1225 3900
Q 900 3900 625 3825
L 400 4050
L 2950 4050
Q 2950 4925 2925 5225
L 3550 4950
L 3325 4775
L 3325 4050
L 5075 4050
L 5450 4425
L 5975 3900
L 3325 3900
L 3325 2825
L 4200 2825
L 4425 3075
L 4825 2700
L 4575 2550
z
M 3150 1025
Q 3650 1525 4200 2675
L 2050 2675
Q 2500 1600 3150 1025
z
" transform="scale(0.015625)"/>
      <path id="SimSun-8def" d="M 3625 4025
Q 3875 3500 4325 3025
Q 4700 3525 5025 4225
L 3725 4225
L 3625 4025
z
M 3675 1550
L 3675 75
L 5000 75
L 5000 1550
L 3675 1550
z
M 5325 1450
Q 5325 375 5350 -375
L 5000 -550
L 5000 -75
L 3675 -75
L 3675 -450
L 3325 -650
Q 3350 150 3350 1750
Q 3000 1500 2350 1275
L 2325 1350
Q 3350 1875 4125 2825
Q 3800 3300 3550 3900
Q 3175 3175 2750 2700
L 2675 2750
Q 3400 3950 3675 5225
L 4175 4950
L 3975 4800
Q 3925 4700 3775 4375
L 5050 4375
L 5225 4625
L 5625 4300
L 5400 4125
Q 5025 3425 4550 2825
Q 5250 2225 6150 2025
L 6150 1925
Q 5825 1900 5700 1650
Q 4975 2000 4350 2575
Q 4050 2275 3525 1850
L 3750 1700
L 4975 1700
L 5125 1900
L 5500 1600
L 5325 1450
z
M 1075 4475
L 1075 3175
L 2225 3175
L 2225 4475
L 1075 4475
z
M 1000 350
L 1500 475
L 1500 3025
L 1075 3025
L 1075 2825
L 725 2700
Q 750 3300 750 3850
Q 750 4400 725 4800
L 1075 4625
L 2175 4625
L 2350 4850
L 2725 4575
L 2525 4400
Q 2525 3325 2550 2950
L 2225 2800
L 2225 3025
L 1800 3025
L 1800 2075
L 2100 2075
L 2375 2350
L 2775 1925
L 1800 1925
L 1800 550
L 2725 775
L 2750 675
Q 1850 375 725 -75
L 550 -200
L 300 175
L 700 275
Q 700 1800 675 2325
L 1200 2075
L 1000 1900
L 1000 350
z
" transform="scale(0.015625)"/>
     </defs>
     <use xlink:href="#SimSun-540c"/>
     <use xlink:href="#SimSun-65f6" x="100"/>
     <use xlink:href="#SimSun-9001" x="200"/>
     <use xlink:href="#SimSun-5168" x="300"/>
     <use xlink:href="#SimSun-90e8" x="400"/>
     <use xlink:href="#SimSun-652f" x="500"/>
     <use xlink:href="#SimSun-8def" x="600"/>
    </g>
   </g>
   <g id="text_6">
    <!-- 最多11条复相关通路 -->
    <g transform="translate(423.9 201.628418) scale(0.17 -0.17)">
     <defs>
      <path id="SimSun-31" d="M 1825 4450
L 1825 650
Q 1825 450 1950 350
Q 2075 250 2300 250
L 2550 250
L 2550 100
L 725 100
L 725 250
L 950 250
Q 1200 250 1312 350
Q 1425 450 1425 650
L 1425 3675
Q 1425 3775 1362 3837
Q 1300 3900 1175 3900
L 725 3900
L 725 4050
L 950 4050
Q 1250 4050 1437 4150
Q 1625 4250 1725 4450
L 1825 4450
z
" transform="scale(0.015625)"/>
      <path id="SimSun-6761" d="M 2175 4325
Q 1600 3525 700 2900
L 625 2975
Q 1225 3450 1675 4162
Q 2125 4875 2225 5300
L 2775 4975
Q 2575 4925 2375 4625
L 4250 4625
L 4500 4900
L 5000 4475
L 4700 4325
Q 4250 3575 3550 3025
Q 4575 2400 6125 2450
L 6125 2350
Q 5625 2250 5575 1975
Q 4075 2150 3250 2825
Q 2225 2200 350 1925
L 300 2025
Q 2025 2375 3025 3075
Q 2550 3575 2175 4325
z
M 2300 4475
L 2250 4425
Q 2725 3650 3275 3250
Q 3900 3775 4250 4475
L 2300 4475
z
M 1100 1625
L 3100 1625
Q 3100 2050 3075 2600
L 3725 2275
L 3475 2100
L 3475 1625
L 4550 1625
L 4875 1950
L 5350 1475
L 3475 1475
L 3475 -25
Q 3475 -450 2900 -650
Q 2900 -275 2125 -75
L 2125 50
Q 2800 -75 2950 -50
Q 3100 -25 3100 225
L 3100 1475
L 1925 1475
Q 1600 1475 1325 1400
L 1100 1625
z
M 2100 1300
L 2575 900
Q 2375 875 1875 400
Q 1350 -75 525 -500
L 450 -425
Q 1675 450 2100 1300
z
M 3925 1150
Q 5125 550 5325 362
Q 5525 175 5525 -50
Q 5525 -150 5475 -312
Q 5425 -475 5375 -475
Q 5300 -475 5100 -150
Q 4800 325 3875 1075
L 3925 1150
z
" transform="scale(0.015625)"/>
      <path id="SimSun-590d" d="M 2150 3675
L 2150 3075
L 4550 3075
L 4550 3675
L 2150 3675
z
M 2150 2925
L 2150 2300
L 4550 2300
L 4550 2925
L 2150 2925
z
M 2450 1525
Q 2875 975 3375 625
Q 3850 950 4400 1525
L 2450 1525
z
M 2050 5225
L 2550 4875
L 2300 4775
L 2100 4525
L 4975 4525
L 5325 4875
L 5825 4375
L 2025 4375
Q 1275 3525 500 3075
L 425 3150
Q 1125 3700 1500 4250
Q 1875 4800 2050 5225
z
M 2775 1900
L 2575 1800
L 2475 1675
L 4425 1675
L 4650 1900
L 5050 1500
L 4800 1400
Q 4225 825 3650 425
Q 4650 -150 6100 -150
L 6100 -250
Q 5775 -275 5650 -575
Q 4375 -425 3400 250
Q 2075 -500 450 -625
L 450 -525
Q 2200 -175 3125 450
Q 2675 925 2325 1475
Q 1775 775 875 250
L 850 325
Q 1900 1175 2300 2150
L 2150 2150
L 2150 2075
L 1750 1875
Q 1775 2425 1775 2962
Q 1775 3500 1750 4025
L 2150 3825
L 4500 3825
L 4725 4075
L 5150 3725
L 4925 3575
Q 4925 3275 4925 2862
Q 4925 2450 4950 2150
L 4550 2000
L 4550 2150
L 2325 2150
L 2775 1900
z
" transform="scale(0.015625)"/>
      <path id="SimSun-5173" d="M 1750 5100
L 1800 5175
Q 2300 4900 2550 4675
Q 2800 4450 2800 4250
Q 2800 4125 2712 3975
Q 2625 3825 2600 3825
Q 2500 3825 2375 4175
Q 2175 4675 1750 5100
z
M 3375 3500
Q 3350 2850 3300 2150
L 5200 2150
L 5575 2525
L 6100 2000
L 3625 2000
Q 3850 1350 4425 750
Q 5000 150 6100 -150
L 6100 -225
Q 5700 -250 5550 -550
Q 4875 -200 4312 387
Q 3750 975 3475 2000
L 3275 2000
Q 3050 1075 2312 412
Q 1575 -250 375 -625
L 350 -525
Q 1625 25 2175 687
Q 2725 1350 2900 2000
L 1175 2000
Q 850 2000 575 1925
L 350 2150
L 2925 2150
Q 2975 2700 2975 3500
L 1500 3500
Q 1175 3500 900 3425
L 675 3650
L 3500 3650
Q 3700 4000 3875 4462
Q 4050 4925 4125 5225
L 4725 4825
L 4425 4700
Q 4000 4050 3675 3650
L 4975 3650
L 5325 4000
L 5825 3500
L 3375 3500
z
" transform="scale(0.015625)"/>
      <path id="SimSun-901a" d="M 2625 3575
L 2625 2825
L 3725 2825
L 3725 3575
L 2625 3575
z
M 4050 3575
L 4050 2825
L 5225 2825
L 5225 3575
L 4050 3575
z
M 2625 2675
L 2625 1925
L 3725 1925
L 3725 2675
L 2625 2675
z
M 4050 2675
L 4050 1925
L 5225 1925
L 5225 2675
L 4050 2675
z
M 4425 825
Q 4825 800 5025 800
Q 5225 800 5225 1000
L 5225 1775
L 4050 1775
L 4050 650
L 3725 500
L 3725 1775
L 2625 1775
L 2625 575
L 2275 425
Q 2300 1100 2300 2250
Q 2300 3400 2275 3975
L 2700 3725
L 3775 3725
Q 3725 4125 3200 4425
L 3250 4500
Q 3675 4425 4075 4175
L 4825 4775
L 3150 4775
Q 2800 4775 2525 4700
L 2300 4925
L 4850 4925
L 5075 5150
L 5525 4675
Q 5125 4700 4150 4100
Q 4175 4050 4175 3950
Q 4175 3825 4050 3725
L 5175 3725
L 5350 3975
L 5725 3700
L 5550 3525
L 5550 875
Q 5575 450 5075 275
Q 5050 625 4425 725
L 4425 825
z
M 725 4875
L 775 4925
Q 1125 4750 1337 4575
Q 1550 4400 1550 4225
Q 1550 4050 1450 3937
Q 1350 3825 1300 3825
Q 1200 3825 1150 4050
Q 1075 4375 725 4875
z
M 1575 800
Q 1825 500 2237 287
Q 2650 75 3725 37
Q 4800 0 6150 150
L 6150 50
Q 5650 -75 5675 -400
Q 4500 -400 3762 -350
Q 3025 -300 2562 -137
Q 2100 25 1825 325
Q 1525 625 1400 612
Q 1275 600 1012 312
Q 750 25 625 -225
L 250 100
Q 625 475 1250 750
L 1250 2850
L 1075 2850
Q 750 2850 475 2775
L 250 3000
L 1225 3000
L 1375 3250
L 1775 2950
L 1575 2775
L 1575 800
z
" transform="scale(0.015625)"/>
     </defs>
     <use xlink:href="#SimSun-6700"/>
     <use xlink:href="#SimSun-591a" x="100"/>
     <use xlink:href="#SimSun-31" x="200"/>
     <use xlink:href="#SimSun-31" x="250"/>
     <use xlink:href="#SimSun-6761" x="300"/>
     <use xlink:href="#SimSun-590d" x="400"/>
     <use xlink:href="#SimSun-76f8" x="500"/>
     <use xlink:href="#SimSun-5173" x="600"/>
     <use xlink:href="#SimSun-901a" x="700"/>
     <use xlink:href="#SimSun-8def" x="800"/>
    </g>
    <!-- 22条标量符号累加 -->
    <g transform="translate(432.4 223.559082) scale(0.17 -0.17)">
     <defs>
      <path id="SimSun-32" d="M 2325 3325
Q 2325 3775 2125 4012
Q 1925 4250 1525 4250
Q 1225 4250 1012 4087
Q 800 3925 800 3675
Q 800 3525 900 3425
Q 975 3325 975 3225
Q 975 3100 912 3037
Q 850 2975 725 2975
Q 575 2975 487 3062
Q 400 3150 400 3350
Q 400 3875 775 4150
Q 1150 4425 1575 4425
Q 2175 4425 2462 4125
Q 2750 3825 2750 3375
Q 2750 3075 2612 2775
Q 2475 2475 2175 2200
Q 1450 1500 1062 1062
Q 675 625 600 475
L 2075 475
Q 2300 475 2450 650
Q 2600 825 2650 1175
L 2800 1175
L 2650 100
L 325 100
L 325 425
Q 450 650 737 1000
Q 1025 1350 1500 1825
Q 1925 2250 2125 2625
Q 2325 3000 2325 3325
z
" transform="scale(0.015625)"/>
      <path id="SimSun-6807" d="M 4775 2225
Q 5725 1275 5825 1050
Q 5925 825 5925 700
Q 5925 525 5825 375
Q 5725 225 5700 225
Q 5575 225 5475 650
Q 5300 1225 4700 2175
L 4775 2225
z
M 2750 4600
L 4975 4600
L 5275 4900
L 5725 4450
L 3175 4450
L 2950 4400
L 2750 4600
z
M 3100 75
Q 3775 -50 3900 -25
Q 4025 0 4025 175
L 4025 2950
L 2800 2950
L 2575 2900
L 2375 3100
L 5350 3100
L 5675 3425
L 6150 2950
L 4400 2950
L 4400 -25
Q 4375 -425 3850 -600
Q 3850 -300 3100 -50
L 3100 75
z
M 3125 2275
L 3675 1950
L 3425 1825
Q 2800 700 2100 25
L 2025 100
Q 2725 1025 3125 2275
z
M 1675 2725
Q 1675 25 1700 -475
L 1300 -625
Q 1325 450 1325 2325
Q 950 1450 350 700
L 275 800
Q 975 1925 1325 3475
L 700 3475
L 475 3425
L 275 3625
L 1325 3625
Q 1325 4575 1300 5275
L 1900 4975
L 1675 4800
L 1675 3625
L 2000 3625
L 2275 3900
L 2700 3475
L 1675 3475
L 1675 2850
Q 2150 2600 2312 2425
Q 2475 2250 2475 2125
Q 2475 2050 2400 1912
Q 2325 1775 2275 1775
Q 2200 1775 2100 2075
Q 1925 2475 1675 2725
z
" transform="scale(0.015625)"/>
      <path id="SimSun-91cf" d="M 1700 2400
L 1700 1875
L 3025 1875
L 3025 2400
L 1700 2400
z
M 3350 2400
L 3350 1875
L 4625 1875
L 4625 2400
L 3350 2400
z
M 1700 1725
L 1700 1225
L 3025 1225
L 3025 1725
L 1700 1725
z
M 3350 1725
L 3350 1225
L 4625 1225
L 4625 1725
L 3350 1725
z
M 4950 2325
Q 4950 1350 4975 1025
L 4625 875
L 4625 1075
L 3350 1075
L 3350 525
L 4700 525
L 5050 825
L 5450 375
L 3350 375
L 3350 -225
L 5275 -225
L 5650 125
L 6075 -375
L 1175 -375
Q 850 -375 575 -450
L 350 -225
L 3025 -225
L 3025 375
L 1725 375
Q 1400 375 1125 300
L 900 525
L 3025 525
L 3025 1075
L 1700 1075
L 1700 925
L 1350 800
Q 1375 1300 1375 1787
Q 1375 2275 1350 2750
L 1700 2550
L 4600 2550
L 4750 2750
L 5125 2475
L 4950 2325
z
M 1775 4800
L 1775 4375
L 4550 4375
L 4550 4800
L 1775 4800
z
M 1775 4225
L 1775 3775
L 4550 3775
L 4550 4225
L 1775 4225
z
M 4875 4750
Q 4875 3825 4900 3525
L 4550 3375
L 4550 3625
L 1775 3625
L 1775 3400
L 1425 3250
Q 1450 3650 1450 4262
Q 1450 4875 1425 5125
L 1800 4950
L 4500 4950
L 4650 5175
L 5050 4900
L 4875 4750
z
M 250 3125
L 5375 3125
L 5725 3450
L 6150 2975
L 950 2975
Q 750 2975 475 2900
L 250 3125
z
" transform="scale(0.015625)"/>
     </defs>
     <use xlink:href="#SimSun-32"/>
     <use xlink:href="#SimSun-32" x="50"/>
     <use xlink:href="#SimSun-6761" x="100"/>
     <use xlink:href="#SimSun-6807" x="200"/>
     <use xlink:href="#SimSun-91cf" x="300"/>
     <use xlink:href="#SimSun-7b26" x="400"/>
     <use xlink:href="#SimSun-53f7" x="500"/>
     <use xlink:href="#SimSun-7d2f" x="600"/>
     <use xlink:href="#SimSun-52a0" x="700"/>
    </g>
    <!-- 每拍同时更新 -->
    <g transform="translate(449.4 245.393457) scale(0.17 -0.17)">
     <defs>
      <path id="SimSun-62cd" d="M 2875 -575
Q 2900 450 2900 2062
Q 2900 3675 2875 4025
L 3250 3775
L 3650 3775
Q 3950 4575 4075 5200
L 4600 4875
Q 4425 4850 4212 4487
Q 4000 4125 3800 3775
L 5175 3775
L 5350 4025
L 5775 3725
L 5600 3550
L 5600 775
Q 5600 125 5625 -325
L 5250 -500
L 5250 125
L 3250 125
L 3250 -400
L 2875 -575
z
M 3250 3625
L 3250 2100
L 5250 2100
L 5250 3625
L 3250 3625
z
M 3250 1950
L 3250 275
L 5250 275
L 5250 1950
L 3250 1950
z
M 1800 2375
L 2600 2800
L 2650 2700
L 1800 2125
L 1800 125
Q 1800 -350 1250 -575
Q 1275 -275 550 -25
L 550 75
Q 1075 0 1262 0
Q 1450 0 1450 350
L 1450 1925
Q 750 1475 675 1300
L 350 1775
Q 625 1825 1450 2225
L 1450 3550
L 800 3550
L 500 3500
L 300 3700
L 1450 3700
Q 1450 4825 1425 5250
L 2025 4950
L 1800 4775
L 1800 3700
L 2150 3700
L 2400 3950
L 2800 3550
L 1800 3550
L 1800 2375
z
" transform="scale(0.015625)"/>
      <path id="SimSun-66f4" d="M 1225 1500
Q 1250 2050 1250 2762
Q 1250 3475 1225 4100
L 1625 3875
L 3050 3875
L 3050 4600
L 1250 4600
Q 925 4600 650 4525
L 425 4750
L 5100 4750
L 5450 5100
L 5950 4600
L 3400 4600
L 3400 3875
L 4725 3875
L 4975 4125
L 5350 3775
L 5125 3625
Q 5125 2175 5150 1725
L 4775 1550
L 4775 1825
L 3350 1825
Q 3250 975 2925 525
Q 3525 125 4125 37
Q 4725 -50 5200 -50
Q 5600 -50 6100 0
L 6100 -75
Q 5675 -200 5650 -475
Q 4650 -450 3975 -287
Q 3300 -125 2750 325
Q 2400 -25 1787 -250
Q 1175 -475 350 -600
L 325 -500
Q 1200 -300 1750 -25
Q 2300 250 2525 525
Q 2225 800 1825 1475
L 1900 1525
Q 2350 975 2675 725
Q 2800 950 2875 1200
Q 2950 1450 3000 1825
L 1600 1825
L 1600 1650
L 1225 1500
z
M 1600 3725
L 1600 2950
L 3050 2950
L 3050 3725
L 1600 3725
z
M 3400 3725
L 3400 2950
L 4775 2950
L 4775 3725
L 3400 3725
z
M 1600 2800
L 1600 1975
L 3025 1975
Q 3050 2525 3050 2800
L 1600 2800
z
M 3400 2800
Q 3400 2450 3375 1975
L 4775 1975
L 4775 2800
L 3400 2800
z
" transform="scale(0.015625)"/>
      <path id="SimSun-65b0" d="M 5225 2775
L 5225 475
Q 5225 75 5250 -450
L 4875 -625
Q 4900 700 4900 2775
L 4100 2775
Q 4150 1150 3687 450
Q 3225 -250 2600 -625
L 2550 -550
Q 3050 -125 3325 337
Q 3600 800 3687 1362
Q 3775 1925 3775 2775
Q 3775 3625 3750 4700
L 4100 4475
Q 5150 4725 5475 5025
L 5900 4575
Q 5550 4575 5225 4525
Q 4900 4475 4100 4350
L 4100 2925
L 5325 2925
L 5650 3250
L 6125 2775
L 5225 2775
z
M 1075 4050
Q 1425 3825 1562 3675
Q 1700 3525 1700 3400
Q 1700 3275 1612 3150
Q 1525 3025 1500 3025
Q 1425 3025 1375 3225
Q 1300 3525 1000 4000
L 1075 4050
z
M 2450 1400
Q 2925 1125 3075 975
Q 3225 825 3225 700
Q 3225 600 3150 462
Q 3075 325 3025 325
Q 2975 325 2900 550
Q 2775 875 2400 1325
L 2450 1400
z
M 1125 1475
L 1600 1175
L 1400 1075
Q 850 200 350 -225
L 275 -175
Q 800 475 1125 1475
z
M 1075 75
Q 1525 0 1687 0
Q 1850 0 1850 200
L 1850 1775
L 950 1775
L 725 1725
L 525 1925
L 1850 1925
L 1850 2800
L 1125 2800
Q 800 2800 525 2725
L 300 2950
L 2125 2950
Q 2400 3650 2500 4150
L 1325 4150
Q 1000 4150 725 4075
L 500 4300
L 1875 4300
Q 1850 4650 1525 5125
L 1575 5175
Q 2025 4925 2112 4787
Q 2200 4650 2200 4600
Q 2200 4475 2050 4300
L 2675 4300
L 2975 4600
L 3425 4150
L 2550 4150
L 2975 3875
Q 2800 3800 2637 3562
Q 2475 3325 2250 2950
L 2900 2950
L 3200 3250
L 3650 2800
L 2175 2800
L 2175 1925
L 2750 1925
L 3050 2225
L 3500 1775
L 2175 1775
L 2175 25
Q 2175 -350 1700 -525
Q 1700 -225 1075 -25
L 1075 75
z
" transform="scale(0.015625)"/>
     </defs>
     <use xlink:href="#SimSun-6bcf"/>
     <use xlink:href="#SimSun-62cd" x="100"/>
     <use xlink:href="#SimSun-540c" x="200"/>
     <use xlink:href="#SimSun-65f6" x="300"/>
     <use xlink:href="#SimSun-66f4" x="400"/>
     <use xlink:href="#SimSun-65b0" x="500"/>
    </g>
   </g>
   <g id="text_7">
    <!-- 积分结果保存 -->
    <g transform="translate(709.8 213.367188) scale(0.16 -0.16)">
     <defs>
      <path id="SimSun-79ef" d="M 3125 1750
Q 3150 2475 3150 3225
Q 3150 3975 3125 4725
L 3500 4525
L 5225 4525
L 5475 4775
L 5850 4400
L 5600 4250
Q 5600 2300 5625 1975
L 5275 1850
L 5275 2175
L 3475 2175
L 3475 1875
L 3125 1750
z
M 3475 4375
L 3475 2325
L 5275 2325
L 5275 4375
L 3475 4375
z
M 3825 1700
L 4300 1300
L 4075 1225
Q 3125 -75 2200 -550
L 2175 -450
Q 2800 50 3225 625
Q 3650 1200 3825 1700
z
M 4700 1600
Q 5725 650 5850 362
Q 5975 75 5975 -75
Q 5975 -225 5900 -337
Q 5825 -450 5775 -450
Q 5725 -450 5650 -250
Q 5525 75 5350 450
Q 5175 825 4650 1525
L 4700 1600
z
M 1875 2575
Q 1875 225 1900 -400
L 1525 -625
Q 1550 125 1550 2350
Q 1025 1275 300 625
L 250 700
Q 625 1200 962 1862
Q 1300 2525 1500 3200
L 1125 3200
Q 800 3200 525 3125
L 300 3350
L 1550 3350
L 1550 4475
Q 900 4375 525 4350
L 525 4450
Q 1075 4550 1525 4712
Q 1975 4875 2375 5150
L 2725 4700
Q 2425 4700 1875 4550
L 1875 3350
L 2250 3350
L 2550 3650
L 2975 3200
L 1875 3200
L 1875 2675
Q 2475 2400 2612 2212
Q 2750 2025 2750 1925
Q 2750 1800 2662 1675
Q 2575 1550 2550 1550
Q 2450 1550 2375 1800
Q 2250 2175 1875 2575
z
" transform="scale(0.015625)"/>
      <path id="SimSun-5206" d="M 2350 5050
L 2850 4675
L 2625 4550
Q 2200 3750 1687 3125
Q 1175 2500 375 2025
L 325 2100
Q 975 2625 1475 3337
Q 1975 4050 2350 5050
z
M 4100 4975
L 3900 4850
Q 4175 3850 4800 3300
Q 5425 2750 6125 2625
L 6125 2550
Q 5750 2500 5600 2225
Q 4775 2675 4287 3425
Q 3800 4175 3625 5175
L 4100 4975
z
M 1375 2625
L 4225 2625
L 4475 2875
L 4825 2525
L 4625 2375
Q 4575 400 4375 -12
Q 4175 -425 3675 -600
Q 3600 -200 2975 -25
L 2975 75
Q 3600 -25 3787 -12
Q 3975 0 4075 275
Q 4175 550 4275 2475
L 2975 2475
Q 2825 1400 2375 662
Q 1925 -75 650 -625
L 600 -525
Q 1725 50 2112 837
Q 2500 1625 2575 2475
L 1800 2475
L 1575 2425
L 1375 2625
z
" transform="scale(0.015625)"/>
      <path id="SimSun-7ed3" d="M 4050 3900
Q 4050 4925 4025 5250
L 4625 4925
L 4375 4750
L 4375 3900
L 5300 3900
L 5600 4200
L 6025 3750
L 4375 3750
L 4375 2625
L 5050 2625
L 5350 2925
L 5775 2475
L 3650 2475
Q 3325 2475 3050 2400
L 2825 2625
L 4050 2625
L 4050 3750
L 3425 3750
Q 3100 3750 2825 3675
L 2600 3900
L 4050 3900
z
M 3025 -600
Q 3050 -50 3050 675
Q 3050 1400 3025 1925
L 3425 1700
L 5125 1700
L 5350 1925
L 5700 1575
L 5475 1425
L 5475 400
Q 5475 -150 5500 -375
L 5150 -525
L 5150 -25
L 3375 -25
L 3375 -425
L 3025 -600
z
M 3375 1550
L 3375 125
L 5150 125
L 5150 1550
L 3375 1550
z
M 975 1550
L 2700 1825
L 2700 1725
Q 2400 1650 1750 1462
Q 1100 1275 800 1050
L 525 1500
Q 725 1575 900 1750
Q 1075 1925 1725 2825
Q 1425 2775 1150 2712
Q 875 2650 625 2500
L 400 2950
Q 650 2950 987 3662
Q 1325 4375 1525 5125
L 2050 4850
L 1825 4725
Q 1300 3725 800 2950
L 1800 2975
Q 2100 3450 2275 3850
L 2725 3525
L 2500 3400
Q 1800 2475 975 1550
z
M 650 -250
L 400 225
Q 750 275 1237 387
Q 1725 500 2750 800
L 2775 700
Q 925 -25 650 -250
z
" transform="scale(0.015625)"/>
      <path id="SimSun-679c" d="M 1725 4725
L 1725 3875
L 3025 3875
L 3025 4725
L 1725 4725
z
M 3400 4725
L 3400 3875
L 4725 3875
L 4725 4725
L 3400 4725
z
M 1725 3725
L 1725 2825
L 3025 2825
L 3025 3725
L 1725 3725
z
M 3400 3725
L 3400 2825
L 4725 2825
L 4725 3725
L 3400 3725
z
M 1350 2300
Q 1375 3000 1375 3700
Q 1375 4400 1350 5075
L 1725 4875
L 4700 4875
L 4925 5100
L 5300 4750
L 5075 4600
Q 5075 2850 5100 2500
L 4725 2325
L 4725 2675
L 3400 2675
L 3400 1950
L 5100 1950
L 5475 2325
L 6000 1800
L 3450 1800
Q 4500 450 6025 100
L 6025 0
Q 5550 -25 5450 -300
Q 3950 525 3400 1700
Q 3400 -50 3425 -425
L 3000 -625
Q 3025 350 3025 1650
Q 2100 325 400 -375
L 375 -275
Q 1850 550 2700 1800
L 1300 1800
Q 975 1800 700 1725
L 475 1950
L 3025 1950
L 3025 2675
L 1725 2675
L 1725 2450
L 1350 2300
z
" transform="scale(0.015625)"/>
      <path id="SimSun-4fdd" d="M 5300 4500
Q 5300 3250 5325 2875
L 4975 2750
L 4975 3000
L 4125 3000
L 4125 2100
L 5425 2100
L 5725 2400
L 6175 1950
L 4425 1950
Q 4600 1475 5037 937
Q 5475 400 6150 175
L 6150 100
Q 5825 75 5650 -150
Q 5050 350 4750 900
Q 4450 1450 4300 1950
L 4125 1950
Q 4125 0 4150 -450
L 3775 -625
Q 3800 0 3800 1750
Q 3400 1000 2912 475
Q 2425 -50 1800 -400
L 1750 -325
Q 2350 100 2850 825
Q 3350 1550 3500 1950
L 2325 1950
L 2000 1900
L 1800 2100
L 3800 2100
L 3800 3000
L 3000 3000
L 3000 2775
L 2625 2650
Q 2650 3150 2650 3750
Q 2650 4350 2625 4950
L 3025 4750
L 4925 4750
L 5175 5000
L 5550 4675
L 5300 4500
z
M 3000 4600
L 3000 3150
L 4975 3150
L 4975 4600
L 3000 4600
z
M 1575 850
Q 1575 -50 1600 -450
L 1225 -625
Q 1250 350 1250 900
L 1250 3100
Q 725 2425 325 2075
L 275 2150
Q 925 2925 1312 3900
Q 1700 4875 1775 5275
L 2300 4975
L 2100 4825
Q 1675 3950 1475 3500
L 1725 3350
L 1575 3200
L 1575 850
z
" transform="scale(0.015625)"/>
      <path id="SimSun-5b58" d="M 1975 2725
Q 1975 250 2000 -400
L 1600 -650
Q 1625 25 1625 2275
Q 1150 1675 300 1100
L 225 1175
Q 1025 1875 1625 2750
Q 1625 3000 1600 3200
L 1850 3075
Q 2175 3575 2475 4250
L 1025 4250
L 650 4200
L 450 4400
L 2525 4400
Q 2725 4875 2775 5250
L 3375 4950
Q 3175 4850 3100 4712
Q 3025 4575 2950 4400
L 5050 4400
L 5425 4775
L 5950 4250
L 2900 4250
Q 2500 3475 1975 2725
z
M 3050 0
Q 3550 -50 3737 -50
Q 3925 -50 3925 250
L 3925 1475
L 2825 1475
L 2450 1425
L 2250 1625
L 3925 1625
Q 3925 2275 3900 2675
L 4175 2525
L 4875 3250
L 3075 3250
L 2725 3200
L 2525 3400
L 4900 3400
L 5150 3650
L 5575 3175
Q 5225 3125 4912 2912
Q 4600 2700 4275 2450
L 4475 2325
L 4275 2175
L 4275 1625
L 5325 1625
L 5650 1950
L 6125 1475
L 4275 1475
L 4275 -50
Q 4275 -400 3750 -625
Q 3725 -325 3050 -125
L 3050 0
z
" transform="scale(0.015625)"/>
     </defs>
     <use xlink:href="#SimSun-79ef"/>
     <use xlink:href="#SimSun-5206" x="100"/>
     <use xlink:href="#SimSun-7ed3" x="200"/>
     <use xlink:href="#SimSun-679c" x="300"/>
     <use xlink:href="#SimSun-4fdd" x="400"/>
     <use xlink:href="#SimSun-5b58" x="500"/>
    </g>
    <!-- 5 / 6 / 11组I/Q -->
    <g transform="translate(697.8 232.920312) scale(0.16 -0.16)">
     <defs>
      <path id="SimSun-35" d="M 1725 2850
Q 2200 2850 2500 2487
Q 2800 2125 2800 1525
Q 2800 850 2487 450
Q 2175 50 1525 50
Q 1075 50 725 312
Q 375 575 375 950
Q 375 1100 462 1212
Q 550 1325 700 1325
Q 850 1325 900 1225
Q 950 1125 950 1050
Q 950 900 875 825
Q 800 725 800 625
Q 800 425 1037 325
Q 1275 225 1550 225
Q 1950 225 2162 550
Q 2375 875 2375 1475
Q 2375 1975 2187 2287
Q 2000 2600 1625 2600
Q 1350 2600 1150 2500
Q 950 2400 775 2075
L 550 2100
L 675 4375
L 2725 4375
L 2650 4000
L 850 4000
L 750 2350
Q 1000 2700 1237 2775
Q 1475 2850 1725 2850
z
" transform="scale(0.015625)"/>
      <path id="SimSun-20" d="M 0 0
Q 0 0 0 0
z
" transform="scale(0.015625)"/>
      <path id="SimSun-7ec4" d="M 1000 1525
Q 1950 1675 2400 1775
L 2425 1675
Q 2100 1575 1537 1387
Q 975 1200 750 1025
L 475 1475
Q 725 1550 987 1875
Q 1250 2200 1750 3000
Q 1375 2925 1087 2812
Q 800 2700 625 2600
L 400 3025
Q 650 3075 1025 3912
Q 1400 4750 1475 5175
L 1925 4875
Q 1700 4650 1475 4200
Q 1225 3750 775 3025
L 1800 3125
Q 2050 3600 2200 4075
L 2625 3775
Q 2500 3650 2125 3075
Q 1750 2475 1000 1525
z
M 325 250
Q 625 300 1312 475
Q 2000 650 2525 825
L 2575 700
Q 2225 575 1525 262
Q 825 -50 625 -225
L 325 250
z
M 3250 4550
L 3250 3175
L 4850 3175
L 4850 4550
L 3250 4550
z
M 3250 3025
L 3250 1625
L 4850 1625
L 4850 3025
L 3250 3025
z
M 3250 1475
L 3250 -50
L 4850 -50
L 4850 1475
L 3250 1475
z
M 2925 3475
Q 2925 4500 2900 4925
L 3250 4700
L 4825 4700
L 5025 4975
L 5425 4650
L 5200 4450
L 5200 -50
L 5375 -50
L 5750 300
L 6175 -200
L 2825 -200
Q 2500 -200 2225 -275
L 2000 -50
L 2925 -50
L 2925 3475
z
" transform="scale(0.015625)"/>
     </defs>
     <use xlink:href="#SimSun-35"/>
     <use xlink:href="#SimSun-20" x="50"/>
     <use xlink:href="#SimSun-2f" x="100"/>
     <use xlink:href="#SimSun-20" x="150"/>
     <use xlink:href="#SimSun-36" x="200"/>
     <use xlink:href="#SimSun-20" x="250"/>
     <use xlink:href="#SimSun-2f" x="300"/>
     <use xlink:href="#SimSun-20" x="350"/>
     <use xlink:href="#SimSun-31" x="400"/>
     <use xlink:href="#SimSun-31" x="450"/>
     <use xlink:href="#SimSun-7ec4" x="500"/>
     <use xlink:href="#SimSun-49" x="600"/>
     <use xlink:href="#SimSun-2f" x="650"/>
     <use xlink:href="#SimSun-51" x="700"/>
    </g>
   </g>
   <g id="text_8">
    <!-- 每拍处理1个样点，全部有效支路并行；每1 ms保存积分结果 -->
    <g transform="translate(227.2 310.62375) scale(0.16 -0.16)">
     <defs>
      <path id="SimSun-5904" d="M 1700 3500
Q 1600 3200 1500 2900
Q 1750 1900 2200 1250
Q 2625 2150 2850 3500
L 1700 3500
z
M 3525 3500
L 3275 3350
Q 3100 2825 2925 2225
Q 2750 1600 2425 925
Q 2750 550 3487 312
Q 4225 75 6125 125
L 6125 50
Q 5700 -100 5650 -375
Q 4100 -300 3400 -50
Q 2700 200 2225 700
Q 1975 400 1537 75
Q 1100 -250 425 -500
L 375 -425
Q 950 -125 1362 237
Q 1775 600 2050 950
Q 1525 1875 1425 2750
Q 1050 1900 525 1275
L 425 1350
Q 1025 2300 1325 3450
Q 1625 4600 1650 5025
L 2225 4775
Q 2125 4650 2037 4475
Q 1950 4300 1750 3650
L 2825 3650
L 3100 3925
L 3525 3500
z
M 4375 3350
L 4375 1450
Q 4375 1075 4400 650
L 4000 475
Q 4025 950 4025 1450
L 4025 4150
Q 4025 4475 4000 5075
L 4575 4775
L 4375 4600
L 4375 3475
Q 5175 3175 5587 2887
Q 6000 2600 5925 2325
Q 5850 2050 5775 2050
Q 5675 2050 5575 2250
Q 5325 2650 4375 3350
z
" transform="scale(0.015625)"/>
      <path id="SimSun-7406" d="M 325 575
Q 1075 775 1350 875
L 1350 2550
L 1225 2550
Q 900 2550 625 2475
L 400 2700
L 1350 2700
L 1350 4225
L 1175 4225
Q 850 4225 575 4150
L 350 4375
L 1925 4375
L 2225 4675
L 2650 4225
L 1675 4225
L 1675 2700
L 1925 2700
L 2225 3000
L 2650 2550
L 1675 2550
L 1675 975
L 2700 1325
L 2725 1225
Q 1775 800 825 325
L 625 125
L 325 575
z
M 2800 1800
Q 2825 2600 2825 3350
Q 2825 4100 2800 4900
L 3125 4675
L 5200 4675
L 5375 4900
L 5750 4600
L 5550 4450
L 5550 3275
Q 5550 2475 5575 2025
L 5250 1875
L 5250 2175
L 4350 2175
L 4350 1100
L 5075 1100
L 5375 1400
L 5800 950
L 4350 950
L 4350 -75
L 5400 -75
L 5725 250
L 6175 -225
L 2775 -225
Q 2450 -225 2175 -300
L 1950 -75
L 4050 -75
L 4050 950
L 3500 950
Q 3175 950 2900 875
L 2675 1100
L 4050 1100
L 4050 2175
L 3125 2175
L 3125 1925
L 2800 1800
z
M 3125 4525
L 3125 3525
L 4050 3525
L 4050 4525
L 3125 4525
z
M 4350 4525
L 4350 3525
L 5250 3525
L 5250 4525
L 4350 4525
z
M 3125 3375
L 3125 2325
L 4050 2325
L 4050 3375
L 3125 3375
z
M 4350 3375
L 4350 2325
L 5250 2325
L 5250 3375
L 4350 3375
z
" transform="scale(0.015625)"/>
      <path id="SimSun-ff0c" d="M 1137 150
Q 1275 325 1375 650
Q 1150 650 1050 725
Q 950 800 912 925
Q 875 1050 900 1162
Q 925 1275 1075 1387
Q 1225 1500 1450 1450
Q 1675 1400 1725 1262
Q 1775 1125 1775 1000
Q 1775 850 1700 612
Q 1625 375 1362 87
Q 1100 -200 937 -225
Q 775 -250 775 -225
Q 775 -200 850 -150
Q 1000 -25 1137 150
z
" transform="scale(0.015625)"/>
      <path id="SimSun-6709" d="M 2225 3025
L 2225 2150
L 4525 2150
L 4525 3025
L 2225 3025
z
M 2225 2000
L 2225 1175
L 4525 1175
L 4525 2000
L 2225 2000
z
M 3650 0
Q 4075 -75 4300 -75
Q 4525 -75 4525 150
L 4525 1025
L 2225 1025
L 2225 -400
L 1850 -625
Q 1875 -200 1875 2625
Q 1175 1875 350 1375
L 275 1450
Q 975 2000 1487 2587
Q 2000 3175 2475 4075
L 1100 4075
Q 775 4075 500 4000
L 275 4225
L 2525 4225
Q 2800 4850 2875 5250
L 3500 4900
L 3250 4800
Q 3075 4450 2950 4225
L 5075 4225
L 5500 4650
L 6075 4075
L 2900 4075
Q 2625 3575 2325 3175
L 4475 3175
L 4675 3425
L 5100 3100
L 4875 2925
L 4875 -25
Q 4875 -425 4325 -625
Q 4350 -325 3650 -125
L 3650 0
z
" transform="scale(0.015625)"/>
      <path id="SimSun-6548" d="M 575 4025
L 1975 4025
Q 1950 4250 1837 4500
Q 1725 4750 1450 5100
L 1525 5150
Q 2000 4875 2175 4687
Q 2350 4500 2350 4350
Q 2350 4200 2200 4025
L 2850 4025
L 3150 4325
L 3600 3875
L 1400 3875
Q 1075 3875 800 3800
L 575 4025
z
M 1425 3675
L 1900 3350
L 1675 3250
Q 950 2225 475 1875
L 400 1925
Q 1075 2700 1425 3675
z
M 2300 3575
L 2350 3650
Q 2900 3400 3075 3250
Q 3250 3100 3250 2950
Q 3250 2850 3187 2700
Q 3125 2550 3075 2550
Q 3000 2550 2900 2775
Q 2725 3150 2300 3575
z
M 1250 2225
Q 1675 1950 2075 1625
Q 2375 2250 2450 2650
L 2900 2275
Q 2725 2225 2300 1425
Q 2700 1075 2862 862
Q 3025 650 3025 475
Q 3025 375 2962 237
Q 2900 100 2875 100
Q 2800 100 2700 350
Q 2525 700 2150 1175
Q 1425 100 475 -475
L 425 -400
Q 1300 300 1950 1400
Q 1525 1850 1200 2150
L 1250 2225
z
M 4050 3500
L 3950 3250
Q 4150 2050 4525 1275
Q 4950 2100 5125 3500
L 4050 3500
z
M 4175 5250
L 4775 4950
Q 4600 4875 4525 4725
Q 4450 4575 4100 3650
L 5375 3650
L 5675 3950
L 6125 3500
L 5475 3500
Q 5275 1975 4700 950
Q 5350 0 6100 -125
L 6100 -225
Q 5650 -250 5550 -500
Q 4975 -75 4475 725
Q 3650 -125 2450 -625
L 2400 -550
Q 3650 125 4325 1000
Q 3925 2025 3850 3050
Q 3550 2400 3225 2000
L 3150 2050
Q 3825 3350 4175 5250
z
" transform="scale(0.015625)"/>
      <path id="SimSun-ff1b" d="M 1350 50
Q 1175 50 1062 87
Q 950 125 900 225
Q 850 325 862 437
Q 875 550 937 625
Q 1000 700 1087 737
Q 1175 775 1225 775
Q 1300 775 1412 737
Q 1525 700 1600 562
Q 1675 425 1675 300
Q 1675 175 1612 -37
Q 1550 -250 1375 -387
Q 1200 -525 1062 -550
Q 925 -575 925 -550
Q 925 -525 1000 -500
Q 1125 -400 1212 -287
Q 1300 -175 1350 50
z
M 1512 2200
Q 1675 2150 1687 1862
Q 1700 1575 1525 1487
Q 1350 1400 1250 1400
Q 1150 1400 975 1500
Q 800 1600 812 1837
Q 825 2075 975 2162
Q 1125 2250 1250 2250
Q 1350 2250 1512 2200
z
" transform="scale(0.015625)"/>
      <path id="SimSun-6d" d="M 175 2900
Q 300 2900 425 2925
Q 550 2950 625 3000
L 675 3000
L 675 2575
Q 800 2775 950 2862
Q 1100 2950 1275 2950
Q 1500 2950 1625 2862
Q 1750 2775 1775 2575
Q 1900 2775 2062 2862
Q 2225 2950 2400 2950
Q 2700 2950 2812 2775
Q 2925 2600 2925 2325
L 2925 425
Q 2925 325 2975 287
Q 3025 250 3125 250
L 3175 250
L 3175 100
L 2325 100
L 2325 250
L 2375 250
Q 2475 250 2525 287
Q 2575 325 2575 425
L 2575 2300
Q 2575 2575 2512 2662
Q 2450 2750 2325 2750
Q 2150 2750 2012 2625
Q 1875 2500 1800 2275
L 1800 425
Q 1800 325 1850 287
Q 1900 250 2000 250
L 2050 250
L 2050 100
L 1200 100
L 1200 250
L 1250 250
Q 1350 250 1400 287
Q 1450 325 1450 425
L 1450 2300
Q 1450 2525 1400 2637
Q 1350 2750 1200 2750
Q 1025 2750 887 2625
Q 750 2500 675 2250
L 675 425
Q 675 325 725 287
Q 775 250 875 250
L 925 250
L 925 100
L 75 100
L 75 250
L 125 250
Q 225 250 275 287
Q 325 325 325 425
L 325 2600
Q 325 2675 300 2712
Q 275 2750 200 2750
L 100 2750
L 100 2900
L 175 2900
z
" transform="scale(0.015625)"/>
      <path id="SimSun-73" d="M 625 2175
Q 625 2550 912 2750
Q 1200 2950 1600 2950
Q 1825 2950 2025 2900
Q 2225 2825 2300 2825
Q 2375 2825 2425 2850
Q 2475 2875 2550 2950
L 2650 2125
L 2500 2100
Q 2400 2425 2162 2612
Q 1925 2800 1625 2800
Q 1300 2800 1112 2675
Q 925 2550 925 2325
Q 925 2125 1012 2012
Q 1100 1900 1325 1850
Q 1500 1775 1775 1700
Q 2025 1600 2250 1500
Q 2450 1400 2587 1237
Q 2725 1075 2725 875
Q 2725 500 2462 287
Q 2200 75 1700 75
Q 1375 75 1225 150
Q 1050 200 950 200
Q 875 200 787 162
Q 700 125 600 75
L 525 1000
L 675 1025
Q 750 625 1000 425
Q 1250 225 1700 225
Q 2050 225 2237 350
Q 2425 475 2425 725
Q 2425 900 2325 1012
Q 2225 1125 2125 1175
Q 1875 1275 1575 1400
Q 1275 1500 1050 1600
Q 825 1700 725 1850
Q 625 2000 625 2175
z
" transform="scale(0.015625)"/>
     </defs>
     <use xlink:href="#SimSun-6bcf"/>
     <use xlink:href="#SimSun-62cd" x="100"/>
     <use xlink:href="#SimSun-5904" x="200"/>
     <use xlink:href="#SimSun-7406" x="300"/>
     <use xlink:href="#SimSun-31" x="400"/>
     <use xlink:href="#SimSun-4e2a" x="450"/>
     <use xlink:href="#SimSun-6837" x="550"/>
     <use xlink:href="#SimSun-70b9" x="650"/>
     <use xlink:href="#SimSun-ff0c" x="750"/>
     <use xlink:href="#SimSun-5168" x="850"/>
     <use xlink:href="#SimSun-90e8" x="950"/>
     <use xlink:href="#SimSun-6709" x="1050"/>
     <use xlink:href="#SimSun-6548" x="1150"/>
     <use xlink:href="#SimSun-652f" x="1250"/>
     <use xlink:href="#SimSun-8def" x="1350"/>
     <use xlink:href="#SimSun-5e76" x="1450"/>
     <use xlink:href="#SimSun-884c" x="1550"/>
     <use xlink:href="#SimSun-ff1b" x="1650"/>
     <use xlink:href="#SimSun-6bcf" x="1750"/>
     <use xlink:href="#SimSun-31" x="1850"/>
     <use xlink:href="#SimSun-20" x="1900"/>
     <use xlink:href="#SimSun-6d" x="1950"/>
     <use xlink:href="#SimSun-73" x="2000"/>
     <use xlink:href="#SimSun-4fdd" x="2050"/>
     <use xlink:href="#SimSun-5b58" x="2150"/>
     <use xlink:href="#SimSun-79ef" x="2250"/>
     <use xlink:href="#SimSun-5206" x="2350"/>
     <use xlink:href="#SimSun-7ed3" x="2450"/>
     <use xlink:href="#SimSun-679c" x="2550"/>
    </g>
   </g>
  </g>
 </g>
 <defs>
  <clipPath id="pc6f9dab54a">
   <rect x="0" y="0" width="878.4" height="327.6"/>
  </clipPath>
 </defs>
</svg>
