<?xml version="1.0" encoding="utf-8" standalone="no"?>
<!DOCTYPE svg PUBLIC "-//W3C//DTD SVG 1.1//EN"
  "http://www.w3.org/Graphics/SVG/1.1/DTD/svg11.dtd">
<svg xmlns:xlink="http://www.w3.org/1999/xlink" width="864pt" height="252pt" viewBox="0 0 864 252" xmlns="http://www.w3.org/2000/svg" version="1.1">
 <metadata>
  <rdf:RDF xmlns:dc="http://purl.org/dc/elements/1.1/" xmlns:cc="http://creativecommons.org/ns#" xmlns:rdf="http://www.w3.org/1999/02/22-rdf-syntax-ns#">
   <cc:Work>
    <dc:type rdf:resource="http://purl.org/dc/dcmitype/StillImage"/>
    <dc:format>image/svg+xml</dc:format>
    <dc:creator>
     <cc:Agent>
      <dc:title>Matplotlib v3.6.3, https://matplotlib.org/</dc:title>
     </cc:Agent>
    </dc:creator>
   </cc:Work>
  </rdf:RDF>
 </metadata>
 <defs>
  <style type="text/css">*{stroke-linejoin: round; stroke-linecap: butt}</style>
 </defs>
 <g id="figure_1">
  <g id="patch_1">
   <path d="M 0 252
L 864 252
L 864 0
L 0 0
z
" style="fill: #ffffff"/>
  </g>
  <g id="axes_1">
   <g id="patch_2">
    <path d="M 21.6 111.6
L 154.8 111.6
L 154.8 169.2
L 21.6 169.2
z
" clip-path="url(#pa920d951b0)" style="fill: #ffffff; stroke: #000000; stroke-linejoin: miter"/>
   </g>
   <g id="patch_3">
    <path d="M 183.6 111.6
L 309.6 111.6
L 309.6 169.2
L 183.6 169.2
z
" clip-path="url(#pa920d951b0)" style="fill: #ffffff; stroke: #000000; stroke-linejoin: miter"/>
   </g>
   <g id="patch_4">
    <path d="M 345.6 111.6
L 489.6 111.6
L 489.6 169.2
L 345.6 169.2
z
" clip-path="url(#pa920d951b0)" style="fill: #ffffff; stroke: #000000; stroke-linejoin: miter"/>
   </g>
   <g id="patch_5">
    <path d="M 525.6 111.6
L 655.2 111.6
L 655.2 169.2
L 525.6 169.2
z
" clip-path="url(#pa920d951b0)" style="fill: #ffffff; stroke: #000000; stroke-linejoin: miter"/>
   </g>
   <g id="patch_6">
    <path d="M 691.2 111.6
L 842.4 111.6
L 842.4 169.2
L 691.2 169.2
z
" clip-path="url(#pa920d951b0)" style="fill: #ffffff; stroke: #000000; stroke-linejoin: miter"/>
   </g>
   <g id="patch_7">
    <path d="M 154.8 140.4
Q 169.2 140.4 182.481966 140.4
" clip-path="url(#pa920d951b0)" style="fill: none; stroke: #000000; stroke-linecap: round"/>
    <path d="M 177.681966 138
L 182.481966 140.4
L 177.681966 142.8
L 177.681966 138
z
" clip-path="url(#pa920d951b0)" style="stroke: #000000; stroke-linecap: round"/>
   </g>
   <g id="patch_8">
    <path d="M 309.6 140.4
Q 327.6 140.4 344.481966 140.4
" clip-path="url(#pa920d951b0)" style="fill: none; stroke: #000000; stroke-linecap: round"/>
    <path d="M 339.681966 138
L 344.481966 140.4
L 339.681966 142.8
L 339.681966 138
z
" clip-path="url(#pa920d951b0)" style="stroke: #000000; stroke-linecap: round"/>
   </g>
   <g id="patch_9">
    <path d="M 489.6 140.4
Q 507.6 140.4 524.481966 140.4
" clip-path="url(#pa920d951b0)" style="fill: none; stroke: #000000; stroke-linecap: round"/>
    <path d="M 519.681966 138
L 524.481966 140.4
L 519.681966 142.8
L 519.681966 138
z
" clip-path="url(#pa920d951b0)" style="stroke: #000000; stroke-linecap: round"/>
   </g>
   <g id="patch_10">
    <path d="M 655.2 140.4
Q 673.2 140.4 690.081966 140.4
" clip-path="url(#pa920d951b0)" style="fill: none; stroke: #000000; stroke-linecap: round"/>
    <path d="M 685.281966 138
L 690.081966 140.4
L 685.281966 142.8
L 685.281966 138
z
" clip-path="url(#pa920d951b0)" style="stroke: #000000; stroke-linecap: round"/>
   </g>
   <g id="patch_11">
    <path d="M 183.6 18
L 309.6 18
L 309.6 68.4
L 183.6 68.4
z
" clip-path="url(#pa920d951b0)" style="fill: #ffffff; stroke: #000000; stroke-linejoin: miter"/>
   </g>
   <g id="patch_12">
    <path d="M 345.6 18
L 489.6 18
L 489.6 68.4
L 345.6 68.4
z
" clip-path="url(#pa920d951b0)" style="fill: #ffffff; stroke: #000000; stroke-linejoin: miter"/>
   </g>
   <g id="patch_13">
    <path d="M 309.6 43.2
Q 327.6 43.2 344.481966 43.2
" clip-path="url(#pa920d951b0)" style="fill: none; stroke: #000000; stroke-linecap: round"/>
    <path d="M 339.681966 40.8
L 344.481966 43.2
L 339.681966 45.6
L 339.681966 40.8
z
" clip-path="url(#pa920d951b0)" style="stroke: #000000; stroke-linecap: round"/>
   </g>
   <g id="patch_14">
    <path d="M 417.6 68.4
Q 417.6 90 417.6 110.481966
" clip-path="url(#pa920d951b0)" style="fill: none; stroke: #000000; stroke-linecap: round"/>
    <path d="M 420 105.681966
L 417.6 110.481966
L 415.2 105.681966
L 420 105.681966
z
" clip-path="url(#pa920d951b0)" style="stroke: #000000; stroke-linecap: round"/>
   </g>
   <g id="text_1">
    <!-- 原始样点读取 -->
    <g transform="translate(40.2 136.298438) scale(0.16 -0.16)">
     <defs>
      <path id="SimSun-539f" d="M 1150 4325
Q 1150 4650 1125 5050
L 1500 4850
L 4900 4850
L 5275 5225
L 5800 4700
L 1500 4700
L 1500 2550
Q 1525 1700 1350 975
Q 1175 250 475 -500
L 400 -450
Q 900 300 1037 962
Q 1175 1625 1150 2425
L 1150 4325
z
M 2775 125
Q 3075 100 3350 87
Q 3625 75 3625 325
L 3625 1925
L 2575 1925
L 2575 1750
L 2225 1600
Q 2250 2000 2250 2762
Q 2250 3525 2225 4000
L 2575 3825
L 3175 3825
Q 3400 4350 3475 4675
L 3925 4450
Q 3750 4350 3612 4212
Q 3475 4075 3325 3825
L 4900 3825
L 5075 4075
L 5450 3775
L 5275 3625
L 5275 2400
Q 5275 2125 5300 1775
L 4950 1625
L 4950 1925
L 3950 1925
L 3950 175
Q 3975 -300 3450 -475
Q 3425 -125 2775 25
L 2775 125
z
M 2575 3675
L 2575 2950
L 4950 2950
L 4950 3675
L 2575 3675
z
M 2575 2800
L 2575 2075
L 4950 2075
L 4950 2800
L 2575 2800
z
M 2775 1425
L 3200 1050
Q 2925 950 2425 525
Q 1925 100 1350 -200
L 1300 -125
Q 1775 250 2175 675
Q 2575 1100 2775 1425
z
M 4275 1300
Q 5750 700 5812 512
Q 5875 325 5875 200
Q 5875 50 5837 -50
Q 5800 -150 5750 -150
Q 5700 -150 5600 0
Q 5425 250 5075 575
Q 4725 900 4250 1200
L 4275 1300
z
" transform="scale(0.015625)"/>
      <path id="SimSun-59cb" d="M 3600 1800
L 3600 150
L 5250 150
L 5250 1800
L 3600 1800
z
M 4025 5250
L 4575 4900
L 4350 4775
Q 3575 3375 3275 3025
Q 3875 3050 5450 3100
Q 5200 3575 4775 4025
L 4850 4100
Q 5850 3425 5912 3250
Q 5975 3075 5975 2950
Q 5975 2775 5875 2650
Q 5775 2525 5725 2525
Q 5675 2525 5650 2625
Q 5575 2800 5500 2975
Q 4425 2900 3887 2787
Q 3350 2675 3150 2500
L 2850 3025
Q 3125 3125 3437 3700
Q 3750 4275 4025 5250
z
M 5600 1700
Q 5600 -50 5625 -325
L 5250 -500
L 5250 0
L 3600 0
L 3600 -400
L 3225 -550
Q 3250 -175 3250 762
Q 3250 1700 3225 2175
L 3600 1950
L 5200 1950
L 5375 2200
L 5800 1875
L 5600 1700
z
M 1500 3525
Q 1325 2950 900 1500
Q 1350 1350 1725 1200
Q 2100 2050 2325 3525
L 1500 3525
z
M 2050 4925
L 1825 4775
Q 1725 4450 1525 3675
L 2300 3675
L 2475 3900
L 2875 3575
L 2675 3425
Q 2400 1925 2050 1075
Q 2525 825 2625 700
Q 2725 575 2725 375
Q 2725 250 2700 137
Q 2675 25 2650 25
Q 2575 25 2450 225
Q 2225 550 1925 800
Q 1300 -100 375 -600
L 325 -525
Q 1200 175 1625 950
Q 1000 1300 575 1450
Q 875 2450 1150 3525
L 1100 3525
Q 775 3525 500 3450
L 275 3675
L 1175 3675
Q 1425 4750 1475 5200
L 2050 4925
z
" transform="scale(0.015625)"/>
      <path id="SimSun-6837" d="M 2800 5025
L 2850 5100
Q 3625 4675 3700 4512
Q 3775 4350 3775 4300
Q 3775 4175 3675 4037
Q 3575 3900 3550 3900
Q 3450 3900 3375 4125
Q 3250 4475 2800 5025
z
M 4275 1325
Q 4275 75 4300 -475
L 3900 -625
Q 3925 275 3925 1325
L 3075 1325
Q 2750 1325 2475 1250
L 2250 1475
L 3925 1475
L 3925 2525
L 3500 2525
Q 3175 2525 2900 2450
L 2675 2675
L 3925 2675
L 3925 3600
L 3475 3600
Q 3150 3600 2875 3525
L 2650 3750
L 4275 3750
Q 4725 4600 4875 5250
L 5400 4900
Q 5150 4775 4900 4425
Q 4650 4075 4425 3750
L 5150 3750
L 5450 4050
L 5900 3600
L 4275 3600
L 4275 2675
L 4975 2675
L 5275 2975
L 5725 2525
L 4275 2525
L 4275 1475
L 5275 1475
L 5600 1800
L 6075 1325
L 4275 1325
z
M 1650 750
Q 1650 400 1675 -500
L 1275 -650
Q 1300 825 1300 2375
Q 875 1375 300 725
L 225 775
Q 925 1875 1300 3600
L 1125 3600
Q 800 3600 525 3525
L 300 3750
L 1300 3750
Q 1300 4375 1275 5250
L 1850 4950
L 1650 4775
L 1650 3750
L 1975 3750
L 2250 4025
L 2675 3600
L 1650 3600
L 1650 2925
Q 2125 2700 2300 2550
Q 2475 2400 2475 2250
Q 2475 2150 2412 2000
Q 2350 1850 2300 1850
Q 2225 1850 2125 2075
Q 1950 2450 1650 2775
L 1650 750
z
" transform="scale(0.015625)"/>
      <path id="SimSun-70b9" d="M 1875 2900
L 1875 1525
L 4625 1525
L 4625 2900
L 1875 2900
z
M 1475 925
Q 1500 1450 1500 2050
Q 1500 2650 1475 3250
L 1875 3050
L 2950 3050
Q 2950 4725 2925 5225
L 3500 5000
L 3300 4800
L 3300 4200
L 4925 4200
L 5250 4525
L 5700 4050
L 3300 4050
L 3300 3050
L 4575 3050
L 4825 3300
L 5200 2925
L 4975 2750
Q 4975 1575 5000 1150
L 4625 1000
L 4625 1375
L 1875 1375
L 1875 1075
L 1475 925
z
M 1350 800
L 1450 800
Q 1300 -175 1137 -337
Q 975 -500 850 -500
Q 775 -500 675 -437
Q 575 -375 575 -300
Q 575 -225 700 -125
Q 925 50 1037 200
Q 1150 350 1350 800
z
M 2225 675
L 2275 750
Q 2800 350 2862 187
Q 2925 25 2925 -50
Q 2925 -225 2812 -337
Q 2700 -450 2675 -450
Q 2575 -450 2550 -200
Q 2500 175 2225 675
z
M 3550 700
L 3600 775
Q 4075 425 4187 225
Q 4300 25 4300 -50
Q 4300 -175 4187 -300
Q 4075 -425 4050 -425
Q 3950 -425 3900 -125
Q 3825 300 3550 700
z
M 4900 775
L 4950 850
Q 5450 500 5637 250
Q 5825 0 5825 -125
Q 5825 -250 5725 -375
Q 5625 -500 5600 -500
Q 5500 -500 5425 -200
Q 5300 225 4900 775
z
" transform="scale(0.015625)"/>
      <path id="SimSun-8bfb" d="M 1450 275
L 2375 850
L 2425 775
Q 1600 50 1325 -325
L 1025 50
Q 1125 175 1125 400
L 1125 2850
L 1050 2850
Q 725 2850 450 2775
L 225 3000
L 1125 3000
L 1350 3225
L 1675 2900
L 1450 2725
L 1450 275
z
M 750 4925
L 800 5000
Q 1150 4800 1387 4600
Q 1625 4400 1587 4200
Q 1550 4000 1400 3925
Q 1250 3850 1175 4200
Q 1100 4525 750 4925
z
M 5100 2700
L 5425 3325
L 2575 3325
Q 2375 3325 2100 3250
L 1875 3475
L 3650 3475
L 3650 4250
L 3025 4250
Q 2700 4250 2425 4175
L 2200 4400
L 3650 4400
Q 3650 4825 3625 5250
L 4175 5000
L 3975 4825
L 3975 4400
L 4875 4400
L 5150 4675
L 5550 4250
L 3975 4250
L 3975 3475
L 5375 3475
L 5625 3750
L 6075 3300
Q 5725 3275 5200 2650
L 5100 2700
z
M 2750 2925
L 2775 3000
Q 3350 2825 3462 2687
Q 3575 2550 3575 2450
Q 3575 2350 3512 2250
Q 3450 2150 3425 2150
Q 3350 2150 3275 2350
Q 3125 2625 2750 2925
z
M 2375 2275
Q 2975 2075 3100 1950
Q 3225 1825 3225 1700
Q 3225 1625 3162 1512
Q 3100 1400 3075 1400
Q 3000 1400 2900 1625
Q 2725 1925 2350 2200
L 2375 2275
z
M 4475 2625
Q 4425 1550 4350 1175
L 5275 1175
L 5600 1500
L 6050 1025
L 4325 1025
Q 4250 825 4125 575
Q 4850 350 5200 150
Q 5550 -50 5600 -237
Q 5650 -425 5587 -500
Q 5525 -575 5475 -575
Q 5350 -575 5175 -325
Q 4925 25 4075 475
Q 3425 -425 1975 -650
L 1950 -550
Q 3600 -100 3975 1025
L 2700 1025
Q 2500 1025 2225 950
L 2000 1175
L 4000 1175
Q 4100 1800 4100 3075
L 4675 2800
L 4475 2625
z
" transform="scale(0.015625)"/>
      <path id="SimSun-53d6" d="M 1300 2225
L 1300 1125
L 2425 1350
L 2425 2225
L 1300 2225
z
M 2750 1225
Q 2750 100 2775 -350
L 2400 -575
Q 2425 125 2425 1150
Q 775 700 575 425
L 325 925
Q 625 975 975 1050
L 975 4650
L 775 4650
L 525 4600
L 325 4800
L 2675 4800
L 2975 5100
L 3425 4650
L 2750 4650
L 2750 1425
L 3500 1575
L 3525 1475
L 2750 1225
z
M 1300 4650
L 1300 3600
L 2425 3600
L 2425 4650
L 1300 4650
z
M 2425 3450
L 1300 3450
L 1300 2375
L 2425 2375
L 2425 3450
z
M 2925 4175
L 5050 4175
L 5250 4425
L 5700 4075
L 5475 3925
Q 5100 2350 4550 1275
Q 5200 375 6100 125
L 6100 25
Q 5775 -25 5600 -275
Q 4875 225 4375 975
Q 3700 25 2825 -525
L 2775 -450
Q 3650 325 4175 1250
Q 3650 2625 3525 4025
L 3350 4025
L 3125 3975
L 2925 4175
z
M 3650 4025
Q 3900 2525 4350 1600
Q 4825 2650 5075 4025
L 3650 4025
z
" transform="scale(0.015625)"/>
     </defs>
     <use xlink:href="#SimSun-539f"/>
     <use xlink:href="#SimSun-59cb" x="100"/>
     <use xlink:href="#SimSun-6837" x="200"/>
     <use xlink:href="#SimSun-70b9" x="300"/>
     <use xlink:href="#SimSun-8bfb" x="400"/>
     <use xlink:href="#SimSun-53d6" x="500"/>
    </g>
    <!-- s4 I/Q -->
    <g transform="translate(64.2 155.126563) scale(0.16 -0.16)">
     <defs>
      <path id="SimSun-73" d="M 625 2175
Q 625 2550 912 2750
Q 1200 2950 1600 2950
Q 1825 2950 2025 2900
Q 2225 2825 2300 2825
Q 2375 2825 2425 2850
Q 2475 2875 2550 2950
L 2650 2125
L 2500 2100
Q 2400 2425 2162 2612
Q 1925 2800 1625 2800
Q 1300 2800 1112 2675
Q 925 2550 925 2325
Q 925 2125 1012 2012
Q 1100 1900 1325 1850
Q 1500 1775 1775 1700
Q 2025 1600 2250 1500
Q 2450 1400 2587 1237
Q 2725 1075 2725 875
Q 2725 500 2462 287
Q 2200 75 1700 75
Q 1375 75 1225 150
Q 1050 200 950 200
Q 875 200 787 162
Q 700 125 600 75
L 525 1000
L 675 1025
Q 750 625 1000 425
Q 1250 225 1700 225
Q 2050 225 2237 350
Q 2425 475 2425 725
Q 2425 900 2325 1012
Q 2225 1125 2125 1175
Q 1875 1275 1575 1400
Q 1275 1500 1050 1600
Q 825 1700 725 1850
Q 625 2000 625 2175
z
" transform="scale(0.015625)"/>
      <path id="SimSun-34" d="M 2300 575
Q 2300 400 2400 325
Q 2500 250 2675 250
L 2900 250
L 2900 100
L 1250 100
L 1250 250
L 1525 250
Q 1725 250 1812 325
Q 1900 400 1900 575
L 1900 1400
L 225 1400
L 225 1525
L 2050 4425
L 2300 4425
L 2300 1550
L 2975 1550
L 2975 1400
L 2300 1400
L 2300 575
z
M 1875 3800
L 450 1550
L 1900 1550
L 1900 3800
L 1875 3800
z
" transform="scale(0.015625)"/>
      <path id="SimSun-20" d="M 0 0
Q 0 0 0 0
z
" transform="scale(0.015625)"/>
      <path id="SimSun-49" d="M 600 4225
L 600 4375
L 2600 4375
L 2600 4225
L 2025 4225
Q 1925 4225 1862 4175
Q 1800 4125 1800 4025
L 1800 450
Q 1800 350 1862 300
Q 1925 250 2025 250
L 2600 250
L 2600 100
L 600 100
L 600 250
L 1175 250
Q 1300 250 1350 300
Q 1400 350 1400 450
L 1400 4025
Q 1400 4125 1350 4175
Q 1300 4225 1175 4225
L 600 4225
z
" transform="scale(0.015625)"/>
      <path id="SimSun-2f" d="M 400 -475
L 225 -375
L 2775 4975
L 2950 4875
L 400 -475
z
" transform="scale(0.015625)"/>
      <path id="SimSun-51" d="M 1850 275
Q 1775 650 1675 887
Q 1575 1125 1375 1125
Q 1275 1125 1137 1025
Q 1000 925 1000 700
Q 1000 525 1175 387
Q 1350 250 1600 250
Q 1700 250 1762 250
Q 1825 250 1850 275
z
M 1425 1375
Q 1725 1375 1887 1162
Q 2050 950 2175 525
Q 2350 650 2437 1087
Q 2525 1525 2525 2250
Q 2525 3225 2312 3737
Q 2100 4250 1600 4250
Q 1175 4250 925 3750
Q 675 3250 675 2250
Q 675 1750 712 1412
Q 750 1075 825 925
Q 925 1150 1050 1262
Q 1175 1375 1425 1375
z
M 1600 75
Q 1050 75 625 575
Q 200 1075 200 2250
Q 200 3250 575 3837
Q 950 4425 1600 4425
Q 2200 4425 2600 3862
Q 3000 3300 3000 2250
Q 3000 1375 2787 925
Q 2575 475 2275 250
Q 2325 75 2400 0
Q 2475 -75 2550 -75
Q 2650 -75 2725 -25
Q 2800 25 2825 150
L 2925 100
Q 2850 -200 2725 -337
Q 2600 -475 2425 -475
Q 2300 -475 2187 -400
Q 2075 -325 1900 100
Q 1875 75 1800 75
Q 1725 75 1600 75
z
" transform="scale(0.015625)"/>
     </defs>
     <use xlink:href="#SimSun-73"/>
     <use xlink:href="#SimSun-34" x="50"/>
     <use xlink:href="#SimSun-20" x="100"/>
     <use xlink:href="#SimSun-49" x="150"/>
     <use xlink:href="#SimSun-2f" x="200"/>
     <use xlink:href="#SimSun-51" x="250"/>
    </g>
   </g>
   <g id="text_2">
    <!-- 输入拆分 -->
    <g transform="translate(214.6 135.46875) scale(0.16 -0.16)">
     <defs>
      <path id="SimSun-8f93" d="M 2925 2525
L 2925 1875
L 3700 1875
L 3700 2525
L 2925 2525
z
M 2925 1725
L 2925 1050
L 3700 1050
L 3700 1725
L 2925 1725
z
M 4100 4750
Q 3300 3375 2125 2825
L 2075 2900
Q 2800 3400 3237 4025
Q 3675 4650 3900 5275
L 4400 4975
L 4200 4850
Q 4950 3625 6150 3400
L 6150 3300
Q 5775 3275 5700 3025
Q 4725 3550 4100 4750
z
M 2600 -650
Q 2625 -150 2625 1087
Q 2625 2325 2600 2850
L 2950 2675
L 3650 2675
L 3825 2900
L 4175 2625
L 4000 2475
L 4000 -150
Q 4000 -525 3625 -650
Q 3550 -350 3150 -275
L 3150 -175
Q 3400 -200 3550 -200
Q 3700 -200 3700 0
L 3700 900
L 2925 900
L 2925 -475
L 2600 -650
z
M 4500 350
Q 4525 700 4525 1475
Q 4525 2250 4500 2625
L 4975 2375
L 4825 2250
L 4825 500
L 4500 350
z
M 5350 2125
Q 5350 2400 5325 2875
L 5825 2650
L 5650 2475
L 5650 -75
Q 5675 -475 5175 -625
Q 5150 -300 4525 -175
L 4525 -75
Q 5000 -100 5175 -100
Q 5350 -100 5350 100
L 5350 2125
z
M 1475 2525
Q 1475 3175 1450 3525
L 1975 3275
L 1800 3100
L 1800 2525
L 1925 2525
L 2175 2750
L 2525 2375
L 1800 2375
L 1800 1325
L 2475 1450
L 2500 1350
L 1800 1150
Q 1800 -50 1825 -500
L 1450 -650
Q 1475 400 1475 1050
Q 550 800 475 625
L 250 1050
Q 800 1125 1475 1250
L 1475 2375
L 750 2375
L 550 2200
L 275 2600
Q 450 2650 600 3000
Q 750 3350 950 3950
L 900 3950
Q 725 3950 450 3875
L 225 4100
L 1000 4100
Q 1150 4700 1275 5200
L 1750 4925
Q 1625 4850 1550 4712
Q 1475 4575 1325 4100
L 2025 4100
L 2325 4375
L 2700 3950
L 1275 3950
L 750 2525
L 1475 2525
z
M 3150 3450
L 4425 3450
L 4675 3700
L 5050 3300
L 3850 3300
L 3200 3400
L 3350 3250
L 3150 3450
z
" transform="scale(0.015625)"/>
      <path id="SimSun-5165" d="M 1825 4775
L 2050 5000
Q 2975 4675 3175 4287
Q 3375 3900 3650 3075
Q 3900 2250 4562 1375
Q 5225 500 6125 225
L 6125 125
Q 5700 125 5475 -200
Q 4850 275 4425 837
Q 4000 1400 3737 1975
Q 3475 2550 3250 3400
Q 2900 2250 2250 1337
Q 1600 425 275 -425
L 225 -325
Q 1350 550 2012 1562
Q 2675 2575 2950 3850
Q 3025 4150 2712 4375
Q 2400 4600 1825 4775
z
" transform="scale(0.015625)"/>
      <path id="SimSun-62c6" d="M 4725 1625
L 4725 275
Q 4725 -50 4750 -425
L 4350 -600
Q 4375 100 4375 475
L 4375 1800
Q 4075 2000 3675 2200
L 3725 2300
Q 4025 2200 4375 2050
L 4375 3075
L 3150 3075
Q 3225 400 1675 -625
L 1625 -525
Q 2300 125 2550 950
Q 2800 1775 2800 2900
Q 2800 4025 2775 4675
L 3200 4450
Q 3850 4575 4387 4750
Q 4925 4925 5225 5150
L 5600 4675
Q 5350 4675 4725 4550
Q 4075 4425 3150 4300
L 3150 3225
L 5325 3225
L 5650 3550
L 6125 3075
L 4725 3075
L 4725 1900
Q 5475 1525 5700 1300
Q 5925 1075 5900 900
Q 5875 725 5825 675
Q 5775 625 5750 625
Q 5650 625 5525 850
Q 5325 1125 4725 1625
z
M 1650 2450
L 2500 2850
L 2550 2775
L 1650 2225
L 1650 75
Q 1625 -350 1125 -525
Q 1150 -250 425 0
L 425 125
Q 1000 25 1150 37
Q 1300 50 1300 325
L 1300 2025
Q 650 1625 575 1475
L 250 1900
Q 525 1975 1300 2325
L 1300 3650
L 800 3650
L 500 3600
L 300 3800
L 1300 3800
Q 1300 4875 1275 5225
L 1875 4925
L 1650 4775
L 1650 3800
L 2000 3800
L 2250 4050
L 2650 3650
L 1650 3650
L 1650 2450
z
" transform="scale(0.015625)"/>
      <path id="SimSun-5206" d="M 2350 5050
L 2850 4675
L 2625 4550
Q 2200 3750 1687 3125
Q 1175 2500 375 2025
L 325 2100
Q 975 2625 1475 3337
Q 1975 4050 2350 5050
z
M 4100 4975
L 3900 4850
Q 4175 3850 4800 3300
Q 5425 2750 6125 2625
L 6125 2550
Q 5750 2500 5600 2225
Q 4775 2675 4287 3425
Q 3800 4175 3625 5175
L 4100 4975
z
M 1375 2625
L 4225 2625
L 4475 2875
L 4825 2525
L 4625 2375
Q 4575 400 4375 -12
Q 4175 -425 3675 -600
Q 3600 -200 2975 -25
L 2975 75
Q 3600 -25 3787 -12
Q 3975 0 4075 275
Q 4175 550 4275 2475
L 2975 2475
Q 2825 1400 2375 662
Q 1925 -75 650 -625
L 600 -525
Q 1725 50 2112 837
Q 2500 1625 2575 2475
L 1800 2475
L 1575 2425
L 1375 2625
z
" transform="scale(0.015625)"/>
     </defs>
     <use xlink:href="#SimSun-8f93"/>
     <use xlink:href="#SimSun-5165" x="100"/>
     <use xlink:href="#SimSun-62c6" x="200"/>
     <use xlink:href="#SimSun-5206" x="300"/>
    </g>
    <!-- 每点一对I/Q -->
    <g transform="translate(202.6 156.01875) scale(0.16 -0.16)">
     <defs>
      <path id="SimSun-6bcf" d="M 2375 4950
L 2175 4850
Q 2025 4650 1900 4475
L 4875 4475
L 5250 4850
L 5775 4325
L 1825 4325
Q 1500 3900 1175 3562
Q 850 3225 325 2900
L 275 2975
Q 750 3375 1200 4037
Q 1650 4700 1825 5275
L 2375 4950
z
M 1300 775
L 1475 2075
L 825 2075
L 450 2025
L 250 2225
L 1500 2225
L 1650 3825
L 2000 3600
L 4600 3600
L 4800 3875
L 5225 3550
L 5000 3375
L 4950 2225
L 5275 2225
L 5625 2575
L 6125 2075
L 4950 2075
L 4875 675
L 5150 675
L 5500 1025
L 6000 525
L 4850 525
Q 4800 -50 4675 -300
Q 4550 -550 4075 -650
Q 4100 -350 3425 -100
L 3425 25
Q 4050 -125 4237 -125
Q 4425 -125 4475 525
L 1650 525
L 1450 300
L 1100 625
L 1300 775
z
M 1975 3450
L 1850 2225
L 4600 2225
L 4650 3450
L 1975 3450
z
M 1825 2075
L 1650 675
L 4500 675
L 4575 2075
L 1825 2075
z
M 2725 3350
Q 3225 3150 3412 3025
Q 3600 2900 3600 2725
Q 3600 2600 3525 2450
Q 3450 2300 3425 2300
Q 3350 2300 3250 2525
Q 3100 2875 2675 3275
L 2725 3350
z
M 2675 1950
Q 3275 1675 3412 1525
Q 3550 1375 3550 1250
Q 3550 1100 3462 950
Q 3375 800 3325 800
Q 3250 800 3175 1050
Q 3050 1425 2625 1875
L 2675 1950
z
" transform="scale(0.015625)"/>
      <path id="SimSun-4e00" d="M 350 2650
L 5000 2650
L 5500 3050
L 6050 2500
L 1250 2500
Q 850 2500 575 2425
L 350 2650
z
" transform="scale(0.015625)"/>
      <path id="SimSun-5bf9" d="M 400 4250
L 2375 4250
L 2575 4500
L 3000 4150
L 2750 3950
Q 2400 2850 2075 2100
Q 2575 1375 2675 1062
Q 2775 750 2762 537
Q 2750 325 2662 237
Q 2575 150 2550 150
Q 2450 150 2375 575
Q 2250 1075 1925 1800
Q 1675 1350 1275 875
Q 875 400 250 -100
L 225 25
Q 675 450 1087 1037
Q 1500 1625 1725 2100
Q 1000 3125 675 3550
L 750 3625
Q 1300 3025 1850 2400
Q 2100 3050 2375 4100
L 1225 4100
Q 900 4100 625 4025
L 400 4250
z
M 3600 125
Q 4375 0 4537 25
Q 4700 50 4700 225
L 4700 3350
L 3525 3350
Q 3200 3350 2925 3275
L 2700 3500
L 4700 3500
L 4700 4350
Q 4700 4800 4675 5125
L 5275 4825
L 5050 4625
L 5050 3500
L 5325 3500
L 5650 3825
L 6125 3350
L 5050 3350
L 5050 50
Q 5050 -375 4500 -600
Q 4500 -300 3600 0
L 3600 125
z
M 3100 2775
L 3175 2825
Q 3700 2400 3812 2175
Q 3925 1950 3925 1800
Q 3925 1625 3800 1462
Q 3675 1300 3650 1300
Q 3550 1300 3525 1650
Q 3450 2125 3100 2775
z
" transform="scale(0.015625)"/>
     </defs>
     <use xlink:href="#SimSun-6bcf"/>
     <use xlink:href="#SimSun-70b9" x="100"/>
     <use xlink:href="#SimSun-4e00" x="200"/>
     <use xlink:href="#SimSun-5bf9" x="300"/>
     <use xlink:href="#SimSun-49" x="400"/>
     <use xlink:href="#SimSun-2f" x="450"/>
     <use xlink:href="#SimSun-51" x="500"/>
    </g>
   </g>
   <g id="text_3">
    <!-- 复数混频 -->
    <g transform="translate(385.6 135.4375) scale(0.16 -0.16)">
     <defs>
      <path id="SimSun-590d" d="M 2150 3675
L 2150 3075
L 4550 3075
L 4550 3675
L 2150 3675
z
M 2150 2925
L 2150 2300
L 4550 2300
L 4550 2925
L 2150 2925
z
M 2450 1525
Q 2875 975 3375 625
Q 3850 950 4400 1525
L 2450 1525
z
M 2050 5225
L 2550 4875
L 2300 4775
L 2100 4525
L 4975 4525
L 5325 4875
L 5825 4375
L 2025 4375
Q 1275 3525 500 3075
L 425 3150
Q 1125 3700 1500 4250
Q 1875 4800 2050 5225
z
M 2775 1900
L 2575 1800
L 2475 1675
L 4425 1675
L 4650 1900
L 5050 1500
L 4800 1400
Q 4225 825 3650 425
Q 4650 -150 6100 -150
L 6100 -250
Q 5775 -275 5650 -575
Q 4375 -425 3400 250
Q 2075 -500 450 -625
L 450 -525
Q 2200 -175 3125 450
Q 2675 925 2325 1475
Q 1775 775 875 250
L 850 325
Q 1900 1175 2300 2150
L 2150 2150
L 2150 2075
L 1750 1875
Q 1775 2425 1775 2962
Q 1775 3500 1750 4025
L 2150 3825
L 4500 3825
L 4725 4075
L 5150 3725
L 4925 3575
Q 4925 3275 4925 2862
Q 4925 2450 4950 2150
L 4550 2000
L 4550 2150
L 2325 2150
L 2775 1900
z
" transform="scale(0.015625)"/>
      <path id="SimSun-6570" d="M 1875 1525
Q 1675 1200 1500 900
Q 1825 825 2275 725
Q 2500 975 2725 1525
L 1875 1525
z
M 850 4900
Q 1325 4600 1425 4450
Q 1525 4300 1525 4225
Q 1525 4100 1437 3975
Q 1350 3850 1300 3850
Q 1225 3850 1150 4100
Q 1050 4450 775 4850
L 850 4900
z
M 3000 4975
L 3450 4675
Q 3250 4625 3100 4425
Q 2925 4225 2525 3825
L 2450 3875
Q 2925 4625 3000 4975
z
M 1875 5250
L 2425 5000
L 2225 4825
L 2225 3675
L 2850 3675
L 3125 3950
L 3550 3525
L 2225 3525
L 2225 3300
Q 2800 3175 2937 3062
Q 3075 2950 3075 2775
Q 3075 2700 3050 2587
Q 3025 2475 2975 2475
Q 2925 2475 2800 2650
Q 2600 2925 2225 3175
L 2225 2400
L 1925 2200
L 2275 2050
Q 2150 2000 1950 1675
L 2725 1675
L 2900 1900
L 3275 1575
L 3050 1450
Q 2800 875 2600 650
Q 3000 550 3137 437
Q 3275 325 3275 150
Q 3275 -25 3200 -25
Q 3125 -25 3025 75
Q 2750 275 2400 425
Q 1525 -275 325 -500
L 300 -425
Q 1450 -50 2100 550
Q 1600 725 1125 800
Q 1225 950 1525 1525
L 1200 1525
Q 875 1525 600 1450
L 375 1675
L 1575 1675
Q 1675 1925 1775 2275
L 1900 2225
L 1900 3250
Q 1225 2475 350 2050
L 300 2125
Q 1225 2775 1700 3525
L 1250 3525
Q 925 3525 650 3450
L 425 3675
L 1900 3675
Q 1900 4575 1875 5250
z
M 3925 3525
Q 4050 2075 4525 1100
Q 4925 1950 5025 3525
L 3925 3525
z
M 4050 5250
L 4625 4925
Q 4425 4850 4325 4625
Q 4225 4400 3950 3675
L 5375 3675
L 5675 3975
L 6125 3525
L 5400 3525
Q 5250 1675 4750 775
Q 5325 75 6100 -100
L 6100 -200
Q 5625 -275 5600 -500
Q 4950 -50 4525 525
Q 3700 -275 2550 -650
L 2500 -575
Q 3650 -50 4325 800
Q 3850 1975 3825 3375
Q 3575 2725 3100 2150
L 3025 2200
Q 3625 3200 4050 5250
z
" transform="scale(0.015625)"/>
      <path id="SimSun-6df7" d="M 2975 4475
L 2975 3750
L 5125 3750
L 5125 4475
L 2975 4475
z
M 2975 3600
L 2975 2800
L 5125 2800
L 5125 3600
L 2975 3600
z
M 2625 2400
Q 2650 2975 2650 3612
Q 2650 4250 2625 4850
L 2975 4625
L 5075 4625
L 5325 4875
L 5675 4525
L 5450 4400
Q 5450 2900 5475 2600
L 5125 2400
L 5125 2650
L 2975 2650
L 2975 2550
L 2625 2400
z
M 2525 550
L 2525 1600
Q 2525 2075 2500 2375
L 3050 2100
L 2850 1900
L 2850 1475
L 3275 1475
L 3550 1775
L 3925 1325
L 2850 1325
L 2850 225
L 3850 575
L 3875 475
Q 3000 50 2700 -325
L 2425 75
Q 2550 175 2525 550
z
M 4100 1875
Q 4100 2300 4075 2575
L 4650 2275
L 4425 2100
L 4425 1300
Q 5175 1750 5450 2200
L 5825 1750
L 5575 1725
Q 4850 1325 4425 1150
L 4425 275
Q 4425 -25 4675 -25
L 5425 -25
Q 5575 0 5612 250
Q 5650 500 5675 1050
L 5800 1050
Q 5800 450 5862 300
Q 5925 150 6125 25
Q 5925 -350 5450 -325
L 4550 -325
Q 4100 -325 4100 175
L 4100 1875
z
M 2450 4175
Q 1550 1500 1462 1187
Q 1375 875 1387 425
Q 1400 -25 1425 -200
Q 1425 -300 1300 -300
Q 1200 -300 1050 -250
Q 900 -200 900 -25
Q 900 100 975 350
Q 1050 600 1050 750
Q 1050 925 937 1025
Q 825 1125 450 1225
L 450 1325
Q 900 1275 1012 1287
Q 1125 1300 1262 1512
Q 1400 1725 2350 4200
L 2450 4175
z
M 375 3750
Q 1250 3300 1250 3012
Q 1250 2725 1112 2625
Q 975 2525 875 2875
Q 750 3200 325 3675
L 375 3750
z
M 1050 5050
Q 1750 4700 1812 4525
Q 1875 4350 1875 4275
Q 1875 4150 1787 4050
Q 1700 3950 1650 3950
Q 1575 3950 1500 4200
Q 1375 4525 1000 4975
L 1050 5050
z
" transform="scale(0.015625)"/>
      <path id="SimSun-9891" d="M 2800 2050
L 3225 1675
L 3000 1550
Q 2400 625 1862 200
Q 1325 -225 400 -575
L 375 -500
Q 1475 100 2000 712
Q 2525 1325 2800 2050
z
M 1800 2950
L 1800 4375
Q 1800 4700 1775 5250
L 2300 5025
L 2100 4850
L 2100 4075
L 2500 4075
L 2775 4350
L 3150 3925
L 2100 3925
L 2100 2950
L 2575 2950
L 2875 3225
L 3275 2800
L 1800 2800
L 2250 2550
L 2075 2425
L 2075 1150
L 1750 950
L 1750 2800
L 1150 2800
Q 825 2800 550 2725
L 325 2950
L 1000 2950
L 1000 3900
Q 1000 4200 975 4500
L 1500 4275
L 1300 4100
L 1300 2950
L 1800 2950
z
M 1100 2325
L 1550 2025
Q 1375 1975 1100 1500
Q 800 1000 325 575
L 275 650
Q 825 1400 1100 2325
z
M 3375 800
Q 3400 1450 3400 2312
Q 3400 3175 3375 3925
L 3725 3725
L 4200 3725
Q 4300 4425 4325 4700
L 3775 4700
Q 3450 4700 3175 4625
L 2950 4850
L 5400 4850
L 5725 5150
L 6150 4700
L 4800 4700
Q 4625 4500 4325 3725
L 5425 3725
L 5625 3950
L 6000 3650
L 5800 3500
L 5800 1975
Q 5800 1550 5825 1100
L 5475 900
L 5475 3575
L 3725 3575
L 3725 1025
L 3375 800
z
M 5000 2875
L 4775 2700
Q 4775 1500 4612 987
Q 4450 475 3987 100
Q 3525 -275 2575 -575
L 2550 -500
Q 3550 -50 3937 400
Q 4325 850 4387 1587
Q 4450 2325 4425 3150
L 5000 2875
z
M 4725 875
Q 5700 425 5862 250
Q 6025 75 6025 -100
Q 6025 -225 5975 -362
Q 5925 -500 5875 -500
Q 5825 -500 5775 -400
Q 5650 -175 5437 87
Q 5225 350 4675 800
L 4725 875
z
" transform="scale(0.015625)"/>
     </defs>
     <use xlink:href="#SimSun-590d"/>
     <use xlink:href="#SimSun-6570" x="100"/>
     <use xlink:href="#SimSun-6df7" x="200"/>
     <use xlink:href="#SimSun-9891" x="300"/>
    </g>
    <!-- 4次实乘、2次加减 -->
    <g transform="translate(353.6 155.9875) scale(0.16 -0.16)">
     <defs>
      <path id="SimSun-6b21" d="M 4875 2725
L 5275 3600
L 3225 3600
Q 3025 3250 2800 2887
Q 2575 2525 2075 2025
L 2000 2100
Q 2575 2825 2925 3750
Q 3275 4675 3350 5225
L 3950 4925
Q 3750 4825 3650 4600
Q 3550 4375 3275 3750
L 5250 3750
L 5525 4025
L 5975 3550
Q 5725 3500 5550 3350
Q 5375 3200 4950 2675
L 4875 2725
z
M 4050 2900
Q 3900 1225 3175 437
Q 2450 -350 1450 -650
L 1400 -575
Q 2675 0 3175 912
Q 3675 1825 3700 3400
L 4275 3100
L 4125 2975
Q 4300 1700 4812 912
Q 5325 125 6150 -175
L 6125 -250
Q 5750 -225 5575 -500
Q 4950 -25 4537 825
Q 4125 1675 4050 2900
z
M 750 4950
Q 1275 4675 1487 4450
Q 1700 4225 1700 4075
Q 1700 3925 1587 3775
Q 1475 3625 1450 3625
Q 1350 3625 1275 3950
Q 1150 4400 700 4875
L 750 4950
z
M 425 1650
Q 600 1625 750 1625
Q 975 1625 1100 1725
Q 1225 1825 2275 4300
L 2375 4250
Q 1400 1700 1350 1600
Q 1300 1500 1300 1187
Q 1300 875 1375 350
Q 1450 -200 1212 -175
Q 975 -150 925 -25
Q 875 100 875 200
Q 875 300 925 575
Q 1000 975 975 1187
Q 950 1400 425 1550
L 425 1650
z
" transform="scale(0.015625)"/>
      <path id="SimSun-5b9e" d="M 1950 3625
Q 2575 3400 2700 3250
Q 2825 3100 2825 2975
Q 2825 2850 2750 2700
Q 2675 2550 2625 2550
Q 2550 2550 2450 2800
Q 2275 3175 1900 3550
L 1950 3625
z
M 3575 1325
Q 3500 1100 3425 925
Q 4650 550 5087 325
Q 5525 100 5512 -225
Q 5500 -550 5400 -550
Q 5300 -550 5075 -300
Q 4625 175 3375 800
Q 3025 175 2300 -150
Q 1575 -475 425 -625
L 425 -525
Q 1475 -325 2200 100
Q 2925 525 3200 1325
L 1225 1325
Q 900 1325 625 1250
L 400 1475
L 3225 1475
Q 3325 1950 3375 2575
Q 3425 3200 3425 3700
L 4050 3400
L 3850 3225
Q 3750 2300 3625 1475
L 5175 1475
L 5550 1850
L 6075 1325
L 3575 1325
z
M 1275 2700
Q 1975 2425 2100 2262
Q 2225 2100 2225 1975
Q 2225 1850 2150 1700
Q 2075 1550 2025 1550
Q 1950 1550 1850 1800
Q 1675 2175 1225 2625
L 1275 2700
z
M 2750 5225
L 2825 5275
Q 3225 5100 3425 4925
Q 3625 4750 3625 4600
Q 3625 4450 3512 4300
Q 3400 4150 3325 4150
Q 3250 4150 3200 4400
Q 3100 4775 2750 5225
z
M 4975 3225
L 5350 3925
L 1175 3925
Q 1225 3525 1125 3300
Q 1025 3075 787 3100
Q 550 3125 550 3200
Q 550 3300 700 3475
Q 975 3825 1050 4375
L 1150 4375
L 1175 4075
L 5300 4075
L 5575 4350
L 6050 3800
Q 5625 3825 5050 3175
L 4975 3225
z
" transform="scale(0.015625)"/>
      <path id="SimSun-4e58" d="M 4075 3050
Q 4075 3300 4050 3625
L 3300 3625
L 3300 2300
Q 4300 575 6000 275
L 6000 175
Q 5575 125 5400 -125
Q 4000 625 3300 2050
L 3300 375
Q 3300 -150 3325 -425
L 2925 -625
Q 2950 325 2950 1700
Q 1975 375 275 -350
L 250 -250
Q 2000 725 2950 2325
L 2950 3625
L 1825 3625
L 2300 3400
L 2125 3225
Q 2125 2000 2150 1650
L 1775 1450
Q 1800 1725 1800 1950
Q 850 1575 650 1400
L 400 1800
Q 975 1875 1800 2075
L 1800 2725
L 1375 2725
Q 1050 2725 775 2650
L 550 2875
L 1800 2875
Q 1800 3300 1775 3625
L 1150 3625
Q 825 3625 550 3550
L 325 3775
L 2950 3775
L 2950 4575
Q 2000 4500 1050 4475
L 1050 4575
Q 2300 4675 3350 4862
Q 4400 5050 4750 5250
L 5150 4775
Q 4650 4750 3300 4600
L 3300 3775
L 5100 3775
L 5475 4150
L 6000 3625
L 4100 3625
L 4600 3400
L 4400 3225
L 4400 2625
Q 4975 2875 5425 3350
L 5825 2950
Q 5525 2900 4400 2500
L 4400 2075
Q 4400 1800 4700 1800
L 5450 1800
Q 5650 1800 5675 2625
L 5775 2625
Q 5800 2250 5850 2075
Q 5900 1900 6075 1825
Q 5950 1600 5787 1550
Q 5625 1500 5475 1500
L 4600 1500
Q 4075 1475 4075 1875
L 4075 3050
z
" transform="scale(0.015625)"/>
      <path id="SimSun-3001" d="M 1675 325
Q 1450 850 700 1300
L 725 1375
Q 1300 1250 1612 1062
Q 1925 875 2062 725
Q 2200 575 2237 325
Q 2275 75 2162 -12
Q 2050 -100 2000 -100
Q 1850 -100 1675 325
z
" transform="scale(0.015625)"/>
      <path id="SimSun-32" d="M 2325 3325
Q 2325 3775 2125 4012
Q 1925 4250 1525 4250
Q 1225 4250 1012 4087
Q 800 3925 800 3675
Q 800 3525 900 3425
Q 975 3325 975 3225
Q 975 3100 912 3037
Q 850 2975 725 2975
Q 575 2975 487 3062
Q 400 3150 400 3350
Q 400 3875 775 4150
Q 1150 4425 1575 4425
Q 2175 4425 2462 4125
Q 2750 3825 2750 3375
Q 2750 3075 2612 2775
Q 2475 2475 2175 2200
Q 1450 1500 1062 1062
Q 675 625 600 475
L 2075 475
Q 2300 475 2450 650
Q 2600 825 2650 1175
L 2800 1175
L 2650 100
L 325 100
L 325 425
Q 450 650 737 1000
Q 1025 1350 1500 1825
Q 1925 2250 2125 2625
Q 2325 3000 2325 3325
z
" transform="scale(0.015625)"/>
      <path id="SimSun-52a0" d="M 1500 3800
Q 1500 4700 1475 5250
L 2075 4975
L 1850 4800
L 1850 3800
L 2750 3800
L 2950 4050
L 3325 3725
L 3100 3550
Q 3025 650 2825 200
Q 2625 -250 2150 -350
Q 2175 -25 1450 250
L 1475 375
Q 2050 225 2225 225
Q 2325 225 2437 287
Q 2550 350 2637 862
Q 2725 1375 2775 3650
L 1850 3650
Q 1825 2825 1762 2212
Q 1700 1600 1400 900
Q 1100 200 325 -525
L 250 -450
Q 825 225 1087 875
Q 1350 1525 1425 2200
Q 1500 2875 1500 3650
L 825 3650
L 525 3600
L 325 3800
L 1500 3800
z
M 5725 3700
L 5725 975
Q 5725 375 5750 -175
L 5400 -325
L 5400 350
L 4075 350
L 4075 -300
L 3725 -475
Q 3750 300 3750 1850
Q 3750 3400 3725 4175
L 4100 3925
L 5350 3925
L 5575 4150
L 5900 3825
L 5725 3700
z
M 4075 3775
L 4075 500
L 5400 500
L 5400 3775
L 4075 3775
z
" transform="scale(0.015625)"/>
      <path id="SimSun-51cf" d="M 425 4725
L 475 4775
Q 1275 4350 1312 4125
Q 1350 3900 1250 3787
Q 1150 3675 1100 3675
Q 1025 3675 950 3925
Q 825 4250 425 4725
z
M 275 1950
Q 600 1875 712 1875
Q 825 1875 962 2137
Q 1100 2400 1675 4000
L 1775 3950
Q 1150 1925 1087 1712
Q 1025 1500 1025 1237
Q 1025 975 1075 575
Q 1100 150 925 162
Q 750 175 675 275
Q 600 375 600 500
Q 600 625 625 725
Q 700 1000 712 1325
Q 725 1650 250 1850
L 275 1950
z
M 5675 0
L 5925 950
L 6025 925
Q 5975 550 5962 212
Q 5950 -125 6025 -350
Q 6075 -525 5950 -525
Q 5925 -525 5787 -487
Q 5650 -450 5300 -187
Q 4950 75 4625 675
Q 4025 -25 3000 -550
L 2950 -450
Q 3925 175 4475 1000
Q 4300 1625 4237 2312
Q 4175 3000 4175 3875
L 2325 3875
Q 2350 2225 2225 1575
Q 2100 925 1800 412
Q 1500 -100 950 -600
L 875 -525
Q 1475 150 1712 912
Q 1950 1675 1962 2537
Q 1975 3400 1950 4250
L 2325 4025
L 4175 4025
Q 4175 4575 4150 5225
L 4700 4950
L 4525 4800
L 4525 4025
L 5375 4025
L 5650 4325
L 6075 3875
L 4525 3875
Q 4525 3075 4562 2475
Q 4600 1875 4725 1400
Q 4925 1725 5125 2250
Q 5325 2775 5450 3200
L 5950 2850
L 5725 2725
Q 5300 1725 4850 1000
Q 5125 350 5675 0
z
M 2500 3125
L 3450 3125
L 3700 3375
L 4075 2975
L 3300 2975
Q 2950 2975 2725 2900
L 2500 3125
z
M 2600 250
Q 2625 800 2625 1362
Q 2625 1925 2600 2475
L 2950 2250
L 3575 2250
L 3800 2475
L 4100 2150
L 3900 2025
L 3900 1300
Q 3900 1075 3925 650
L 3600 475
L 3600 725
L 2925 725
L 2925 400
L 2600 250
z
M 2925 2100
L 2925 875
L 3600 875
L 3600 2100
L 2925 2100
z
M 4750 5025
L 4800 5100
Q 5475 4850 5512 4725
Q 5550 4600 5550 4525
Q 5550 4400 5475 4312
Q 5400 4225 5375 4225
Q 5300 4225 5225 4400
Q 5125 4650 4750 5025
z
" transform="scale(0.015625)"/>
     </defs>
     <use xlink:href="#SimSun-34"/>
     <use xlink:href="#SimSun-6b21" x="50"/>
     <use xlink:href="#SimSun-5b9e" x="150"/>
     <use xlink:href="#SimSun-4e58" x="250"/>
     <use xlink:href="#SimSun-3001" x="350"/>
     <use xlink:href="#SimSun-32" x="450"/>
     <use xlink:href="#SimSun-6b21" x="500"/>
     <use xlink:href="#SimSun-52a0" x="600"/>
     <use xlink:href="#SimSun-51cf" x="700"/>
    </g>
   </g>
   <g id="text_4">
    <!-- 算术右移4 bit -->
    <g transform="translate(538.4 136.329688) scale(0.16 -0.16)">
     <defs>
      <path id="SimSun-7b97" d="M 2675 1525
Q 2650 1125 2600 750
L 3825 750
L 3825 1525
L 2675 1525
z
M 4900 2075
Q 4900 1875 4925 1425
L 4550 1275
L 4550 1525
L 4175 1525
L 4175 775
L 5300 775
L 5650 1100
L 6100 625
L 4175 625
Q 4175 -225 4200 -475
L 3800 -650
Q 3825 100 3825 600
L 2575 600
Q 2400 50 1837 -250
Q 1275 -550 625 -650
L 600 -575
Q 1325 -325 1687 -62
Q 2050 200 2200 600
L 1125 600
Q 800 600 525 525
L 300 750
L 2225 750
Q 2275 1100 2300 1525
L 1850 1525
L 1850 1325
L 1500 1200
Q 1525 1975 1512 2787
Q 1500 3600 1475 3775
L 1850 3575
L 4525 3575
L 4675 3800
L 5075 3525
L 4900 3375
L 4900 2075
z
M 1850 3425
L 1850 2975
L 4550 2975
L 4550 3425
L 1850 3425
z
M 1850 2825
L 1850 2350
L 4550 2350
L 4550 2825
L 1850 2825
z
M 1850 2200
L 1850 1675
L 4550 1675
L 4550 2200
L 1850 2200
z
M 1575 5275
L 2075 5000
Q 1925 4925 1837 4825
Q 1750 4725 1600 4500
L 2700 4500
L 3000 4800
L 3400 4350
L 2125 4350
Q 2650 4075 2587 3887
Q 2525 3700 2462 3662
Q 2400 3625 2350 3625
Q 2275 3625 2250 3712
Q 2225 3800 2200 3975
Q 2150 4125 1950 4350
L 1525 4350
Q 1275 3975 1050 3725
Q 825 3475 475 3225
L 425 3300
Q 650 3525 950 3950
Q 1250 4375 1575 5275
z
M 4000 5250
L 4450 4950
Q 4325 4925 4200 4775
Q 4075 4625 3975 4475
L 5325 4475
L 5625 4750
L 6000 4325
L 4675 4325
Q 5300 4125 5300 3937
Q 5300 3750 5212 3675
Q 5125 3600 5100 3600
Q 5050 3600 4987 3712
Q 4925 3825 4850 3962
Q 4775 4100 4500 4325
L 3900 4325
Q 3725 4150 3575 3975
Q 3400 3775 3225 3625
L 3150 3675
Q 3450 4050 3712 4562
Q 3975 5075 4000 5250
z
" transform="scale(0.015625)"/>
      <path id="SimSun-672f" d="M 3975 4800
L 4025 4875
Q 4675 4650 4887 4512
Q 5100 4375 5100 4175
Q 5100 4075 5025 3912
Q 4950 3750 4900 3750
Q 4825 3750 4725 3975
Q 4525 4325 3975 4800
z
M 3000 3500
Q 3000 4225 2975 5225
L 3650 4925
L 3375 4750
L 3375 3500
L 5100 3500
L 5475 3875
L 6000 3350
L 3600 3350
Q 4300 1250 6100 675
L 6100 575
Q 5600 525 5500 250
Q 3875 1400 3475 3350
L 3375 3350
Q 3375 0 3400 -450
L 2975 -650
Q 3000 650 3000 2900
Q 1975 975 350 25
L 300 100
Q 1825 1250 2775 3350
L 1200 3350
Q 875 3350 600 3275
L 375 3500
L 3000 3500
z
" transform="scale(0.015625)"/>
      <path id="SimSun-53f3" d="M 2450 2075
L 2450 175
L 4775 175
L 4775 2075
L 2450 2075
z
M 375 3975
L 2600 3975
Q 2800 4650 2875 5125
L 3400 4875
Q 3250 4750 3162 4537
Q 3075 4325 2950 3975
L 5125 3975
L 5500 4350
L 6025 3825
L 2925 3825
Q 2600 3000 2250 2375
L 2450 2225
L 4725 2225
L 4925 2500
L 5350 2200
L 5125 2000
L 5125 925
Q 5125 350 5150 -275
L 4775 -425
L 4775 25
L 2450 25
L 2450 -300
L 2075 -450
Q 2100 300 2100 750
L 2100 2175
Q 1325 1100 350 425
L 300 500
Q 1050 1200 1587 1950
Q 2125 2700 2550 3825
L 1200 3825
Q 875 3825 600 3750
L 375 3975
z
" transform="scale(0.015625)"/>
      <path id="SimSun-79fb" d="M 4000 5150
L 4450 4825
Q 4275 4775 3875 4300
L 5225 4300
L 5425 4525
L 5800 4150
L 5575 4050
Q 5175 3575 4850 3250
Q 4525 2925 4050 2600
Q 3575 2275 2825 2000
L 2775 2075
Q 3175 2275 3562 2537
Q 3950 2800 4375 3200
Q 4800 3600 5225 4150
L 3800 4150
L 3625 4000
Q 3950 3850 4100 3712
Q 4250 3575 4250 3475
Q 4250 3375 4162 3250
Q 4075 3125 4025 3125
Q 3975 3125 3925 3300
Q 3825 3600 3575 3925
Q 3250 3600 2875 3325
L 2825 3400
Q 3250 3825 3537 4262
Q 3825 4700 4000 5150
z
M 4525 2775
L 4950 2400
Q 4650 2275 4275 1900
L 5475 1900
L 5675 2125
L 6050 1750
L 5850 1650
Q 5600 1275 5175 787
Q 4750 300 4012 -62
Q 3275 -425 2075 -575
L 2075 -500
Q 2875 -325 3462 -62
Q 4050 200 4537 600
Q 5025 1000 5475 1750
L 4175 1750
L 3700 1375
Q 4075 1150 4162 1012
Q 4250 875 4250 775
Q 4250 650 4150 537
Q 4050 425 4025 425
Q 3950 425 3925 650
Q 3850 975 3625 1300
Q 3025 875 2625 675
L 2575 750
Q 3025 1050 3625 1650
Q 4225 2250 4525 2775
z
M 475 4375
Q 1075 4475 1625 4662
Q 2175 4850 2400 5025
L 2750 4600
Q 2375 4550 1875 4475
L 1875 3225
L 2275 3225
L 2550 3500
L 2950 3075
L 1875 3075
L 1875 2525
Q 2300 2350 2500 2187
Q 2700 2025 2700 1875
Q 2700 1750 2637 1625
Q 2575 1500 2525 1500
Q 2450 1500 2375 1700
Q 2250 2000 1875 2400
Q 1875 250 1900 -400
L 1500 -600
Q 1525 350 1525 2200
Q 1000 1125 350 500
L 300 550
Q 725 1175 1037 1850
Q 1350 2525 1500 3075
L 1100 3075
Q 775 3075 500 3000
L 275 3225
L 1550 3225
L 1550 4400
Q 800 4300 475 4275
L 475 4375
z
" transform="scale(0.015625)"/>
      <path id="SimSun-62" d="M 875 2325
Q 1000 2600 1275 2762
Q 1550 2925 1800 2925
Q 2325 2925 2587 2562
Q 2850 2200 2850 1500
Q 2850 800 2512 437
Q 2175 75 1675 75
Q 1425 75 1212 162
Q 1000 250 850 400
L 625 100
L 525 100
L 525 4025
Q 525 4125 475 4175
Q 425 4225 300 4225
L 150 4225
L 150 4375
L 375 4375
Q 500 4375 625 4425
Q 750 4475 875 4575
L 875 2325
z
M 875 925
Q 875 650 1062 450
Q 1250 250 1625 250
Q 2075 250 2262 562
Q 2450 875 2450 1500
Q 2450 2100 2287 2412
Q 2125 2725 1775 2725
Q 1475 2725 1250 2550
Q 1025 2375 875 1925
L 875 925
z
" transform="scale(0.015625)"/>
      <path id="SimSun-69" d="M 1425 2525
Q 1425 2625 1375 2687
Q 1325 2750 1200 2750
L 675 2750
L 675 2900
L 925 2900
Q 1150 2900 1350 2937
Q 1550 2975 1725 3075
L 1775 3075
L 1775 450
Q 1775 350 1837 300
Q 1900 250 2000 250
L 2525 250
L 2525 100
L 675 100
L 675 250
L 1200 250
Q 1325 250 1375 300
Q 1425 350 1425 450
L 1425 2525
z
M 1725 3025
L 1725 3025
z
M 1625 4425
Q 1750 4425 1850 4337
Q 1950 4250 1950 4125
Q 1950 4000 1850 3900
Q 1750 3800 1625 3800
Q 1500 3800 1400 3900
Q 1300 4000 1300 4125
Q 1300 4250 1400 4337
Q 1500 4425 1625 4425
z
" transform="scale(0.015625)"/>
      <path id="SimSun-74" d="M 1500 900
Q 1500 550 1625 425
Q 1750 300 2000 300
Q 2250 300 2400 462
Q 2550 625 2600 925
L 2725 875
Q 2675 525 2462 300
Q 2250 75 1900 75
Q 1525 75 1337 300
Q 1150 525 1150 1000
L 1150 2750
L 400 2750
L 400 2900
L 600 2900
Q 900 2900 1087 3087
Q 1275 3275 1325 3675
L 1350 3875
L 1500 3875
L 1500 2900
L 2500 2900
L 2500 2750
L 1500 2750
L 1500 900
z
" transform="scale(0.015625)"/>
     </defs>
     <use xlink:href="#SimSun-7b97"/>
     <use xlink:href="#SimSun-672f" x="100"/>
     <use xlink:href="#SimSun-53f3" x="200"/>
     <use xlink:href="#SimSun-79fb" x="300"/>
     <use xlink:href="#SimSun-34" x="400"/>
     <use xlink:href="#SimSun-20" x="450"/>
     <use xlink:href="#SimSun-62" x="500"/>
     <use xlink:href="#SimSun-69" x="550"/>
     <use xlink:href="#SimSun-74" x="600"/>
    </g>
    <!-- s5 I/Q -->
    <g transform="translate(566.4 155.157813) scale(0.16 -0.16)">
     <defs>
      <path id="SimSun-35" d="M 1725 2850
Q 2200 2850 2500 2487
Q 2800 2125 2800 1525
Q 2800 850 2487 450
Q 2175 50 1525 50
Q 1075 50 725 312
Q 375 575 375 950
Q 375 1100 462 1212
Q 550 1325 700 1325
Q 850 1325 900 1225
Q 950 1125 950 1050
Q 950 900 875 825
Q 800 725 800 625
Q 800 425 1037 325
Q 1275 225 1550 225
Q 1950 225 2162 550
Q 2375 875 2375 1475
Q 2375 1975 2187 2287
Q 2000 2600 1625 2600
Q 1350 2600 1150 2500
Q 950 2400 775 2075
L 550 2100
L 675 4375
L 2725 4375
L 2650 4000
L 850 4000
L 750 2350
Q 1000 2700 1237 2775
Q 1475 2850 1725 2850
z
" transform="scale(0.015625)"/>
     </defs>
     <use xlink:href="#SimSun-73"/>
     <use xlink:href="#SimSun-35" x="50"/>
     <use xlink:href="#SimSun-20" x="100"/>
     <use xlink:href="#SimSun-49" x="150"/>
     <use xlink:href="#SimSun-2f" x="200"/>
     <use xlink:href="#SimSun-51" x="250"/>
    </g>
   </g>
   <g id="text_5">
    <!-- 打包写入SRAM -->
    <g transform="translate(718.8 135.071875) scale(0.16 -0.16)">
     <defs>
      <path id="SimSun-6253" d="M 3325 100
Q 4025 0 4150 12
Q 4275 25 4275 200
L 4275 4175
L 3250 4175
L 2975 4125
L 2775 4325
L 5300 4325
L 5625 4650
L 6100 4175
L 4650 4175
L 4650 50
Q 4650 -375 4075 -600
Q 4025 -225 3325 -25
L 3325 100
z
M 350 1975
Q 600 2000 1575 2350
L 1575 3625
L 825 3625
L 550 3575
L 350 3775
L 1575 3775
Q 1575 4525 1550 5150
L 2125 4900
L 1925 4725
L 1925 3775
L 2300 3775
L 2575 4050
L 3000 3625
L 1925 3625
L 1925 2475
L 2900 2875
L 2950 2775
L 1925 2225
L 1925 -25
Q 1900 -425 1400 -625
Q 1400 -325 625 0
L 625 125
Q 1225 0 1400 12
Q 1575 25 1575 275
L 1575 2075
Q 800 1700 675 1525
L 350 1975
z
" transform="scale(0.015625)"/>
      <path id="SimSun-5305" d="M 1475 2025
Q 1475 2725 1450 3325
L 1825 3125
L 3400 3125
L 3550 3350
L 3950 3050
L 3750 2875
Q 3750 1775 3775 1500
L 3425 1400
L 3425 1675
L 1800 1675
L 1800 425
Q 1800 75 2012 0
Q 2225 -75 2975 -87
Q 3725 -100 4425 -87
Q 5125 -75 5287 0
Q 5450 75 5500 262
Q 5550 450 5575 1325
L 5700 1325
Q 5725 625 5800 375
Q 5875 125 6100 50
Q 5875 -275 5525 -337
Q 5175 -400 4400 -400
Q 3625 -400 2962 -387
Q 2300 -375 1887 -300
Q 1475 -225 1475 375
L 1475 2025
z
M 5125 3925
Q 5100 2625 5075 1975
Q 5050 1325 4925 1112
Q 4800 900 4400 725
Q 4325 1075 3750 1225
L 3750 1325
Q 4200 1250 4350 1250
Q 4500 1250 4625 1350
Q 4750 1450 4775 4025
L 1900 4025
Q 1175 2925 325 2225
L 250 2300
Q 900 3025 1350 3775
Q 1800 4525 2050 5200
L 2550 4900
Q 2375 4825 1975 4175
L 4725 4175
L 4975 4425
L 5325 4075
L 5125 3925
z
M 1800 2975
L 1800 1825
L 3425 1825
L 3425 2975
L 1800 2975
z
" transform="scale(0.015625)"/>
      <path id="SimSun-5199" d="M 4875 3850
L 5200 4575
L 1300 4575
Q 1350 4100 1237 3975
Q 1125 3850 1012 3825
Q 900 3800 825 3800
Q 750 3800 700 3825
Q 650 3850 650 3875
Q 650 3975 800 4150
Q 1000 4425 1125 5025
L 1250 5025
L 1275 4725
L 5175 4725
L 5425 5050
L 5925 4575
Q 5500 4550 4950 3800
L 4875 3850
z
M 2150 3150
Q 2100 2875 1975 2225
L 5050 2225
L 5250 2500
L 5650 2150
L 5425 2000
Q 5250 50 5000 -225
Q 4750 -500 4350 -575
Q 4350 -175 3525 0
L 3525 125
Q 3950 75 4275 50
Q 4575 0 4687 87
Q 4800 175 4900 637
Q 5000 1100 5075 2075
L 2000 2075
L 1800 1875
L 1450 2200
L 1625 2350
Q 1850 3575 1900 4200
L 2450 3950
L 2250 3800
Q 2200 3525 2175 3300
L 4625 3300
L 4950 3625
L 5425 3150
L 2150 3150
z
M 425 1050
L 3750 1050
L 4100 1400
L 4600 900
L 1200 900
Q 925 900 650 825
L 425 1050
z
" transform="scale(0.015625)"/>
      <path id="SimSun-53" d="M 1500 2150
Q 825 2450 575 2675
Q 325 2900 325 3375
Q 325 3750 637 4087
Q 950 4425 1525 4425
Q 1775 4425 2000 4350
Q 2225 4250 2325 4250
Q 2400 4250 2462 4287
Q 2525 4325 2575 4425
L 2675 3400
L 2550 3350
Q 2325 3875 2087 4062
Q 1850 4250 1475 4250
Q 1000 4250 825 3987
Q 650 3725 650 3425
Q 650 3150 812 2987
Q 975 2825 1700 2500
Q 2300 2250 2562 1937
Q 2825 1625 2825 1200
Q 2825 750 2512 400
Q 2200 50 1600 50
Q 1350 50 1150 150
Q 925 225 800 225
Q 725 225 650 175
Q 575 125 475 50
L 275 1275
L 425 1325
Q 600 700 912 462
Q 1225 225 1625 225
Q 2050 225 2262 475
Q 2475 725 2475 1200
Q 2475 1450 2237 1687
Q 2000 1925 1500 2150
z
" transform="scale(0.015625)"/>
      <path id="SimSun-52" d="M 2825 3375
Q 2825 2875 2550 2600
Q 2275 2325 1925 2275
L 2675 425
Q 2725 325 2787 287
Q 2850 250 2925 250
L 3075 250
L 3075 100
L 2375 100
L 1550 2250
L 975 2250
L 975 450
Q 975 350 1037 300
Q 1100 250 1200 250
L 1350 250
L 1350 100
L 200 100
L 200 250
L 350 250
Q 475 250 525 300
Q 575 350 575 450
L 575 4025
Q 575 4125 525 4175
Q 475 4225 350 4225
L 200 4225
L 200 4375
L 1625 4375
Q 2200 4375 2512 4125
Q 2825 3875 2825 3375
z
M 2750 250
L 2750 250
z
M 975 2400
L 1525 2400
Q 1900 2400 2150 2625
Q 2400 2850 2400 3325
Q 2400 3750 2175 3987
Q 1950 4225 1475 4225
L 1200 4225
Q 1100 4225 1037 4175
Q 975 4125 975 4025
L 975 2400
z
" transform="scale(0.015625)"/>
      <path id="SimSun-41" d="M 2025 1700
L 900 1700
L 675 750
Q 650 625 650 550
Q 650 450 687 350
Q 725 250 900 250
L 975 250
L 975 100
L 50 100
L 50 250
L 125 250
Q 225 250 300 312
Q 375 375 400 525
L 1375 4350
L 1750 4475
L 2700 525
Q 2750 375 2825 312
Q 2900 250 3000 250
L 3075 250
L 3075 100
L 2000 100
L 2000 250
L 2100 250
Q 2250 250 2275 312
Q 2300 375 2300 425
Q 2300 525 2275 600
L 2025 1700
z
M 325 250
L 325 250
z
M 575 250
L 575 250
z
M 2350 250
L 2350 250
z
M 2775 250
L 2775 250
z
M 1500 3925
L 1475 3925
L 950 1850
L 2000 1850
L 1500 3925
z
" transform="scale(0.015625)"/>
      <path id="SimSun-4d" d="M 2800 450
Q 2800 350 2862 300
Q 2925 250 3025 250
L 3125 250
L 3125 100
L 2050 100
L 2050 250
L 2175 250
Q 2300 250 2350 300
Q 2400 350 2400 450
L 2400 3725
L 2350 3725
L 1500 100
L 1350 100
L 575 3650
L 525 3650
L 525 450
Q 525 350 587 300
Q 650 250 750 250
L 825 250
L 825 100
L 75 100
L 75 250
L 150 250
Q 275 250 325 300
Q 375 350 375 450
L 375 4025
Q 375 4125 325 4175
Q 275 4225 150 4225
L 50 4225
L 50 4375
L 775 4375
L 1500 1025
L 1550 1025
L 2325 4375
L 3125 4375
L 3125 4225
L 3025 4225
Q 2925 4225 2862 4175
Q 2800 4125 2800 4025
L 2800 450
z
" transform="scale(0.015625)"/>
     </defs>
     <use xlink:href="#SimSun-6253"/>
     <use xlink:href="#SimSun-5305" x="100"/>
     <use xlink:href="#SimSun-5199" x="200"/>
     <use xlink:href="#SimSun-5165" x="300"/>
     <use xlink:href="#SimSun-53" x="400"/>
     <use xlink:href="#SimSun-52" x="450"/>
     <use xlink:href="#SimSun-41" x="500"/>
     <use xlink:href="#SimSun-4d" x="550"/>
    </g>
    <!-- 每点2 Byte -->
    <g transform="translate(726.8 156.165625) scale(0.16 -0.16)">
     <defs>
      <path id="SimSun-42" d="M 100 100
L 100 250
L 300 250
Q 425 250 475 300
Q 525 350 525 450
L 525 4025
Q 525 4125 475 4175
Q 425 4225 300 4225
L 150 4225
L 150 4375
L 1600 4375
Q 2200 4375 2487 4137
Q 2775 3900 2775 3400
Q 2775 3050 2625 2825
Q 2475 2600 2000 2425
Q 2575 2250 2775 1925
Q 2975 1600 2975 1200
Q 2975 700 2625 400
Q 2275 100 1675 100
L 100 100
z
M 1600 250
Q 2025 250 2262 512
Q 2500 775 2500 1250
Q 2500 1800 2250 2062
Q 2000 2325 1500 2325
L 925 2325
L 925 450
Q 925 350 987 300
Q 1050 250 1150 250
L 1600 250
z
M 2350 3400
Q 2350 3850 2100 4037
Q 1850 4225 1450 4225
L 1150 4225
Q 1050 4225 987 4175
Q 925 4125 925 4025
L 925 2475
L 1575 2475
Q 1850 2475 2100 2700
Q 2350 2925 2350 3400
z
" transform="scale(0.015625)"/>
      <path id="SimSun-79" d="M 1650 800
L 1700 800
L 2250 2475
Q 2300 2600 2237 2675
Q 2175 2750 2075 2750
L 1925 2750
L 1925 2900
L 2975 2900
L 2975 2750
L 2825 2750
Q 2725 2750 2625 2675
Q 2525 2600 2475 2475
L 1625 0
Q 1500 -375 1312 -587
Q 1125 -800 825 -800
Q 650 -800 550 -737
Q 450 -675 450 -550
Q 450 -475 512 -400
Q 575 -325 700 -325
Q 800 -325 900 -425
Q 1000 -500 1050 -500
Q 1125 -500 1175 -475
Q 1225 -450 1250 -375
Q 1325 -250 1400 -62
Q 1475 125 1525 325
L 675 2525
Q 650 2625 562 2687
Q 475 2750 375 2750
L 275 2750
L 275 2900
L 1325 2900
L 1325 2750
L 1225 2750
Q 1125 2750 1075 2687
Q 1025 2625 1050 2500
L 1650 800
z
M 950 2750
L 950 2750
z
M 600 2750
L 600 2750
z
M 2575 2750
L 2575 2750
z
M 2325 2750
L 2325 2750
z
" transform="scale(0.015625)"/>
      <path id="SimSun-65" d="M 2400 1650
Q 2425 2200 2212 2487
Q 2000 2775 1650 2775
Q 1275 2775 1037 2475
Q 800 2175 800 1650
L 2400 1650
z
M 800 1500
Q 800 825 1062 537
Q 1325 250 1750 250
Q 2075 250 2300 437
Q 2525 625 2625 900
L 2750 850
Q 2675 575 2412 312
Q 2150 50 1700 50
Q 1125 50 762 425
Q 400 800 400 1500
Q 400 2125 762 2537
Q 1125 2950 1650 2950
Q 2125 2950 2475 2625
Q 2825 2300 2825 1500
L 800 1500
z
" transform="scale(0.015625)"/>
     </defs>
     <use xlink:href="#SimSun-6bcf"/>
     <use xlink:href="#SimSun-70b9" x="100"/>
     <use xlink:href="#SimSun-32" x="200"/>
     <use xlink:href="#SimSun-20" x="250"/>
     <use xlink:href="#SimSun-42" x="300"/>
     <use xlink:href="#SimSun-79" x="350"/>
     <use xlink:href="#SimSun-74" x="400"/>
     <use xlink:href="#SimSun-65" x="450"/>
    </g>
   </g>
   <g id="text_6">
    <!-- 载波NCO -->
    <g transform="translate(218.6 38.342187) scale(0.16 -0.16)">
     <defs>
      <path id="SimSun-8f7d" d="M 1850 5200
L 2375 5000
L 2200 4825
L 2200 4325
L 2675 4325
L 2975 4600
L 3400 4175
L 2200 4175
L 2200 3525
L 3700 3525
Q 3675 4525 3650 5200
L 4200 4950
L 4000 4775
Q 4000 3950 4025 3525
L 5250 3525
L 5625 3850
L 6100 3375
L 4050 3375
Q 4125 2300 4425 1400
Q 4925 2200 5175 3075
L 5650 2750
L 5450 2575
Q 5075 1775 4575 1050
Q 4950 350 5650 -50
L 5875 1050
L 5975 1025
Q 5925 350 5950 25
Q 5975 -300 6075 -500
Q 6125 -625 6025 -625
Q 5975 -625 5775 -562
Q 5575 -500 5125 -150
Q 4675 200 4350 775
Q 3575 -125 2625 -600
L 2575 -525
Q 3575 175 4175 1075
Q 3825 1950 3725 3375
L 1100 3375
Q 775 3375 500 3300
L 275 3525
L 1875 3525
L 1875 4175
L 1525 4175
Q 1200 4175 925 4100
L 700 4325
L 1875 4325
Q 1875 4800 1850 5200
z
M 4500 4850
Q 5000 4650 5212 4512
Q 5425 4375 5400 4187
Q 5375 4000 5300 3925
Q 5225 3850 5200 3850
Q 5125 3850 5025 4050
Q 4900 4325 4450 4775
L 4500 4850
z
M 500 525
Q 850 550 1975 725
L 1975 1400
L 1150 1400
L 975 1250
L 700 1575
Q 900 1575 1350 2450
L 1150 2450
Q 850 2450 575 2375
L 350 2600
L 1425 2600
Q 1625 3025 1700 3300
L 2150 3025
L 1975 2950
Q 1900 2850 1775 2600
L 2700 2600
L 3025 2900
L 3425 2450
L 1700 2450
L 1175 1550
L 1975 1550
Q 1975 1925 1950 2300
L 2450 2075
L 2300 1900
L 2300 1550
L 2800 1550
L 3075 1850
L 3475 1400
L 2300 1400
L 2300 775
L 3400 925
L 3425 850
L 2300 575
Q 2300 -50 2325 -400
L 1950 -550
Q 1975 225 1975 500
Q 850 275 725 100
L 500 525
z
" transform="scale(0.015625)"/>
      <path id="SimSun-6ce2" d="M 4975 3175
L 5300 3800
L 4200 3800
L 4200 2525
L 5000 2525
L 5225 2750
L 5575 2400
L 5325 2225
Q 4975 1450 4400 750
Q 5200 25 6075 -150
L 6075 -225
Q 5700 -250 5525 -525
Q 4750 -75 4200 525
Q 3325 -325 1950 -625
L 1925 -525
Q 3175 -125 4000 750
Q 3500 1400 3225 2375
L 3075 2375
L 2925 2325
L 2775 2450
Q 2775 1550 2450 787
Q 2125 25 1350 -600
L 1275 -525
Q 1950 200 2200 925
Q 2450 1650 2450 2550
Q 2450 3450 2425 4175
L 2800 3950
L 3875 3950
Q 3875 4950 3850 5250
L 4375 5050
L 4200 4850
L 4200 3950
L 5250 3950
L 5525 4225
L 5950 3800
Q 5725 3725 5562 3625
Q 5400 3525 5050 3125
L 4975 3175
z
M 2775 3800
L 2775 2525
L 3875 2525
L 3875 3800
L 2775 3800
z
M 4200 975
Q 4675 1550 5025 2375
L 3350 2375
Q 3725 1450 4200 975
z
M 2350 4100
Q 1375 1450 1287 1137
Q 1200 825 1212 375
Q 1225 -75 1250 -250
Q 1250 -350 1125 -350
Q 1025 -350 875 -300
Q 725 -250 725 -75
Q 725 50 800 300
Q 875 550 875 700
Q 875 875 762 975
Q 650 1075 275 1175
L 275 1275
Q 725 1225 837 1237
Q 950 1250 1087 1462
Q 1225 1675 2250 4125
L 2350 4100
z
M 325 3650
Q 1200 3200 1200 2912
Q 1200 2625 1062 2525
Q 925 2425 825 2775
Q 700 3100 275 3575
L 325 3650
z
M 875 5075
Q 1575 4725 1637 4550
Q 1700 4375 1700 4300
Q 1700 4175 1612 4075
Q 1525 3975 1475 3975
Q 1400 3975 1325 4225
Q 1200 4550 825 5000
L 875 5075
z
" transform="scale(0.015625)"/>
      <path id="SimSun-4e" d="M 2525 1100
L 2575 1100
L 2575 4025
Q 2575 4125 2525 4175
Q 2475 4225 2350 4225
L 2150 4225
L 2150 4375
L 3150 4375
L 3150 4225
L 2950 4225
Q 2850 4225 2787 4175
Q 2725 4125 2725 4025
L 2725 100
L 2575 100
L 675 3825
L 625 3825
L 625 450
Q 625 350 687 300
Q 750 250 850 250
L 1050 250
L 1050 100
L 50 100
L 50 250
L 250 250
Q 375 250 425 300
Q 475 350 475 450
L 475 4025
Q 475 4125 425 4175
Q 375 4225 250 4225
L 100 4225
L 100 4375
L 825 4375
L 2525 1100
z
" transform="scale(0.015625)"/>
      <path id="SimSun-43" d="M 1725 50
Q 1025 50 612 575
Q 200 1100 200 2225
Q 200 3175 637 3800
Q 1075 4425 1825 4425
Q 2000 4425 2175 4375
Q 2350 4300 2475 4300
Q 2575 4300 2637 4325
Q 2700 4350 2750 4425
L 2975 3325
L 2825 3275
Q 2675 3750 2425 4000
Q 2175 4250 1775 4250
Q 1250 4250 962 3675
Q 675 3100 675 2250
Q 675 1325 925 800
Q 1175 275 1750 275
Q 2150 275 2437 562
Q 2725 850 2825 1325
L 2975 1250
Q 2850 725 2512 387
Q 2175 50 1725 50
z
" transform="scale(0.015625)"/>
      <path id="SimSun-4f" d="M 700 2250
Q 700 1175 962 687
Q 1225 200 1625 200
Q 2050 200 2300 662
Q 2550 1125 2550 2250
Q 2550 3150 2337 3700
Q 2125 4250 1625 4250
Q 1200 4250 950 3750
Q 700 3250 700 2250
z
M 3025 2250
Q 3025 1225 2625 637
Q 2225 50 1625 50
Q 1050 50 637 650
Q 225 1250 225 2250
Q 225 3225 612 3825
Q 1000 4425 1625 4425
Q 2275 4425 2650 3787
Q 3025 3150 3025 2250
z
" transform="scale(0.015625)"/>
     </defs>
     <use xlink:href="#SimSun-8f7d"/>
     <use xlink:href="#SimSun-6ce2" x="100"/>
     <use xlink:href="#SimSun-4e" x="200"/>
     <use xlink:href="#SimSun-43" x="250"/>
     <use xlink:href="#SimSun-4f" x="300"/>
    </g>
    <!-- 32 bit相位累加 -->
    <g transform="translate(190.6 58.620312) scale(0.16 -0.16)">
     <defs>
      <path id="SimSun-33" d="M 2800 1250
Q 2800 775 2450 412
Q 2100 50 1475 50
Q 1025 50 700 300
Q 375 550 375 875
Q 375 1025 475 1137
Q 575 1250 675 1250
Q 825 1250 887 1137
Q 950 1025 950 950
Q 950 825 900 750
Q 850 650 850 575
Q 850 425 1037 325
Q 1225 225 1450 225
Q 1900 225 2125 487
Q 2350 750 2350 1300
Q 2350 1750 2112 2025
Q 1875 2300 1225 2300
L 1225 2475
Q 1725 2475 1962 2712
Q 2200 2950 2200 3375
Q 2200 3725 2012 3987
Q 1825 4250 1425 4250
Q 1250 4250 1050 4162
Q 850 4075 850 3875
Q 850 3675 900 3625
Q 950 3575 950 3500
Q 950 3375 900 3300
Q 850 3225 725 3225
Q 625 3225 537 3300
Q 450 3375 450 3575
Q 450 3950 775 4187
Q 1100 4425 1525 4425
Q 2025 4425 2325 4112
Q 2625 3800 2625 3450
Q 2625 3075 2437 2812
Q 2250 2550 1850 2425
Q 2400 2225 2600 1900
Q 2800 1575 2800 1250
z
" transform="scale(0.015625)"/>
      <path id="SimSun-76f8" d="M 3700 1600
L 3700 200
L 5300 200
L 5300 1600
L 3700 1600
z
M 3325 -550
Q 3350 125 3350 2150
Q 3350 4175 3325 4750
L 3700 4500
L 5250 4500
L 5450 4775
L 5875 4425
L 5650 4250
Q 5650 275 5675 -300
L 5300 -475
L 5300 50
L 3700 50
L 3700 -400
L 3325 -550
z
M 3700 4350
L 3700 3100
L 5300 3100
L 5300 4350
L 3700 4350
z
M 3700 2950
L 3700 1750
L 5300 1750
L 5300 2950
L 3700 2950
z
M 1650 3550
Q 1650 4550 1625 5200
L 2200 4950
L 1975 4750
L 1975 3550
L 2475 3550
L 2775 3875
L 3200 3400
L 1975 3400
L 1975 2800
Q 2475 2650 2662 2500
Q 2850 2350 2850 2175
Q 2850 2075 2800 1925
Q 2750 1775 2700 1775
Q 2650 1775 2525 2025
Q 2325 2400 1975 2675
Q 1975 225 2000 -400
L 1625 -575
Q 1650 975 1650 2375
Q 1150 1250 325 375
L 250 425
Q 1250 1900 1600 3400
L 1225 3400
Q 900 3400 625 3325
L 400 3550
L 1650 3550
z
" transform="scale(0.015625)"/>
      <path id="SimSun-4f4d" d="M 1250 -600
Q 1275 150 1275 3100
Q 750 2225 325 1775
L 250 1825
Q 725 2575 1112 3450
Q 1500 4325 1700 5225
L 2275 4925
L 2050 4800
Q 1650 3900 1475 3500
L 1800 3275
L 1600 3125
Q 1600 125 1625 -400
L 1250 -600
z
M 3300 5125
L 3375 5175
Q 4100 4625 4112 4375
Q 4125 4125 4000 4025
Q 3875 3925 3850 3925
Q 3725 3925 3700 4200
Q 3625 4575 3300 5125
z
M 2025 3725
L 5050 3725
L 5400 4075
L 5900 3575
L 2825 3575
Q 2525 3575 2250 3500
L 2025 3725
z
M 2600 3000
L 2675 3050
Q 3300 2050 3400 1712
Q 3500 1375 3500 1200
Q 3500 950 3362 800
Q 3225 650 3175 650
Q 3100 650 3100 825
Q 3075 1125 2975 1675
Q 2875 2225 2600 3000
z
M 4725 3325
L 5325 3000
Q 5100 2875 4875 2125
Q 4650 1375 4175 -25
L 5300 -25
L 5650 325
L 6150 -175
L 2700 -175
Q 2375 -175 2100 -250
L 1875 -25
L 4000 -25
Q 4300 1000 4500 1962
Q 4700 2925 4725 3325
z
" transform="scale(0.015625)"/>
      <path id="SimSun-7d2f" d="M 1675 4725
L 1675 4100
L 3125 4100
L 3125 4725
L 1675 4725
z
M 3450 4725
L 3450 4100
L 4925 4100
L 4925 4725
L 3450 4725
z
M 1675 3950
L 1675 3375
L 3125 3375
L 3125 3950
L 1675 3950
z
M 3450 3950
L 3450 3375
L 4925 3375
L 4925 3950
L 3450 3950
z
M 5250 4625
Q 5250 4275 5250 3875
Q 5250 3475 5275 3075
L 4925 2950
L 4925 3225
L 1675 3225
L 1675 3000
L 1325 2875
Q 1350 3500 1350 4125
Q 1350 4750 1325 5075
L 1675 4875
L 4900 4875
L 5075 5075
L 5425 4775
L 5250 4625
z
M 3525 2875
Q 3225 2850 2875 2700
Q 2525 2550 1825 2275
L 3550 2300
Q 3925 2550 4175 2800
L 4500 2400
Q 4275 2400 3675 2100
Q 3050 1775 1875 1300
L 4775 1475
Q 4550 1725 4300 1975
L 4375 2025
Q 5100 1675 5262 1487
Q 5425 1300 5412 1150
Q 5400 1000 5337 900
Q 5275 800 5250 800
Q 5200 800 5125 950
Q 5000 1150 4875 1350
L 3550 1225
L 3550 100
Q 3575 -425 3000 -525
Q 3000 -175 2200 0
L 2200 100
Q 2900 25 3062 37
Q 3225 50 3225 325
L 3225 1200
Q 2750 1150 2250 1075
Q 1750 1000 1450 825
L 1175 1350
Q 1550 1400 2000 1562
Q 2450 1725 3375 2175
Q 2300 2075 2000 2037
Q 1700 2000 1550 1900
L 1325 2350
Q 1625 2350 2200 2612
Q 2775 2875 3150 3250
L 3525 2875
z
M 2625 500
Q 2325 450 1850 175
Q 1375 -125 550 -450
L 500 -375
Q 1125 -50 1562 300
Q 2000 650 2225 950
L 2625 500
z
M 4075 900
Q 5000 575 5312 387
Q 5625 200 5650 12
Q 5675 -175 5612 -287
Q 5550 -400 5525 -400
Q 5425 -400 5250 -150
Q 4975 250 4025 825
L 4075 900
z
" transform="scale(0.015625)"/>
     </defs>
     <use xlink:href="#SimSun-33"/>
     <use xlink:href="#SimSun-32" x="50"/>
     <use xlink:href="#SimSun-20" x="100"/>
     <use xlink:href="#SimSun-62" x="150"/>
     <use xlink:href="#SimSun-69" x="200"/>
     <use xlink:href="#SimSun-74" x="250"/>
     <use xlink:href="#SimSun-76f8" x="300"/>
     <use xlink:href="#SimSun-4f4d" x="400"/>
     <use xlink:href="#SimSun-7d2f" x="500"/>
     <use xlink:href="#SimSun-52a0" x="600"/>
    </g>
   </g>
   <g id="text_7">
    <!-- 16相位系数表 -->
    <g transform="translate(369.6 39.098437) scale(0.16 -0.16)">
     <defs>
      <path id="SimSun-31" d="M 1825 4450
L 1825 650
Q 1825 450 1950 350
Q 2075 250 2300 250
L 2550 250
L 2550 100
L 725 100
L 725 250
L 950 250
Q 1200 250 1312 350
Q 1425 450 1425 650
L 1425 3675
Q 1425 3775 1362 3837
Q 1300 3900 1175 3900
L 725 3900
L 725 4050
L 950 4050
Q 1250 4050 1437 4150
Q 1625 4250 1725 4450
L 1825 4450
z
" transform="scale(0.015625)"/>
      <path id="SimSun-36" d="M 775 1800
Q 775 1050 1037 637
Q 1300 225 1675 225
Q 2050 225 2250 500
Q 2450 775 2450 1525
Q 2450 2025 2237 2300
Q 2025 2575 1725 2575
Q 1450 2575 1212 2412
Q 975 2250 775 1800
z
M 1750 2825
Q 2350 2825 2612 2425
Q 2875 2025 2875 1525
Q 2875 775 2512 412
Q 2150 50 1675 50
Q 1000 50 650 562
Q 300 1075 300 2050
Q 300 3200 725 3812
Q 1150 4425 1875 4425
Q 2225 4425 2437 4225
Q 2650 4025 2650 3875
Q 2650 3725 2587 3650
Q 2525 3575 2375 3575
Q 2250 3575 2187 3637
Q 2125 3700 2125 3825
Q 2125 3875 2150 3925
Q 2150 3975 2150 4025
Q 2150 4125 2075 4187
Q 2000 4250 1800 4250
Q 1375 4250 1075 3862
Q 775 3475 775 2175
Q 925 2500 1187 2662
Q 1450 2825 1750 2825
z
" transform="scale(0.015625)"/>
      <path id="SimSun-7cfb" d="M 4975 1950
L 3600 1850
L 3600 200
Q 3650 -400 3025 -575
Q 3025 -175 2250 0
L 2250 100
Q 2900 25 3087 25
Q 3275 25 3250 375
L 3250 1800
Q 2550 1750 2112 1662
Q 1675 1575 1425 1475
L 1175 1950
Q 1450 1975 2037 2250
Q 2625 2525 3675 3175
Q 2675 3075 2275 2987
Q 1875 2900 1625 2775
L 1375 3275
Q 1725 3300 2237 3687
Q 2750 4075 3075 4550
Q 1600 4450 1025 4450
L 1025 4550
Q 2525 4675 3475 4837
Q 4425 5000 5075 5250
L 5450 4775
Q 5075 4800 4437 4725
Q 3800 4650 3175 4575
L 3675 4325
Q 3350 4275 2800 3825
Q 2225 3375 1925 3250
L 3900 3325
Q 4375 3650 4625 3975
L 5100 3575
Q 4825 3550 4475 3350
Q 4100 3125 3212 2625
Q 2325 2125 1900 1925
L 4875 2075
Q 4500 2450 4250 2625
L 4300 2700
Q 4975 2450 5287 2262
Q 5600 2075 5612 1862
Q 5625 1650 5512 1475
Q 5400 1300 5287 1500
Q 5175 1700 4975 1950
z
M 4000 1300
Q 5175 800 5462 600
Q 5750 400 5775 162
Q 5800 -75 5712 -200
Q 5625 -325 5600 -325
Q 5475 -325 5325 -25
Q 5075 425 3950 1225
L 4000 1300
z
M 2250 1400
L 2700 950
Q 2500 950 1875 475
Q 1250 -25 425 -375
L 375 -300
Q 925 25 1437 462
Q 1950 900 2250 1400
z
" transform="scale(0.015625)"/>
      <path id="SimSun-8868" d="M 2300 -25
L 3600 525
L 3650 425
Q 2550 -225 2100 -600
L 1800 -200
Q 1925 -100 1925 200
L 1925 1175
Q 1225 675 250 375
L 225 475
Q 1125 875 1725 1375
Q 2325 1875 2775 2500
L 1150 2500
Q 825 2500 550 2425
L 325 2650
L 2925 2650
L 2925 3375
L 1950 3375
Q 1625 3375 1350 3300
L 1125 3525
L 2925 3525
L 2925 4200
L 1525 4200
Q 1200 4200 925 4125
L 700 4350
L 2925 4350
Q 2925 4825 2900 5225
L 3475 4975
L 3275 4800
L 3275 4350
L 4900 4350
L 5250 4700
L 5725 4200
L 3275 4200
L 3275 3525
L 4550 3525
L 4875 3850
L 5325 3375
L 3275 3375
L 3275 2650
L 5150 2650
L 5525 3025
L 6025 2500
L 3250 2500
Q 3500 1850 3875 1300
Q 4600 1875 4925 2375
L 5350 1950
L 5100 1925
Q 4450 1525 3950 1200
Q 4350 725 4850 462
Q 5350 200 6100 125
L 6100 25
Q 5700 -25 5525 -325
Q 4800 -50 4162 550
Q 3525 1150 3125 2375
Q 2775 1900 2300 1450
L 2300 -25
z
" transform="scale(0.015625)"/>
     </defs>
     <use xlink:href="#SimSun-31"/>
     <use xlink:href="#SimSun-36" x="50"/>
     <use xlink:href="#SimSun-76f8" x="100"/>
     <use xlink:href="#SimSun-4f4d" x="200"/>
     <use xlink:href="#SimSun-7cfb" x="300"/>
     <use xlink:href="#SimSun-6570" x="400"/>
     <use xlink:href="#SimSun-8868" x="500"/>
    </g>
    <!-- sin / cos -->
    <g transform="translate(381.6 57.926562) scale(0.16 -0.16)">
     <defs>
      <path id="SimSun-6e" d="M 200 100
L 200 250
L 325 250
Q 450 250 500 300
Q 550 350 550 450
L 550 2600
Q 550 2675 525 2712
Q 500 2750 425 2750
L 225 2750
L 225 2900
L 400 2900
Q 525 2900 637 2925
Q 750 2950 850 3025
L 900 3025
L 900 2450
Q 1125 2700 1350 2825
Q 1575 2950 1825 2950
Q 2250 2950 2450 2725
Q 2650 2500 2650 2050
L 2650 450
Q 2650 350 2712 300
Q 2775 250 2875 250
L 3000 250
L 3000 100
L 1950 100
L 1950 250
L 2075 250
Q 2200 250 2250 300
Q 2300 350 2300 450
L 2300 2125
Q 2300 2425 2175 2587
Q 2050 2750 1800 2750
Q 1575 2750 1337 2600
Q 1100 2450 900 2175
L 900 450
Q 900 350 962 300
Q 1025 250 1125 250
L 1250 250
L 1250 100
L 200 100
z
" transform="scale(0.015625)"/>
      <path id="SimSun-63" d="M 2150 2225
Q 2150 2300 2175 2325
Q 2175 2350 2200 2425
Q 2225 2525 2100 2662
Q 1975 2800 1675 2800
Q 1300 2800 1037 2437
Q 775 2075 775 1475
Q 775 925 1000 587
Q 1225 250 1750 250
Q 2100 250 2337 475
Q 2575 700 2675 1000
L 2800 950
Q 2700 575 2425 312
Q 2150 50 1675 50
Q 1075 50 725 425
Q 375 800 375 1500
Q 375 2125 750 2537
Q 1125 2950 1725 2950
Q 2150 2950 2387 2725
Q 2625 2500 2625 2275
Q 2625 2125 2562 2062
Q 2500 2000 2375 2000
Q 2275 2000 2212 2062
Q 2150 2125 2150 2225
z
" transform="scale(0.015625)"/>
      <path id="SimSun-6f" d="M 2900 1500
Q 2900 875 2525 462
Q 2150 50 1600 50
Q 1025 50 662 475
Q 300 900 300 1500
Q 300 2050 662 2500
Q 1025 2950 1600 2950
Q 2200 2950 2550 2500
Q 2900 2050 2900 1500
z
M 700 1475
Q 700 825 962 512
Q 1225 200 1600 200
Q 2025 200 2262 537
Q 2500 875 2500 1475
Q 2500 2125 2237 2462
Q 1975 2800 1600 2800
Q 1250 2800 975 2462
Q 700 2125 700 1475
z
" transform="scale(0.015625)"/>
     </defs>
     <use xlink:href="#SimSun-73"/>
     <use xlink:href="#SimSun-69" x="50"/>
     <use xlink:href="#SimSun-6e" x="100"/>
     <use xlink:href="#SimSun-20" x="150"/>
     <use xlink:href="#SimSun-2f" x="200"/>
     <use xlink:href="#SimSun-20" x="250"/>
     <use xlink:href="#SimSun-63" x="300"/>
     <use xlink:href="#SimSun-6f" x="350"/>
     <use xlink:href="#SimSun-73" x="400"/>
    </g>
   </g>
   <g id="text_8">
    <!-- 单路：8拍/点，100 M样点/s；1个实数乘法单元分时复用 -->
    <g transform="translate(232 223.50375) scale(0.16 -0.16)">
     <defs>
      <path id="SimSun-5355" d="M 1600 3800
L 1600 2975
L 2950 2975
L 2950 3800
L 1600 3800
z
M 3300 3800
L 3300 2975
L 4725 2975
L 4725 3800
L 3300 3800
z
M 1600 2825
L 1600 1975
L 2950 1975
L 2950 2825
L 1600 2825
z
M 3300 2825
L 3300 1975
L 4725 1975
L 4725 2825
L 3300 2825
z
M 1825 5150
L 1875 5225
Q 2225 5025 2487 4812
Q 2750 4600 2737 4425
Q 2725 4250 2637 4162
Q 2550 4075 2525 4075
Q 2425 4075 2325 4375
Q 2175 4750 1825 5150
z
M 3300 900
Q 3300 -125 3325 -450
L 2925 -625
Q 2950 250 2950 900
L 825 900
L 500 850
L 300 1050
L 2950 1050
L 2950 1825
L 1600 1825
L 1600 1525
L 1225 1375
Q 1250 2075 1250 2775
Q 1250 3475 1225 4175
L 1625 3950
L 3525 3950
Q 3700 4225 3887 4612
Q 4075 5000 4150 5275
L 4650 4900
Q 4450 4825 4212 4575
Q 3975 4325 3675 3950
L 4675 3950
L 4875 4175
L 5275 3875
L 5050 3700
Q 5050 2175 5075 1700
L 4725 1550
L 4725 1825
L 3300 1825
L 3300 1050
L 5175 1050
L 5575 1450
L 6125 900
L 3300 900
z
" transform="scale(0.015625)"/>
      <path id="SimSun-8def" d="M 3625 4025
Q 3875 3500 4325 3025
Q 4700 3525 5025 4225
L 3725 4225
L 3625 4025
z
M 3675 1550
L 3675 75
L 5000 75
L 5000 1550
L 3675 1550
z
M 5325 1450
Q 5325 375 5350 -375
L 5000 -550
L 5000 -75
L 3675 -75
L 3675 -450
L 3325 -650
Q 3350 150 3350 1750
Q 3000 1500 2350 1275
L 2325 1350
Q 3350 1875 4125 2825
Q 3800 3300 3550 3900
Q 3175 3175 2750 2700
L 2675 2750
Q 3400 3950 3675 5225
L 4175 4950
L 3975 4800
Q 3925 4700 3775 4375
L 5050 4375
L 5225 4625
L 5625 4300
L 5400 4125
Q 5025 3425 4550 2825
Q 5250 2225 6150 2025
L 6150 1925
Q 5825 1900 5700 1650
Q 4975 2000 4350 2575
Q 4050 2275 3525 1850
L 3750 1700
L 4975 1700
L 5125 1900
L 5500 1600
L 5325 1450
z
M 1075 4475
L 1075 3175
L 2225 3175
L 2225 4475
L 1075 4475
z
M 1000 350
L 1500 475
L 1500 3025
L 1075 3025
L 1075 2825
L 725 2700
Q 750 3300 750 3850
Q 750 4400 725 4800
L 1075 4625
L 2175 4625
L 2350 4850
L 2725 4575
L 2525 4400
Q 2525 3325 2550 2950
L 2225 2800
L 2225 3025
L 1800 3025
L 1800 2075
L 2100 2075
L 2375 2350
L 2775 1925
L 1800 1925
L 1800 550
L 2725 775
L 2750 675
Q 1850 375 725 -75
L 550 -200
L 300 175
L 700 275
Q 700 1800 675 2325
L 1200 2075
L 1000 1900
L 1000 350
z
" transform="scale(0.015625)"/>
      <path id="SimSun-ff1a" d="M 1550 675
Q 1700 575 1687 337
Q 1675 100 1500 0
Q 1325 -100 1250 -100
Q 1175 -100 1000 0
Q 825 100 812 350
Q 800 600 962 687
Q 1125 775 1250 775
Q 1400 775 1550 675
z
M 1550 2187
Q 1725 2100 1725 1837
Q 1725 1575 1525 1487
Q 1325 1400 1250 1400
Q 1125 1400 962 1512
Q 800 1625 812 1862
Q 825 2100 1000 2187
Q 1175 2275 1275 2275
Q 1375 2275 1550 2187
z
" transform="scale(0.015625)"/>
      <path id="SimSun-38" d="M 625 1125
Q 625 725 887 475
Q 1150 225 1550 225
Q 2025 225 2237 475
Q 2450 725 2450 1100
Q 2450 1425 2150 1725
Q 1850 2025 1250 2275
Q 950 2075 787 1775
Q 625 1475 625 1125
z
M 2825 1175
Q 2825 700 2475 375
Q 2125 50 1550 50
Q 1025 50 650 375
Q 275 700 275 1125
Q 275 1550 487 1850
Q 700 2150 1100 2375
Q 750 2550 562 2812
Q 375 3075 375 3400
Q 375 3825 700 4125
Q 1025 4425 1600 4425
Q 2125 4425 2450 4125
Q 2775 3825 2775 3400
Q 2775 3100 2587 2837
Q 2400 2575 2000 2375
Q 2425 2125 2625 1825
Q 2825 1525 2825 1175
z
M 2425 3375
Q 2425 3725 2225 3987
Q 2025 4250 1600 4250
Q 1125 4250 925 4000
Q 725 3750 725 3475
Q 725 3200 1012 2937
Q 1300 2675 1825 2475
Q 2125 2625 2275 2850
Q 2425 3075 2425 3375
z
" transform="scale(0.015625)"/>
      <path id="SimSun-62cd" d="M 2875 -575
Q 2900 450 2900 2062
Q 2900 3675 2875 4025
L 3250 3775
L 3650 3775
Q 3950 4575 4075 5200
L 4600 4875
Q 4425 4850 4212 4487
Q 4000 4125 3800 3775
L 5175 3775
L 5350 4025
L 5775 3725
L 5600 3550
L 5600 775
Q 5600 125 5625 -325
L 5250 -500
L 5250 125
L 3250 125
L 3250 -400
L 2875 -575
z
M 3250 3625
L 3250 2100
L 5250 2100
L 5250 3625
L 3250 3625
z
M 3250 1950
L 3250 275
L 5250 275
L 5250 1950
L 3250 1950
z
M 1800 2375
L 2600 2800
L 2650 2700
L 1800 2125
L 1800 125
Q 1800 -350 1250 -575
Q 1275 -275 550 -25
L 550 75
Q 1075 0 1262 0
Q 1450 0 1450 350
L 1450 1925
Q 750 1475 675 1300
L 350 1775
Q 625 1825 1450 2225
L 1450 3550
L 800 3550
L 500 3500
L 300 3700
L 1450 3700
Q 1450 4825 1425 5250
L 2025 4950
L 1800 4775
L 1800 3700
L 2150 3700
L 2400 3950
L 2800 3550
L 1800 3550
L 1800 2375
z
" transform="scale(0.015625)"/>
      <path id="SimSun-ff0c" d="M 1137 150
Q 1275 325 1375 650
Q 1150 650 1050 725
Q 950 800 912 925
Q 875 1050 900 1162
Q 925 1275 1075 1387
Q 1225 1500 1450 1450
Q 1675 1400 1725 1262
Q 1775 1125 1775 1000
Q 1775 850 1700 612
Q 1625 375 1362 87
Q 1100 -200 937 -225
Q 775 -250 775 -225
Q 775 -200 850 -150
Q 1000 -25 1137 150
z
" transform="scale(0.015625)"/>
      <path id="SimSun-30" d="M 1600 4225
Q 1250 4225 1012 3687
Q 775 3150 775 2250
Q 775 1300 1012 775
Q 1250 250 1600 250
Q 1975 250 2187 775
Q 2400 1300 2400 2250
Q 2400 3150 2200 3687
Q 2000 4225 1600 4225
z
M 1600 50
Q 1050 50 675 625
Q 300 1200 300 2250
Q 300 3225 662 3825
Q 1025 4425 1600 4425
Q 2150 4425 2512 3850
Q 2875 3275 2875 2250
Q 2875 1225 2512 637
Q 2150 50 1600 50
z
" transform="scale(0.015625)"/>
      <path id="SimSun-ff1b" d="M 1350 50
Q 1175 50 1062 87
Q 950 125 900 225
Q 850 325 862 437
Q 875 550 937 625
Q 1000 700 1087 737
Q 1175 775 1225 775
Q 1300 775 1412 737
Q 1525 700 1600 562
Q 1675 425 1675 300
Q 1675 175 1612 -37
Q 1550 -250 1375 -387
Q 1200 -525 1062 -550
Q 925 -575 925 -550
Q 925 -525 1000 -500
Q 1125 -400 1212 -287
Q 1300 -175 1350 50
z
M 1512 2200
Q 1675 2150 1687 1862
Q 1700 1575 1525 1487
Q 1350 1400 1250 1400
Q 1150 1400 975 1500
Q 800 1600 812 1837
Q 825 2075 975 2162
Q 1125 2250 1250 2250
Q 1350 2250 1512 2200
z
" transform="scale(0.015625)"/>
      <path id="SimSun-4e2a" d="M 2975 -650
Q 3000 350 3000 750
L 3000 2400
Q 3000 2850 2975 3475
L 3575 3150
L 3375 3000
L 3375 500
Q 3375 75 3400 -400
L 2975 -650
z
M 3525 4975
L 3300 4825
Q 3975 3800 4712 3287
Q 5450 2775 6125 2675
L 6125 2575
Q 5725 2550 5550 2250
Q 4800 2650 4275 3200
Q 3750 3750 3225 4675
Q 2650 3675 2000 3075
Q 1350 2475 275 2025
L 250 2125
Q 1325 2650 2037 3575
Q 2750 4500 3000 5275
L 3525 4975
z
" transform="scale(0.015625)"/>
      <path id="SimSun-6cd5" d="M 3800 3850
Q 3800 4925 3775 5275
L 4375 4975
L 4125 4725
L 4125 3850
L 5100 3850
L 5375 4125
L 5775 3700
L 4125 3700
L 4125 2350
L 5450 2350
L 5750 2650
L 6175 2200
L 3825 2200
L 4225 1925
Q 4000 1825 3750 1450
Q 3500 1075 2600 125
L 5225 300
Q 4900 750 4525 1175
L 4575 1250
Q 5025 925 5287 725
Q 5550 525 5712 337
Q 5875 150 5875 0
Q 5875 -150 5775 -300
Q 5675 -450 5650 -450
Q 5575 -450 5525 -300
Q 5425 -50 5300 175
Q 3900 25 3175 -150
Q 2450 -325 2350 -450
L 2100 125
Q 2425 125 2962 875
Q 3500 1625 3700 2200
L 2775 2200
Q 2450 2200 2175 2125
L 1950 2350
L 3800 2350
L 3800 3700
L 3250 3700
Q 2925 3700 2650 3625
L 2425 3850
L 3800 3850
z
M 2375 4150
Q 1400 1500 1312 1187
Q 1225 875 1237 425
Q 1250 -25 1275 -200
Q 1275 -300 1150 -300
Q 1050 -300 900 -250
Q 750 -200 750 -25
Q 750 100 825 350
Q 900 600 900 750
Q 900 925 787 1025
Q 675 1125 300 1225
L 300 1325
Q 750 1275 862 1287
Q 975 1300 1112 1512
Q 1250 1725 2275 4175
L 2375 4150
z
M 325 3600
Q 1200 3150 1200 2862
Q 1200 2575 1062 2475
Q 925 2375 825 2725
Q 700 3050 275 3525
L 325 3600
z
M 900 5050
Q 1600 4700 1662 4525
Q 1725 4350 1725 4275
Q 1725 4150 1637 4050
Q 1550 3950 1500 3950
Q 1425 3950 1350 4200
Q 1225 4525 850 4975
L 900 5050
z
" transform="scale(0.015625)"/>
      <path id="SimSun-5143" d="M 525 3025
L 5000 3025
L 5375 3400
L 5900 2875
L 4000 2875
L 4000 450
Q 4000 -25 4550 25
L 5125 25
Q 5500 25 5562 400
Q 5625 775 5675 1400
L 5800 1400
Q 5800 700 5850 425
Q 5900 150 6125 75
Q 5875 -300 5400 -300
L 4325 -300
Q 3625 -325 3625 250
L 3625 2875
L 2725 2875
Q 2600 1250 2087 562
Q 1575 -125 350 -625
L 300 -550
Q 1575 200 1925 1000
Q 2275 1800 2325 2875
L 1350 2875
Q 1025 2875 750 2800
L 525 3025
z
M 1250 4625
L 4500 4625
L 4850 4975
L 5350 4475
L 2025 4475
Q 1700 4475 1475 4400
L 1250 4625
z
" transform="scale(0.015625)"/>
      <path id="SimSun-65f6" d="M 4500 3600
Q 4500 4575 4475 5225
L 5100 4900
L 4850 4725
L 4850 3600
L 5225 3600
L 5550 3925
L 6025 3450
L 4850 3450
L 4850 100
Q 4850 -375 4300 -575
Q 4275 -200 3475 -25
L 3475 100
Q 4150 0 4325 25
Q 4500 50 4500 325
L 4500 3450
L 3200 3450
Q 2875 3450 2600 3375
L 2375 3600
L 4500 3600
z
M 2875 2825
Q 3525 2375 3637 2200
Q 3750 2025 3750 1925
Q 3750 1800 3637 1637
Q 3525 1475 3475 1475
Q 3400 1475 3325 1775
Q 3200 2225 2800 2750
L 2875 2825
z
M 925 4150
L 925 2650
L 1950 2650
L 1950 4150
L 925 4150
z
M 925 2500
L 925 900
L 1950 900
L 1950 2500
L 925 2500
z
M 2300 2000
Q 2300 800 2325 450
L 1950 250
L 1950 750
L 925 750
L 925 225
L 550 25
Q 575 825 575 2425
Q 575 4025 550 4500
L 950 4300
L 1900 4300
L 2100 4550
L 2500 4225
L 2300 4050
L 2300 2000
z
" transform="scale(0.015625)"/>
      <path id="SimSun-7528" d="M 3400 3150
L 3400 1825
L 5075 1825
L 5075 3150
L 3400 3150
z
M 4075 100
Q 4725 50 4900 62
Q 5075 75 5075 400
L 5075 1675
L 3400 1675
Q 3400 75 3425 -225
L 3050 -400
Q 3075 1025 3075 1675
L 1425 1675
Q 1250 350 375 -600
L 300 -550
Q 775 225 950 1025
Q 1125 1825 1125 3225
Q 1125 4625 1100 5075
L 1475 4825
L 5050 4825
L 5225 5100
L 5625 4800
L 5425 4600
L 5425 225
Q 5450 -400 4875 -575
Q 4825 -150 4075 -25
L 4075 100
z
M 1475 4675
L 1475 3300
L 3075 3300
L 3075 4675
L 1475 4675
z
M 3400 4675
L 3400 3300
L 5075 3300
L 5075 4675
L 3400 4675
z
M 1475 3150
Q 1450 2100 1425 1825
L 3075 1825
L 3075 3150
L 1475 3150
z
" transform="scale(0.015625)"/>
     </defs>
     <use xlink:href="#SimSun-5355"/>
     <use xlink:href="#SimSun-8def" x="100"/>
     <use xlink:href="#SimSun-ff1a" x="200"/>
     <use xlink:href="#SimSun-38" x="300"/>
     <use xlink:href="#SimSun-62cd" x="350"/>
     <use xlink:href="#SimSun-2f" x="450"/>
     <use xlink:href="#SimSun-70b9" x="500"/>
     <use xlink:href="#SimSun-ff0c" x="600"/>
     <use xlink:href="#SimSun-31" x="700"/>
     <use xlink:href="#SimSun-30" x="750"/>
     <use xlink:href="#SimSun-30" x="800"/>
     <use xlink:href="#SimSun-20" x="850"/>
     <use xlink:href="#SimSun-4d" x="900"/>
     <use xlink:href="#SimSun-6837" x="950"/>
     <use xlink:href="#SimSun-70b9" x="1050"/>
     <use xlink:href="#SimSun-2f" x="1150"/>
     <use xlink:href="#SimSun-73" x="1200"/>
     <use xlink:href="#SimSun-ff1b" x="1250"/>
     <use xlink:href="#SimSun-31" x="1350"/>
     <use xlink:href="#SimSun-4e2a" x="1400"/>
     <use xlink:href="#SimSun-5b9e" x="1500"/>
     <use xlink:href="#SimSun-6570" x="1600"/>
     <use xlink:href="#SimSun-4e58" x="1700"/>
     <use xlink:href="#SimSun-6cd5" x="1800"/>
     <use xlink:href="#SimSun-5355" x="1900"/>
     <use xlink:href="#SimSun-5143" x="2000"/>
     <use xlink:href="#SimSun-5206" x="2100"/>
     <use xlink:href="#SimSun-65f6" x="2200"/>
     <use xlink:href="#SimSun-590d" x="2300"/>
     <use xlink:href="#SimSun-7528" x="2400"/>
    </g>
   </g>
  </g>
 </g>
 <defs>
  <clipPath id="pa920d951b0">
   <rect x="0" y="0" width="864" height="252"/>
  </clipPath>
 </defs>
</svg>
