<svg xmlns="http://www.w3.org/2000/svg" width="1050" height="800" viewBox="0 0 1050 800">
<defs><marker id="a" markerWidth="8" markerHeight="8" refX="7" refY="4" orient="auto"><path d="M0 0L8 4L0 8Z" fill="#263442"/></marker></defs>
<style>text{font-family:"Noto Sans CJK SC",sans-serif;fill:#263442;text-anchor:middle;font-size:24px}.small{font-size:18px}.head{font-size:21px;font-weight:600}.node{fill:white;stroke:#263442;stroke-width:1.7}.end{fill:#eef3f6;stroke:#263442;stroke-width:1.7}.arrow{fill:none;stroke:#263442;stroke-width:1.8;marker-end:url(#a)}.wire{fill:none;stroke:#263442;stroke-width:1.8}.dash{fill:none;stroke:#263442;stroke-width:1.8;stroke-dasharray:6 5;marker-end:url(#a)}</style>
<rect width="1050" height="800" fill="white"/>
<rect x="375" y="20" width="300" height="60" rx="7" class="end"/>
<text x="525" y="58" class="">连续1 ms Prompt</text>
<path d="M525 80V111H330V155" class="arrow"/>
<path d="M525 111H845V155" class="arrow"/>
<text x="314" y="141" class="head" style="text-anchor:end">L1 C/A、G1</text>
<text x="829" y="141" class="head" style="text-anchor:end">B1I</text>
<rect x="140" y="155" width="380" height="75" rx="4" class="node"/>
<text x="330" y="187" class="">统一NCO参考并旋转</text>
<text x="330" y="220" class="small">11点 × 12.5 Hz；范围 ±62.5 Hz</text>
<rect x="720" y="155" width="250" height="75" rx="4" class="node"/>
<text x="845" y="187" class="">复平方 P²</text>
<text x="845" y="220" class="small">不使用DFT</text>
<path d="M330 230V263H200V303" class="arrow"/>
<path d="M330 263H480V303" class="arrow"/>
<text x="184" y="289" class="head" style="text-anchor:end">L1 C/A</text>
<text x="464" y="289" class="head" style="text-anchor:end">G1</text>
<rect x="90" y="303" width="220" height="65" rx="4" class="node"/>
<text x="200" y="343.5" class="">10 ms相干</text>
<rect x="370" y="303" width="220" height="65" rx="4" class="node"/>
<text x="480" y="343.5" class="">5 ms相干</text>
<path d="M200 368V409" class="arrow"/>
<path d="M480 368V409" class="arrow"/>
<rect x="90" y="409" width="220" height="65" rx="4" class="node"/>
<text x="200" y="449.5" class="">16块功率累加</text>
<rect x="370" y="409" width="220" height="65" rx="4" class="node"/>
<text x="480" y="449.5" class="">32块功率累加</text>
<path d="M845 230V303" class="arrow"/>
<rect x="720" y="303" width="250" height="65" rx="4" class="node"/>
<text x="845" y="335" class="">逐对 asin 鉴频</text>
<text x="845" y="358" class="small">恢复物理频差</text>
<path d="M845 368V409" class="arrow"/>
<rect x="720" y="409" width="250" height="65" rx="4" class="node"/>
<text x="845" y="449.5" class="">160个间隔平均</text>
<path d="M200 474V507H330V539" class="arrow"/>
<path d="M480 474V507H330" class="wire"/>
<rect x="150" y="539" width="360" height="65" rx="4" class="node"/>
<text x="330" y="579.5" class="">功率峰 + 三点插值</text>
<path d="M330 604V643H525V675" class="arrow"/>
<path d="M845 474V643H525" class="wire"/>
<rect x="335" y="675" width="380" height="65" rx="7" class="end"/>
<text x="525" y="707" class="">LongFast FLL → 载波NCO</text>
<text x="525" y="730" class="small">160 ms观察 / 160 ms更新</text>
<text x="525" y="778" class="small">窗间保持控制量；同步前不做频率变化率外推</text>
</svg>
